<ttFont>
    <TTGlyph name="A" xMin="68" yMin="-82" xMax="991" yMax="1454">
      <contour>
        <pt x="492" y="788" on="1"/>
        <pt x="454" y="788" on="0"/>
        <pt x="401" y="840" on="0"/>
        <pt x="401" y="891" on="1"/>
        <pt x="401" y="902" on="0"/>
        <pt x="404" y="925" on="0"/>
        <pt x="410" y="944" on="0"/>
        <pt x="419" y="956" on="0"/>
        <pt x="424" y="956" on="1"/>
        <pt x="429" y="956" on="0"/>
        <pt x="438" y="950" on="0"/>
        <pt x="453" y="942" on="0"/>
        <pt x="479" y="936" on="0"/>
        <pt x="502" y="936" on="1"/>
        <pt x="557" y="936" on="0"/>
        <pt x="673" y="971" on="0"/>
        <pt x="768" y="1036" on="0"/>
        <pt x="829" y="1128" on="0"/>
        <pt x="829" y="1186" on="1"/>
        <pt x="829" y="1207" on="0"/>
        <pt x="815" y="1247" on="0"/>
        <pt x="787" y="1278" on="0"/>
        <pt x="744" y="1298" on="0"/>
        <pt x="715" y="1298" on="1"/>
        <pt x="635" y="1298" on="0"/>
        <pt x="502" y="1228" on="0"/>
        <pt x="394" y="1109" on="0"/>
        <pt x="313" y="953" on="0"/>
        <pt x="259" y="780" on="0"/>
        <pt x="231" y="602" on="0"/>
        <pt x="231" y="522" on="1"/>
        <pt x="231" y="426" on="0"/>
        <pt x="255" y="263" on="0"/>
        <pt x="309" y="145" on="0"/>
        <pt x="399" y="78" on="0"/>
        <pt x="465" y="78" on="1"/>
        <pt x="525" y="78" on="0"/>
        <pt x="617" y="139" on="0"/>
        <pt x="686" y="243" on="0"/>
        <pt x="735" y="382" on="0"/>
        <pt x="771" y="540" on="0"/>
        <pt x="797" y="708" on="0"/>
        <pt x="807" y="788" on="1"/>
        <pt x="810" y="808" on="0"/>
        <pt x="862" y="829" on="0"/>
        <pt x="891" y="829" on="1"/>
        <pt x="903" y="829" on="0"/>
        <pt x="929" y="823" on="0"/>
        <pt x="948" y="811" on="0"/>
        <pt x="957" y="791" on="0"/>
        <pt x="954" y="776" on="1"/>
        <pt x="946" y="736" on="0"/>
        <pt x="928" y="563" on="0"/>
        <pt x="928" y="442" on="1"/>
        <pt x="928" y="341" on="0"/>
        <pt x="931" y="195" on="0"/>
        <pt x="937" y="89" on="0"/>
        <pt x="943" y="18" on="0"/>
        <pt x="946" y="-6" on="1"/>
        <pt x="952" y="-15" on="0"/>
        <pt x="952" y="-20" on="1"/>
        <pt x="952" y="-30" on="0"/>
        <pt x="932" y="-48" on="0"/>
        <pt x="902" y="-62" on="0"/>
        <pt x="865" y="-70" on="0"/>
        <pt x="848" y="-70" on="1"/>
        <pt x="821" y="-70" on="0"/>
        <pt x="793" y="-48" on="0"/>
        <pt x="780" y="3" on="0"/>
        <pt x="776" y="88" on="0"/>
        <pt x="774" y="150" on="1"/>
        <pt x="751" y="101" on="0"/>
        <pt x="683" y="17" on="0"/>
        <pt x="599" y="-46" on="0"/>
        <pt x="500" y="-82" on="0"/>
        <pt x="446" y="-82" on="1"/>
        <pt x="362" y="-82" on="0"/>
        <pt x="223" y="-18" on="0"/>
        <pt x="123" y="124" on="0"/>
        <pt x="68" y="353" on="0"/>
        <pt x="68" y="518" on="1"/>
        <pt x="68" y="631" on="0"/>
        <pt x="111" y="858" on="0"/>
        <pt x="192" y="1066" on="0"/>
        <pt x="309" y="1246" on="0"/>
        <pt x="455" y="1378" on="0"/>
        <pt x="628" y="1454" on="0"/>
        <pt x="725" y="1454" on="1"/>
        <pt x="788" y="1454" on="0"/>
        <pt x="887" y="1414" on="0"/>
        <pt x="955" y="1343" on="0"/>
        <pt x="991" y="1248" on="0"/>
        <pt x="991" y="1194" on="1"/>
        <pt x="991" y="1105" on="0"/>
        <pt x="905" y="956" on="0"/>
        <pt x="765" y="848" on="0"/>
        <pt x="585" y="788" on="0"/>
      </contour>
    </TTGlyph>
    <TTGlyph name="AE" xMin="68" yMin="-88" xMax="1714" yMax="1468">
      <contour>
        <pt x="1657" y="147" on="1"/>
        <pt x="1644" y="125" on="0"/>
        <pt x="1581" y="46" on="0"/>
        <pt x="1477" y="-31" on="0"/>
        <pt x="1329" y="-88" on="0"/>
        <pt x="1231" y="-88" on="1"/>
        <pt x="1141" y="-88" on="0"/>
        <pt x="991" y="-23" on="0"/>
        <pt x="940" y="37" on="1"/>
        <pt x="943" y="13" on="0"/>
        <pt x="946" y="-6" on="1"/>
        <pt x="952" y="-15" on="0"/>
        <pt x="952" y="-20" on="1"/>
        <pt x="952" y="-30" on="0"/>
        <pt x="932" y="-48" on="0"/>
        <pt x="902" y="-62" on="0"/>
        <pt x="865" y="-70" on="0"/>
        <pt x="848" y="-70" on="1"/>
        <pt x="821" y="-70" on="0"/>
        <pt x="793" y="-48" on="0"/>
        <pt x="780" y="3" on="0"/>
        <pt x="776" y="88" on="0"/>
        <pt x="774" y="150" on="1"/>
        <pt x="751" y="101" on="0"/>
        <pt x="683" y="17" on="0"/>
        <pt x="599" y="-46" on="0"/>
        <pt x="500" y="-82" on="0"/>
        <pt x="446" y="-82" on="1"/>
        <pt x="362" y="-82" on="0"/>
        <pt x="223" y="-18" on="0"/>
        <pt x="123" y="124" on="0"/>
        <pt x="68" y="353" on="0"/>
        <pt x="68" y="518" on="1"/>
        <pt x="68" y="631" on="0"/>
        <pt x="111" y="858" on="0"/>
        <pt x="192" y="1066" on="0"/>
        <pt x="309" y="1246" on="0"/>
        <pt x="455" y="1378" on="0"/>
        <pt x="628" y="1454" on="0"/>
        <pt x="725" y="1454" on="1"/>
        <pt x="784" y="1454" on="0"/>
        <pt x="879" y="1418" on="0"/>
        <pt x="946" y="1355" on="0"/>
        <pt x="985" y="1269" on="0"/>
        <pt x="989" y="1219" on="1"/>
        <pt x="1027" y="1273" on="0"/>
        <pt x="1122" y="1364" on="0"/>
        <pt x="1233" y="1430" on="0"/>
        <pt x="1357" y="1468" on="0"/>
        <pt x="1423" y="1468" on="1"/>
        <pt x="1494" y="1468" on="0"/>
        <pt x="1603" y="1426" on="0"/>
        <pt x="1676" y="1353" on="0"/>
        <pt x="1714" y="1254" on="0"/>
        <pt x="1714" y="1198" on="1"/>
        <pt x="1714" y="1118" on="0"/>
        <pt x="1653" y="966" on="0"/>
        <pt x="1549" y="847" on="0"/>
        <pt x="1411" y="774" on="0"/>
        <pt x="1335" y="774" on="1"/>
        <pt x="1316" y="774" on="0"/>
        <pt x="1276" y="784" on="0"/>
        <pt x="1244" y="807" on="0"/>
        <pt x="1223" y="845" on="0"/>
        <pt x="1223" y="872" on="1"/>
        <pt x="1223" y="883" on="0"/>
        <pt x="1226" y="909" on="0"/>
        <pt x="1232" y="931" on="0"/>
        <pt x="1240" y="946" on="0"/>
        <pt x="1245" y="946" on="1"/>
        <pt x="1251" y="946" on="0"/>
        <pt x="1260" y="940" on="0"/>
        <pt x="1275" y="932" on="0"/>
        <pt x="1301" y="926" on="0"/>
        <pt x="1323" y="926" on="1"/>
        <pt x="1374" y="926" on="0"/>
        <pt x="1458" y="975" on="0"/>
        <pt x="1518" y="1053" on="0"/>
        <pt x="1552" y="1151" on="0"/>
        <pt x="1552" y="1200" on="1"/>
        <pt x="1552" y="1256" on="0"/>
        <pt x="1480" y="1311" on="0"/>
        <pt x="1423" y="1311" on="1"/>
        <pt x="1372" y="1311" on="0"/>
        <pt x="1276" y="1278" on="0"/>
        <pt x="1191" y="1219" on="0"/>
        <pt x="1121" y="1140" on="0"/>
        <pt x="1070" y="1049" on="0"/>
        <pt x="1042" y="950" on="0"/>
        <pt x="1042" y="901" on="1"/>
        <pt x="1042" y="844" on="0"/>
        <pt x="1081" y="746" on="0"/>
        <pt x="1142" y="673" on="0"/>
        <pt x="1215" y="630" on="0"/>
        <pt x="1249" y="627" on="1"/>
        <pt x="1254" y="629" on="0"/>
        <pt x="1263" y="629" on="0"/>
        <pt x="1268" y="629" on="1"/>
        <pt x="1286" y="629" on="0"/>
        <pt x="1303" y="600" on="0"/>
        <pt x="1303" y="580" on="1"/>
        <pt x="1303" y="563" on="0"/>
        <pt x="1294" y="526" on="0"/>
        <pt x="1280" y="495" on="0"/>
        <pt x="1262" y="474" on="0"/>
        <pt x="1253" y="473" on="1"/>
        <pt x="1221" y="469" on="0"/>
        <pt x="1144" y="445" on="0"/>
        <pt x="1078" y="394" on="0"/>
        <pt x="1034" y="313" on="0"/>
        <pt x="1034" y="252" on="1"/>
        <pt x="1034" y="213" on="0"/>
        <pt x="1064" y="147" on="0"/>
        <pt x="1118" y="100" on="0"/>
        <pt x="1192" y="74" on="0"/>
        <pt x="1235" y="74" on="1"/>
        <pt x="1299" y="74" on="0"/>
        <pt x="1402" y="110" on="0"/>
        <pt x="1478" y="162" on="0"/>
        <pt x="1526" y="220" on="0"/>
        <pt x="1536" y="242" on="1"/>
        <pt x="1544" y="260" on="0"/>
        <pt x="1567" y="276" on="0"/>
        <pt x="1579" y="276" on="1"/>
        <pt x="1594" y="276" on="0"/>
        <pt x="1624" y="258" on="0"/>
        <pt x="1648" y="229" on="0"/>
        <pt x="1663" y="194" on="0"/>
        <pt x="1663" y="176" on="1"/>
        <pt x="1663" y="160" on="0"/>
      </contour>
      <contour>
        <pt x="492" y="788" on="1"/>
        <pt x="454" y="788" on="0"/>
        <pt x="401" y="840" on="0"/>
        <pt x="401" y="891" on="1"/>
        <pt x="401" y="902" on="0"/>
        <pt x="404" y="925" on="0"/>
        <pt x="410" y="944" on="0"/>
        <pt x="419" y="956" on="0"/>
        <pt x="424" y="956" on="1"/>
        <pt x="429" y="956" on="0"/>
        <pt x="438" y="950" on="0"/>
        <pt x="453" y="942" on="0"/>
        <pt x="479" y="936" on="0"/>
        <pt x="502" y="936" on="1"/>
        <pt x="557" y="936" on="0"/>
        <pt x="673" y="971" on="0"/>
        <pt x="768" y="1036" on="0"/>
        <pt x="829" y="1128" on="0"/>
        <pt x="829" y="1186" on="1"/>
        <pt x="829" y="1207" on="0"/>
        <pt x="815" y="1247" on="0"/>
        <pt x="787" y="1278" on="0"/>
        <pt x="744" y="1298" on="0"/>
        <pt x="715" y="1298" on="1"/>
        <pt x="635" y="1298" on="0"/>
        <pt x="502" y="1228" on="0"/>
        <pt x="394" y="1109" on="0"/>
        <pt x="313" y="953" on="0"/>
        <pt x="259" y="780" on="0"/>
        <pt x="231" y="602" on="0"/>
        <pt x="231" y="522" on="1"/>
        <pt x="231" y="426" on="0"/>
        <pt x="255" y="263" on="0"/>
        <pt x="309" y="145" on="0"/>
        <pt x="399" y="78" on="0"/>
        <pt x="465" y="78" on="1"/>
        <pt x="525" y="78" on="0"/>
        <pt x="617" y="139" on="0"/>
        <pt x="686" y="243" on="0"/>
        <pt x="735" y="382" on="0"/>
        <pt x="771" y="540" on="0"/>
        <pt x="797" y="708" on="0"/>
        <pt x="807" y="788" on="1"/>
        <pt x="810" y="807" on="0"/>
        <pt x="855" y="827" on="0"/>
        <pt x="883" y="829" on="1"/>
        <pt x="881" y="843" on="0"/>
        <pt x="879" y="874" on="0"/>
        <pt x="879" y="891" on="1"/>
        <pt x="879" y="903" on="0"/>
        <pt x="879" y="930" on="0"/>
        <pt x="881" y="944" on="1"/>
        <pt x="845" y="908" on="0"/>
        <pt x="755" y="850" on="0"/>
        <pt x="655" y="810" on="0"/>
        <pt x="547" y="788" on="0"/>
      </contour>
      <contour>
        <pt x="928" y="440" on="1"/>
        <pt x="953" y="479" on="0"/>
        <pt x="1020" y="537" on="0"/>
        <pt x="1057" y="557" on="1"/>
        <pt x="1025" y="577" on="0"/>
        <pt x="963" y="631" on="0"/>
        <pt x="938" y="670" on="1"/>
        <pt x="933" y="623" on="0"/>
        <pt x="928" y="510" on="0"/>
        <pt x="928" y="442" on="1"/>
      </contour>
    </TTGlyph>
    <TTGlyph name="AEacute" xMin="68" yMin="-88" xMax="1714" yMax="1868">
      <component glyphName="AE" x="0" y="0" flags="0x204"/>
      <component glyphName="acute" x="674" y="631" flags="0x4"/>
    </TTGlyph>
    <TTGlyph name="Aacute" xMin="68" yMin="-82" xMax="991" yMax="1868">
      <component glyphName="A" x="0" y="0" flags="0x204"/>
      <component glyphName="acute" x="293" y="631" flags="0x4"/>
    </TTGlyph>
    <TTGlyph name="Abreve" xMin="68" yMin="-82" xMax="991" yMax="1848">
      <component glyphName="A" x="0" y="0" flags="0x204"/>
      <component glyphName="breve" x="254" y="631" flags="0x4"/>
    </TTGlyph>
    <TTGlyph name="Acircumflex" xMin="68" yMin="-82" xMax="991" yMax="1868">
      <component glyphName="A" x="0" y="0" flags="0x204"/>
      <component glyphName="circumflex" x="260" y="631" flags="0x4"/>
    </TTGlyph>
    <TTGlyph name="Adieresis" xMin="68" yMin="-82" xMax="991" yMax="1770">
      <component glyphName="A" x="0" y="0" flags="0x204"/>
      <component glyphName="dieresis" x="260" y="631" flags="0x4"/>
    </TTGlyph>
    <TTGlyph name="Agrave" xMin="68" yMin="-82" xMax="991" yMax="1868">
      <component glyphName="A" x="0" y="0" flags="0x204"/>
      <component glyphName="grave" x="225" y="631" flags="0x4"/>
    </TTGlyph>
    <TTGlyph name="Amacron" xMin="68" yMin="-82" xMax="991" yMax="1728">
      <component glyphName="A" x="0" y="0" flags="0x204"/>
      <component glyphName="macron" x="260" y="631" flags="0x4"/>
    </TTGlyph>
    <TTGlyph name="Aogonek" xMin="68" yMin="-442" xMax="1008" yMax="1454">
      <contour>
        <pt x="492" y="788" on="1"/>
        <pt x="454" y="788" on="0"/>
        <pt x="401" y="840" on="0"/>
        <pt x="401" y="891" on="1"/>
        <pt x="401" y="902" on="0"/>
        <pt x="404" y="925" on="0"/>
        <pt x="410" y="944" on="0"/>
        <pt x="419" y="956" on="0"/>
        <pt x="424" y="956" on="1"/>
        <pt x="429" y="956" on="0"/>
        <pt x="438" y="950" on="0"/>
        <pt x="453" y="942" on="0"/>
        <pt x="479" y="936" on="0"/>
        <pt x="502" y="936" on="1"/>
        <pt x="557" y="936" on="0"/>
        <pt x="673" y="971" on="0"/>
        <pt x="768" y="1036" on="0"/>
        <pt x="829" y="1128" on="0"/>
        <pt x="829" y="1186" on="1"/>
        <pt x="829" y="1207" on="0"/>
        <pt x="815" y="1247" on="0"/>
        <pt x="787" y="1278" on="0"/>
        <pt x="744" y="1298" on="0"/>
        <pt x="715" y="1298" on="1"/>
        <pt x="635" y="1298" on="0"/>
        <pt x="502" y="1228" on="0"/>
        <pt x="394" y="1109" on="0"/>
        <pt x="313" y="953" on="0"/>
        <pt x="259" y="780" on="0"/>
        <pt x="231" y="602" on="0"/>
        <pt x="231" y="522" on="1"/>
        <pt x="231" y="426" on="0"/>
        <pt x="255" y="263" on="0"/>
        <pt x="309" y="145" on="0"/>
        <pt x="399" y="78" on="0"/>
        <pt x="465" y="78" on="1"/>
        <pt x="525" y="78" on="0"/>
        <pt x="617" y="139" on="0"/>
        <pt x="686" y="243" on="0"/>
        <pt x="735" y="382" on="0"/>
        <pt x="771" y="540" on="0"/>
        <pt x="797" y="708" on="0"/>
        <pt x="807" y="788" on="1"/>
        <pt x="810" y="808" on="0"/>
        <pt x="862" y="829" on="0"/>
        <pt x="891" y="829" on="1"/>
        <pt x="903" y="829" on="0"/>
        <pt x="929" y="823" on="0"/>
        <pt x="948" y="811" on="0"/>
        <pt x="957" y="791" on="0"/>
        <pt x="954" y="776" on="1"/>
        <pt x="946" y="736" on="0"/>
        <pt x="928" y="563" on="0"/>
        <pt x="928" y="442" on="1"/>
        <pt x="928" y="385" on="0"/>
        <pt x="926" y="269" on="0"/>
        <pt x="929" y="152" on="0"/>
        <pt x="939" y="36" on="0"/>
        <pt x="952" y="-20" on="1"/>
        <pt x="957" y="-43" on="0"/>
        <pt x="934" y="-53" on="1"/>
        <pt x="904" y="-65" on="0"/>
        <pt x="843" y="-105" on="0"/>
        <pt x="795" y="-158" on="0"/>
        <pt x="764" y="-219" on="0"/>
        <pt x="764" y="-250" on="1"/>
        <pt x="764" y="-265" on="0"/>
        <pt x="773" y="-291" on="0"/>
        <pt x="795" y="-312" on="0"/>
        <pt x="831" y="-324" on="0"/>
        <pt x="858" y="-324" on="1"/>
        <pt x="870" y="-324" on="0"/>
        <pt x="902" y="-322" on="0"/>
        <pt x="936" y="-318" on="0"/>
        <pt x="968" y="-310" on="0"/>
        <pt x="979" y="-305" on="1"/>
        <pt x="986" y="-301" on="0"/>
        <pt x="996" y="-311" on="0"/>
        <pt x="1004" y="-327" on="0"/>
        <pt x="1008" y="-347" on="0"/>
        <pt x="1008" y="-354" on="1"/>
        <pt x="1008" y="-401" on="0"/>
        <pt x="936" y="-442" on="0"/>
        <pt x="848" y="-442" on="1"/>
        <pt x="786" y="-442" on="0"/>
        <pt x="702" y="-408" on="0"/>
        <pt x="650" y="-357" on="0"/>
        <pt x="627" y="-296" on="0"/>
        <pt x="627" y="-268" on="1"/>
        <pt x="627" y="-230" on="0"/>
        <pt x="654" y="-157" on="0"/>
        <pt x="699" y="-91" on="0"/>
        <pt x="755" y="-35" on="0"/>
        <pt x="784" y="-14" on="1"/>
        <pt x="779" y="10" on="0"/>
        <pt x="776" y="91" on="0"/>
        <pt x="774" y="150" on="1"/>
        <pt x="751" y="101" on="0"/>
        <pt x="683" y="17" on="0"/>
        <pt x="599" y="-46" on="0"/>
        <pt x="500" y="-82" on="0"/>
        <pt x="446" y="-82" on="1"/>
        <pt x="362" y="-82" on="0"/>
        <pt x="223" y="-18" on="0"/>
        <pt x="123" y="124" on="0"/>
        <pt x="68" y="353" on="0"/>
        <pt x="68" y="518" on="1"/>
        <pt x="68" y="631" on="0"/>
        <pt x="111" y="858" on="0"/>
        <pt x="192" y="1066" on="0"/>
        <pt x="309" y="1246" on="0"/>
        <pt x="455" y="1378" on="0"/>
        <pt x="628" y="1454" on="0"/>
        <pt x="725" y="1454" on="1"/>
        <pt x="788" y="1454" on="0"/>
        <pt x="887" y="1414" on="0"/>
        <pt x="955" y="1343" on="0"/>
        <pt x="991" y="1248" on="0"/>
        <pt x="991" y="1194" on="1"/>
        <pt x="991" y="1105" on="0"/>
        <pt x="905" y="956" on="0"/>
        <pt x="765" y="848" on="0"/>
        <pt x="585" y="788" on="0"/>
      </contour>
    </TTGlyph>
    <TTGlyph name="Aring" xMin="68" yMin="-82" xMax="991" yMax="1938">
      <component glyphName="A" x="0" y="0" flags="0x204"/>
      <component glyphName="ring" x="260" y="631" flags="0x4"/>
    </TTGlyph>
    <TTGlyph name="Atilde" xMin="68" yMin="-82" xMax="991" yMax="1805">
      <component glyphName="A" x="0" y="0" flags="0x204"/>
      <component glyphName="tilde" x="260" y="631" flags="0x4"/>
    </TTGlyph>
    <TTGlyph name="B" xMin="37" yMin="-92" xMax="1165" yMax="1481">
      <contour>
        <pt x="410" y="1073" on="1"/>
        <pt x="410" y="1102" on="0"/>
        <pt x="401" y="1128" on="0"/>
        <pt x="401" y="1139" on="1"/>
        <pt x="401" y="1154" on="0"/>
        <pt x="433" y="1174" on="0"/>
        <pt x="455" y="1174" on="1"/>
        <pt x="506" y="1174" on="0"/>
        <pt x="569" y="1121" on="0"/>
        <pt x="569" y="1083" on="1"/>
        <pt x="569" y="324" on="1"/>
        <pt x="569" y="250" on="0"/>
        <pt x="593" y="146" on="0"/>
        <pt x="641" y="80" on="0"/>
        <pt x="711" y="49" on="0"/>
        <pt x="756" y="49" on="1"/>
        <pt x="799" y="49" on="0"/>
        <pt x="872" y="81" on="0"/>
        <pt x="926" y="137" on="0"/>
        <pt x="956" y="213" on="0"/>
        <pt x="956" y="258" on="1"/>
        <pt x="956" y="327" on="0"/>
        <pt x="908" y="419" on="0"/>
        <pt x="831" y="475" on="0"/>
        <pt x="734" y="498" on="0"/>
        <pt x="686" y="498" on="1"/>
        <pt x="677" y="498" on="0"/>
        <pt x="659" y="521" on="0"/>
        <pt x="647" y="555" on="0"/>
        <pt x="641" y="594" on="0"/>
        <pt x="645" y="628" on="0"/>
        <pt x="660" y="651" on="0"/>
        <pt x="676" y="651" on="1"/>
        <pt x="700" y="651" on="0"/>
        <pt x="768" y="663" on="0"/>
        <pt x="842" y="694" on="0"/>
        <pt x="914" y="746" on="0"/>
        <pt x="972" y="827" on="0"/>
        <pt x="1008" y="938" on="0"/>
        <pt x="1008" y="1012" on="1"/>
        <pt x="1008" y="1070" on="0"/>
        <pt x="969" y="1183" on="0"/>
        <pt x="883" y="1272" on="0"/>
        <pt x="749" y="1327" on="0"/>
        <pt x="655" y="1327" on="1"/>
        <pt x="532" y="1327" on="0"/>
        <pt x="356" y="1251" on="0"/>
        <pt x="245" y="1123" on="0"/>
        <pt x="193" y="954" on="0"/>
        <pt x="193" y="860" on="1"/>
        <pt x="193" y="792" on="0"/>
        <pt x="216" y="699" on="0"/>
        <pt x="244" y="640" on="0"/>
        <pt x="268" y="612" on="0"/>
        <pt x="270" y="610" on="1"/>
        <pt x="287" y="615" on="0"/>
        <pt x="301" y="597" on="0"/>
        <pt x="301" y="582" on="1"/>
        <pt x="301" y="568" on="0"/>
        <pt x="282" y="512" on="0"/>
        <pt x="250" y="463" on="0"/>
        <pt x="208" y="438" on="0"/>
        <pt x="186" y="455" on="1"/>
        <pt x="174" y="466" on="0"/>
        <pt x="124" y="524" on="0"/>
        <pt x="75" y="621" on="0"/>
        <pt x="37" y="758" on="0"/>
        <pt x="37" y="848" on="1"/>
        <pt x="37" y="992" on="0"/>
        <pt x="127" y="1225" on="0"/>
        <pt x="290" y="1391" on="0"/>
        <pt x="516" y="1481" on="0"/>
        <pt x="653" y="1481" on="1"/>
        <pt x="769" y="1481" on="0"/>
        <pt x="958" y="1418" on="0"/>
        <pt x="1092" y="1298" on="0"/>
        <pt x="1165" y="1125" on="0"/>
        <pt x="1165" y="1016" on="1"/>
        <pt x="1165" y="932" on="0"/>
        <pt x="1125" y="796" on="0"/>
        <pt x="1054" y="688" on="0"/>
        <pt x="957" y="605" on="0"/>
        <pt x="901" y="575" on="1"/>
        <pt x="946" y="562" on="0"/>
        <pt x="1024" y="511" on="0"/>
        <pt x="1082" y="433" on="0"/>
        <pt x="1116" y="328" on="0"/>
        <pt x="1116" y="262" on="1"/>
        <pt x="1116" y="185" on="0"/>
        <pt x="1061" y="55" on="0"/>
        <pt x="965" y="-39" on="0"/>
        <pt x="834" y="-92" on="0"/>
        <pt x="758" y="-92" on="1"/>
        <pt x="657" y="-92" on="0"/>
        <pt x="523" y="-31" on="0"/>
        <pt x="443" y="80" on="0"/>
        <pt x="410" y="235" on="0"/>
        <pt x="410" y="330" on="1"/>
      </contour>
    </TTGlyph>
    <TTGlyph name="C" xMin="68" yMin="-84" xMax="995" yMax="1460">
      <contour>
        <pt x="463" y="852" on="1"/>
        <pt x="501" y="852" on="0"/>
        <pt x="585" y="879" on="0"/>
        <pt x="668" y="926" on="0"/>
        <pt x="743" y="991" on="0"/>
        <pt x="800" y="1068" on="0"/>
        <pt x="834" y="1153" on="0"/>
        <pt x="834" y="1196" on="1"/>
        <pt x="834" y="1214" on="0"/>
        <pt x="821" y="1254" on="0"/>
        <pt x="792" y="1288" on="0"/>
        <pt x="744" y="1311" on="0"/>
        <pt x="709" y="1311" on="1"/>
        <pt x="641" y="1311" on="0"/>
        <pt x="518" y="1247" on="0"/>
        <pt x="412" y="1137" on="0"/>
        <pt x="325" y="990" on="0"/>
        <pt x="264" y="824" on="0"/>
        <pt x="231" y="648" on="0"/>
        <pt x="231" y="565" on="1"/>
        <pt x="231" y="470" on="0"/>
        <pt x="265" y="291" on="0"/>
        <pt x="340" y="153" on="0"/>
        <pt x="462" y="70" on="0"/>
        <pt x="551" y="70" on="1"/>
        <pt x="616" y="70" on="0"/>
        <pt x="720" y="108" on="0"/>
        <pt x="794" y="153" on="0"/>
        <pt x="834" y="192" on="0"/>
        <pt x="836" y="193" on="1"/>
        <pt x="849" y="215" on="0"/>
        <pt x="882" y="223" on="0"/>
        <pt x="913" y="207" on="0"/>
        <pt x="939" y="174" on="0"/>
        <pt x="954" y="136" on="0"/>
        <pt x="952" y="98" on="0"/>
        <pt x="940" y="86" on="1"/>
        <pt x="938" y="84" on="0"/>
        <pt x="912" y="58" on="0"/>
        <pt x="864" y="20" on="0"/>
        <pt x="794" y="-23" on="0"/>
        <pt x="706" y="-60" on="0"/>
        <pt x="599" y="-84" on="0"/>
        <pt x="537" y="-84" on="1"/>
        <pt x="427" y="-84" on="0"/>
        <pt x="253" y="8" on="0"/>
        <pt x="132" y="177" on="0"/>
        <pt x="68" y="417" on="0"/>
        <pt x="68" y="565" on="1"/>
        <pt x="68" y="665" on="0"/>
        <pt x="110" y="875" on="0"/>
        <pt x="191" y="1074" on="0"/>
        <pt x="307" y="1251" on="0"/>
        <pt x="455" y="1383" on="0"/>
        <pt x="633" y="1460" on="0"/>
        <pt x="735" y="1460" on="1"/>
        <pt x="790" y="1460" on="0"/>
        <pt x="886" y="1426" on="0"/>
        <pt x="955" y="1358" on="0"/>
        <pt x="995" y="1257" on="0"/>
        <pt x="995" y="1190" on="1"/>
        <pt x="995" y="1127" on="0"/>
        <pt x="946" y="1007" on="0"/>
        <pt x="864" y="900" on="0"/>
        <pt x="755" y="810" on="0"/>
        <pt x="634" y="745" on="0"/>
        <pt x="510" y="709" on="0"/>
        <pt x="453" y="709" on="1"/>
        <pt x="415" y="709" on="0"/>
        <pt x="362" y="756" on="0"/>
        <pt x="362" y="807" on="1"/>
        <pt x="362" y="818" on="0"/>
        <pt x="365" y="841" on="0"/>
        <pt x="371" y="860" on="0"/>
        <pt x="380" y="872" on="0"/>
        <pt x="385" y="872" on="1"/>
        <pt x="390" y="872" on="0"/>
        <pt x="399" y="866" on="0"/>
        <pt x="414" y="858" on="0"/>
        <pt x="440" y="852" on="0"/>
      </contour>
    </TTGlyph>
    <TTGlyph name="Cacute" xMin="68" yMin="-84" xMax="995" yMax="1874">
      <component glyphName="C" x="0" y="0" flags="0x204"/>
      <component glyphName="acute" x="315" y="637" flags="0x4"/>
    </TTGlyph>
    <TTGlyph name="Ccaron" xMin="68" yMin="-84" xMax="995" yMax="1874">
      <component glyphName="C" x="0" y="0" flags="0x204"/>
      <component glyphName="caron" x="276" y="637" flags="0x4"/>
    </TTGlyph>
    <TTGlyph name="Ccedilla" xMin="68" yMin="-508" xMax="995" yMax="1460">
      <contour>
        <pt x="463" y="852" on="1"/>
        <pt x="501" y="852" on="0"/>
        <pt x="585" y="879" on="0"/>
        <pt x="668" y="926" on="0"/>
        <pt x="743" y="991" on="0"/>
        <pt x="800" y="1068" on="0"/>
        <pt x="834" y="1153" on="0"/>
        <pt x="834" y="1196" on="1"/>
        <pt x="834" y="1214" on="0"/>
        <pt x="821" y="1254" on="0"/>
        <pt x="792" y="1288" on="0"/>
        <pt x="744" y="1311" on="0"/>
        <pt x="709" y="1311" on="1"/>
        <pt x="641" y="1311" on="0"/>
        <pt x="518" y="1247" on="0"/>
        <pt x="412" y="1137" on="0"/>
        <pt x="325" y="990" on="0"/>
        <pt x="264" y="824" on="0"/>
        <pt x="231" y="648" on="0"/>
        <pt x="231" y="565" on="1"/>
        <pt x="231" y="470" on="0"/>
        <pt x="265" y="291" on="0"/>
        <pt x="340" y="153" on="0"/>
        <pt x="462" y="70" on="0"/>
        <pt x="551" y="70" on="1"/>
        <pt x="616" y="70" on="0"/>
        <pt x="720" y="108" on="0"/>
        <pt x="794" y="153" on="0"/>
        <pt x="834" y="192" on="0"/>
        <pt x="836" y="193" on="1"/>
        <pt x="849" y="215" on="0"/>
        <pt x="882" y="223" on="0"/>
        <pt x="913" y="207" on="0"/>
        <pt x="939" y="174" on="0"/>
        <pt x="954" y="136" on="0"/>
        <pt x="952" y="98" on="0"/>
        <pt x="940" y="86" on="1"/>
        <pt x="938" y="84" on="0"/>
        <pt x="888" y="36" on="0"/>
        <pt x="796" y="-22" on="0"/>
        <pt x="666" y="-75" on="0"/>
        <pt x="584" y="-82" on="1"/>
        <pt x="565" y="-135" on="1"/>
        <pt x="619" y="-144" on="0"/>
        <pt x="684" y="-187" on="0"/>
        <pt x="720" y="-239" on="0"/>
        <pt x="731" y="-292" on="0"/>
        <pt x="731" y="-313" on="1"/>
        <pt x="731" y="-341" on="0"/>
        <pt x="708" y="-409" on="0"/>
        <pt x="656" y="-468" on="0"/>
        <pt x="571" y="-508" on="0"/>
        <pt x="510" y="-508" on="1"/>
        <pt x="422" y="-508" on="0"/>
        <pt x="350" y="-466" on="0"/>
        <pt x="350" y="-420" on="1"/>
        <pt x="350" y="-413" on="0"/>
        <pt x="354" y="-393" on="0"/>
        <pt x="361" y="-376" on="0"/>
        <pt x="372" y="-367" on="0"/>
        <pt x="379" y="-371" on="1"/>
        <pt x="401" y="-382" on="0"/>
        <pt x="464" y="-389" on="0"/>
        <pt x="487" y="-389" on="1"/>
        <pt x="541" y="-389" on="0"/>
        <pt x="606" y="-343" on="0"/>
        <pt x="606" y="-301" on="1"/>
        <pt x="606" y="-276" on="0"/>
        <pt x="581" y="-253" on="0"/>
        <pt x="545" y="-244" on="0"/>
        <pt x="501" y="-242" on="0"/>
        <pt x="465" y="-234" on="0"/>
        <pt x="440" y="-212" on="0"/>
        <pt x="440" y="-188" on="1"/>
        <pt x="440" y="-182" on="0"/>
        <pt x="446" y="-157" on="0"/>
        <pt x="455" y="-126" on="0"/>
        <pt x="465" y="-93" on="0"/>
        <pt x="469" y="-80" on="1"/>
        <pt x="374" y="-66" on="0"/>
        <pt x="226" y="37" on="0"/>
        <pt x="122" y="203" on="0"/>
        <pt x="68" y="428" on="0"/>
        <pt x="68" y="565" on="1"/>
        <pt x="68" y="665" on="0"/>
        <pt x="110" y="875" on="0"/>
        <pt x="191" y="1074" on="0"/>
        <pt x="307" y="1251" on="0"/>
        <pt x="455" y="1383" on="0"/>
        <pt x="633" y="1460" on="0"/>
        <pt x="735" y="1460" on="1"/>
        <pt x="790" y="1460" on="0"/>
        <pt x="886" y="1426" on="0"/>
        <pt x="955" y="1358" on="0"/>
        <pt x="995" y="1257" on="0"/>
        <pt x="995" y="1190" on="1"/>
        <pt x="995" y="1127" on="0"/>
        <pt x="946" y="1007" on="0"/>
        <pt x="864" y="900" on="0"/>
        <pt x="755" y="810" on="0"/>
        <pt x="634" y="745" on="0"/>
        <pt x="510" y="709" on="0"/>
        <pt x="453" y="709" on="1"/>
        <pt x="415" y="709" on="0"/>
        <pt x="362" y="756" on="0"/>
        <pt x="362" y="807" on="1"/>
        <pt x="362" y="818" on="0"/>
        <pt x="365" y="841" on="0"/>
        <pt x="371" y="860" on="0"/>
        <pt x="380" y="872" on="0"/>
        <pt x="385" y="872" on="1"/>
        <pt x="390" y="872" on="0"/>
        <pt x="399" y="866" on="0"/>
        <pt x="414" y="858" on="0"/>
        <pt x="440" y="852" on="0"/>
      </contour>
    </TTGlyph>
    <TTGlyph name="Ccircumflex" xMin="68" yMin="-84" xMax="995" yMax="1874">
      <component glyphName="C" x="0" y="0" flags="0x204"/>
      <component glyphName="circumflex" x="283" y="637" flags="0x4"/>
    </TTGlyph>
    <TTGlyph name="Cdotaccent" xMin="68" yMin="-84" xMax="995" yMax="1767">
      <component glyphName="C" x="0" y="0" flags="0x204"/>
      <component glyphName="dotaccent" x="283" y="637" flags="0x4"/>
    </TTGlyph>
    <TTGlyph name="D" xMin="37" yMin="-78" xMax="1180" yMax="1466">
      <contour>
        <pt x="563" y="252" on="1"/>
        <pt x="563" y="167" on="0"/>
        <pt x="616" y="80" on="0"/>
        <pt x="678" y="80" on="1"/>
        <pt x="717" y="80" on="0"/>
        <pt x="797" y="130" on="0"/>
        <pt x="873" y="223" on="0"/>
        <pt x="938" y="354" on="0"/>
        <pt x="988" y="515" on="0"/>
        <pt x="1016" y="703" on="0"/>
        <pt x="1016" y="805" on="1"/>
        <pt x="1016" y="908" on="0"/>
        <pt x="971" y="1092" on="0"/>
        <pt x="876" y="1229" on="0"/>
        <pt x="729" y="1309" on="0"/>
        <pt x="627" y="1309" on="1"/>
        <pt x="542" y="1309" on="0"/>
        <pt x="412" y="1271" on="0"/>
        <pt x="317" y="1204" on="0"/>
        <pt x="252" y="1114" on="0"/>
        <pt x="213" y="1011" on="0"/>
        <pt x="197" y="900" on="0"/>
        <pt x="197" y="846" on="1"/>
        <pt x="197" y="772" on="0"/>
        <pt x="228" y="656" on="0"/>
        <pt x="267" y="575" on="0"/>
        <pt x="302" y="531" on="0"/>
        <pt x="305" y="528" on="1"/>
        <pt x="322" y="533" on="0"/>
        <pt x="336" y="515" on="0"/>
        <pt x="336" y="500" on="1"/>
        <pt x="336" y="480" on="0"/>
        <pt x="319" y="437" on="0"/>
        <pt x="291" y="402" on="0"/>
        <pt x="256" y="379" on="0"/>
        <pt x="238" y="379" on="1"/>
        <pt x="230" y="379" on="0"/>
        <pt x="215" y="383" on="0"/>
        <pt x="207" y="389" on="1"/>
        <pt x="205" y="390" on="0"/>
        <pt x="179" y="417" on="0"/>
        <pt x="141" y="467" on="0"/>
        <pt x="98" y="542" on="0"/>
        <pt x="61" y="640" on="0"/>
        <pt x="37" y="762" on="0"/>
        <pt x="37" y="834" on="1"/>
        <pt x="37" y="973" on="0"/>
        <pt x="122" y="1206" on="0"/>
        <pt x="278" y="1373" on="0"/>
        <pt x="498" y="1466" on="0"/>
        <pt x="633" y="1466" on="1"/>
        <pt x="776" y="1466" on="0"/>
        <pt x="983" y="1357" on="0"/>
        <pt x="1116" y="1177" on="0"/>
        <pt x="1180" y="945" on="0"/>
        <pt x="1180" y="821" on="1"/>
        <pt x="1180" y="676" on="0"/>
        <pt x="1135" y="430" on="0"/>
        <pt x="1058" y="230" on="0"/>
        <pt x="956" y="77" on="0"/>
        <pt x="842" y="-26" on="0"/>
        <pt x="722" y="-78" on="0"/>
        <pt x="666" y="-78" on="1"/>
        <pt x="594" y="-78" on="0"/>
        <pt x="493" y="-33" on="0"/>
        <pt x="431" y="54" on="0"/>
        <pt x="403" y="181" on="0"/>
        <pt x="403" y="262" on="1"/>
        <pt x="403" y="1047" on="1"/>
        <pt x="403" y="1076" on="0"/>
        <pt x="395" y="1101" on="0"/>
        <pt x="395" y="1112" on="1"/>
        <pt x="395" y="1128" on="0"/>
        <pt x="427" y="1147" on="0"/>
        <pt x="449" y="1147" on="1"/>
        <pt x="500" y="1147" on="0"/>
        <pt x="563" y="1094" on="0"/>
        <pt x="563" y="1057" on="1"/>
      </contour>
    </TTGlyph>
    <TTGlyph name="Dcaron" xMin="37" yMin="-78" xMax="1180" yMax="1880">
      <component glyphName="D" x="0" y="0" flags="0x204"/>
      <component glyphName="caron" x="238" y="643" flags="0x4"/>
    </TTGlyph>
    <TTGlyph name="Dcroat" xMin="37" yMin="-78" xMax="1180" yMax="1466">
      <contour>
        <pt x="403" y="735" on="1"/>
        <pt x="403" y="1047" on="1"/>
        <pt x="403" y="1076" on="0"/>
        <pt x="395" y="1101" on="0"/>
        <pt x="395" y="1112" on="1"/>
        <pt x="395" y="1128" on="0"/>
        <pt x="427" y="1147" on="0"/>
        <pt x="449" y="1147" on="1"/>
        <pt x="500" y="1147" on="0"/>
        <pt x="563" y="1094" on="0"/>
        <pt x="563" y="1057" on="1"/>
        <pt x="563" y="735" on="1"/>
        <pt x="702" y="735" on="1"/>
        <pt x="728" y="738" on="0"/>
        <pt x="748" y="708" on="0"/>
        <pt x="748" y="682" on="1"/>
        <pt x="748" y="667" on="0"/>
        <pt x="740" y="637" on="0"/>
        <pt x="726" y="613" on="0"/>
        <pt x="706" y="598" on="0"/>
        <pt x="694" y="598" on="1"/>
        <pt x="692" y="598" on="0"/>
        <pt x="687" y="598" on="0"/>
        <pt x="684" y="600" on="1"/>
        <pt x="563" y="600" on="1"/>
        <pt x="563" y="252" on="1"/>
        <pt x="563" y="167" on="0"/>
        <pt x="616" y="80" on="0"/>
        <pt x="678" y="80" on="1"/>
        <pt x="717" y="80" on="0"/>
        <pt x="797" y="130" on="0"/>
        <pt x="873" y="223" on="0"/>
        <pt x="938" y="354" on="0"/>
        <pt x="988" y="515" on="0"/>
        <pt x="1016" y="703" on="0"/>
        <pt x="1016" y="805" on="1"/>
        <pt x="1016" y="908" on="0"/>
        <pt x="971" y="1092" on="0"/>
        <pt x="876" y="1229" on="0"/>
        <pt x="729" y="1309" on="0"/>
        <pt x="627" y="1309" on="1"/>
        <pt x="542" y="1309" on="0"/>
        <pt x="412" y="1271" on="0"/>
        <pt x="317" y="1204" on="0"/>
        <pt x="252" y="1114" on="0"/>
        <pt x="213" y="1011" on="0"/>
        <pt x="197" y="900" on="0"/>
        <pt x="197" y="846" on="1"/>
        <pt x="197" y="772" on="0"/>
        <pt x="228" y="656" on="0"/>
        <pt x="267" y="575" on="0"/>
        <pt x="302" y="531" on="0"/>
        <pt x="305" y="528" on="1"/>
        <pt x="322" y="533" on="0"/>
        <pt x="336" y="515" on="0"/>
        <pt x="336" y="500" on="1"/>
        <pt x="336" y="480" on="0"/>
        <pt x="319" y="437" on="0"/>
        <pt x="291" y="402" on="0"/>
        <pt x="256" y="379" on="0"/>
        <pt x="238" y="379" on="1"/>
        <pt x="230" y="379" on="0"/>
        <pt x="215" y="383" on="0"/>
        <pt x="207" y="389" on="1"/>
        <pt x="205" y="390" on="0"/>
        <pt x="179" y="417" on="0"/>
        <pt x="141" y="467" on="0"/>
        <pt x="98" y="542" on="0"/>
        <pt x="61" y="640" on="0"/>
        <pt x="37" y="762" on="0"/>
        <pt x="37" y="834" on="1"/>
        <pt x="37" y="973" on="0"/>
        <pt x="122" y="1206" on="0"/>
        <pt x="278" y="1373" on="0"/>
        <pt x="498" y="1466" on="0"/>
        <pt x="633" y="1466" on="1"/>
        <pt x="776" y="1466" on="0"/>
        <pt x="983" y="1357" on="0"/>
        <pt x="1116" y="1177" on="0"/>
        <pt x="1180" y="945" on="0"/>
        <pt x="1180" y="821" on="1"/>
        <pt x="1180" y="676" on="0"/>
        <pt x="1135" y="430" on="0"/>
        <pt x="1058" y="230" on="0"/>
        <pt x="956" y="77" on="0"/>
        <pt x="842" y="-26" on="0"/>
        <pt x="722" y="-78" on="0"/>
        <pt x="666" y="-78" on="1"/>
        <pt x="594" y="-78" on="0"/>
        <pt x="493" y="-33" on="0"/>
        <pt x="431" y="54" on="0"/>
        <pt x="403" y="181" on="0"/>
        <pt x="403" y="262" on="1"/>
        <pt x="403" y="600" on="1"/>
        <pt x="330" y="600" on="1"/>
        <pt x="302" y="600" on="0"/>
        <pt x="276" y="625" on="0"/>
        <pt x="276" y="647" on="1"/>
        <pt x="276" y="689" on="0"/>
        <pt x="315" y="735" on="0"/>
        <pt x="350" y="735" on="1"/>
      </contour>
    </TTGlyph>
    <TTGlyph name="E" xMin="80" yMin="-88" xMax="924" yMax="1468">
      <contour>
        <pt x="866" y="147" on="1"/>
        <pt x="853" y="125" on="0"/>
        <pt x="790" y="46" on="0"/>
        <pt x="686" y="-31" on="0"/>
        <pt x="538" y="-88" on="0"/>
        <pt x="440" y="-88" on="1"/>
        <pt x="366" y="-88" on="0"/>
        <pt x="236" y="-43" on="0"/>
        <pt x="137" y="43" on="0"/>
        <pt x="80" y="168" on="0"/>
        <pt x="80" y="248" on="1"/>
        <pt x="80" y="304" on="0"/>
        <pt x="111" y="400" on="0"/>
        <pt x="162" y="478" on="0"/>
        <pt x="229" y="538" on="0"/>
        <pt x="266" y="557" on="1"/>
        <pt x="232" y="578" on="0"/>
        <pt x="168" y="637" on="0"/>
        <pt x="118" y="719" on="0"/>
        <pt x="88" y="824" on="0"/>
        <pt x="88" y="891" on="1"/>
        <pt x="88" y="959" on="0"/>
        <pt x="127" y="1097" on="0"/>
        <pt x="198" y="1226" on="0"/>
        <pt x="298" y="1337" on="0"/>
        <pt x="419" y="1420" on="0"/>
        <pt x="558" y="1468" on="0"/>
        <pt x="633" y="1468" on="1"/>
        <pt x="703" y="1468" on="0"/>
        <pt x="812" y="1426" on="0"/>
        <pt x="886" y="1353" on="0"/>
        <pt x="924" y="1254" on="0"/>
        <pt x="924" y="1198" on="1"/>
        <pt x="924" y="1118" on="0"/>
        <pt x="863" y="966" on="0"/>
        <pt x="759" y="847" on="0"/>
        <pt x="621" y="774" on="0"/>
        <pt x="545" y="774" on="1"/>
        <pt x="526" y="774" on="0"/>
        <pt x="486" y="784" on="0"/>
        <pt x="453" y="807" on="0"/>
        <pt x="432" y="845" on="0"/>
        <pt x="432" y="872" on="1"/>
        <pt x="432" y="883" on="0"/>
        <pt x="435" y="909" on="0"/>
        <pt x="441" y="931" on="0"/>
        <pt x="449" y="946" on="0"/>
        <pt x="455" y="946" on="1"/>
        <pt x="460" y="946" on="0"/>
        <pt x="469" y="940" on="0"/>
        <pt x="484" y="932" on="0"/>
        <pt x="510" y="926" on="0"/>
        <pt x="532" y="926" on="1"/>
        <pt x="583" y="926" on="0"/>
        <pt x="668" y="975" on="0"/>
        <pt x="728" y="1053" on="0"/>
        <pt x="762" y="1151" on="0"/>
        <pt x="762" y="1200" on="1"/>
        <pt x="762" y="1256" on="0"/>
        <pt x="690" y="1311" on="0"/>
        <pt x="633" y="1311" on="1"/>
        <pt x="556" y="1311" on="0"/>
        <pt x="418" y="1238" on="0"/>
        <pt x="313" y="1121" on="0"/>
        <pt x="252" y="975" on="0"/>
        <pt x="252" y="901" on="1"/>
        <pt x="252" y="844" on="0"/>
        <pt x="291" y="746" on="0"/>
        <pt x="352" y="673" on="0"/>
        <pt x="425" y="630" on="0"/>
        <pt x="459" y="627" on="1"/>
        <pt x="464" y="629" on="0"/>
        <pt x="472" y="629" on="0"/>
        <pt x="477" y="629" on="1"/>
        <pt x="496" y="629" on="0"/>
        <pt x="512" y="600" on="0"/>
        <pt x="512" y="580" on="1"/>
        <pt x="512" y="563" on="0"/>
        <pt x="503" y="526" on="0"/>
        <pt x="490" y="495" on="0"/>
        <pt x="472" y="474" on="0"/>
        <pt x="463" y="473" on="1"/>
        <pt x="431" y="469" on="0"/>
        <pt x="354" y="445" on="0"/>
        <pt x="288" y="394" on="0"/>
        <pt x="244" y="313" on="0"/>
        <pt x="244" y="252" on="1"/>
        <pt x="244" y="213" on="0"/>
        <pt x="274" y="147" on="0"/>
        <pt x="328" y="100" on="0"/>
        <pt x="401" y="74" on="0"/>
        <pt x="444" y="74" on="1"/>
        <pt x="508" y="74" on="0"/>
        <pt x="611" y="110" on="0"/>
        <pt x="687" y="162" on="0"/>
        <pt x="735" y="220" on="0"/>
        <pt x="745" y="242" on="1"/>
        <pt x="753" y="260" on="0"/>
        <pt x="776" y="276" on="0"/>
        <pt x="788" y="276" on="1"/>
        <pt x="803" y="276" on="0"/>
        <pt x="833" y="258" on="0"/>
        <pt x="857" y="229" on="0"/>
        <pt x="872" y="194" on="0"/>
        <pt x="872" y="176" on="1"/>
        <pt x="872" y="160" on="0"/>
      </contour>
    </TTGlyph>
    <TTGlyph name="Eacute" xMin="80" yMin="-88" xMax="924" yMax="1882">
      <component glyphName="E" x="0" y="0" flags="0x204"/>
      <component glyphName="acute" x="215" y="645" flags="0x4"/>
    </TTGlyph>
    <TTGlyph name="Ebreve" xMin="80" yMin="-88" xMax="924" yMax="1862">
      <component glyphName="E" x="0" y="0" flags="0x204"/>
      <component glyphName="breve" x="176" y="645" flags="0x4"/>
    </TTGlyph>
    <TTGlyph name="Ecaron" xMin="80" yMin="-88" xMax="924" yMax="1882">
      <component glyphName="E" x="0" y="0" flags="0x204"/>
      <component glyphName="caron" x="176" y="645" flags="0x4"/>
    </TTGlyph>
    <TTGlyph name="Ecircumflex" xMin="80" yMin="-88" xMax="924" yMax="1882">
      <component glyphName="E" x="0" y="0" flags="0x204"/>
      <component glyphName="circumflex" x="182" y="645" flags="0x4"/>
    </TTGlyph>
    <TTGlyph name="Edieresis" xMin="80" yMin="-88" xMax="924" yMax="1784">
      <component glyphName="E" x="0" y="0" flags="0x204"/>
      <component glyphName="dieresis" x="182" y="645" flags="0x4"/>
    </TTGlyph>
    <TTGlyph name="Edotaccent" xMin="80" yMin="-88" xMax="924" yMax="1775">
      <component glyphName="E" x="0" y="0" flags="0x204"/>
      <component glyphName="dotaccent" x="182" y="645" flags="0x4"/>
    </TTGlyph>
    <TTGlyph name="Egrave" xMin="80" yMin="-88" xMax="924" yMax="1882">
      <component glyphName="E" x="0" y="0" flags="0x204"/>
      <component glyphName="grave" x="147" y="645" flags="0x4"/>
    </TTGlyph>
    <TTGlyph name="Emacron" xMin="80" yMin="-88" xMax="924" yMax="1742">
      <component glyphName="E" x="0" y="0" flags="0x204"/>
      <component glyphName="macron" x="182" y="645" flags="0x4"/>
    </TTGlyph>
    <TTGlyph name="Eng" xMin="37" yMin="-725" xMax="1308" yMax="1434">
      <contour>
        <pt x="694" y="1180" on="1"/>
        <pt x="725" y="1233" on="0"/>
        <pt x="796" y="1325" on="0"/>
        <pt x="876" y="1394" on="0"/>
        <pt x="961" y="1434" on="0"/>
        <pt x="1006" y="1434" on="1"/>
        <pt x="1027" y="1434" on="0"/>
        <pt x="1076" y="1416" on="0"/>
        <pt x="1118" y="1375" on="0"/>
        <pt x="1145" y="1306" on="0"/>
        <pt x="1145" y="1255" on="1"/>
        <pt x="1145" y="-10" on="1"/>
        <pt x="1145" y="-72" on="1"/>
        <pt x="1174" y="-67" on="0"/>
        <pt x="1229" y="-63" on="0"/>
        <pt x="1253" y="-61" on="1"/>
        <pt x="1277" y="-60" on="0"/>
        <pt x="1302" y="-82" on="0"/>
        <pt x="1308" y="-118" on="0"/>
        <pt x="1298" y="-160" on="0"/>
        <pt x="1276" y="-197" on="0"/>
        <pt x="1245" y="-223" on="0"/>
        <pt x="1227" y="-223" on="1"/>
        <pt x="1204" y="-223" on="0"/>
        <pt x="1163" y="-225" on="0"/>
        <pt x="1143" y="-227" on="1"/>
        <pt x="1138" y="-316" on="0"/>
        <pt x="1109" y="-493" on="0"/>
        <pt x="1043" y="-636" on="0"/>
        <pt x="931" y="-725" on="0"/>
        <pt x="842" y="-725" on="1"/>
        <pt x="789" y="-725" on="0"/>
        <pt x="704" y="-688" on="0"/>
        <pt x="644" y="-623" on="0"/>
        <pt x="612" y="-535" on="0"/>
        <pt x="612" y="-483" on="1"/>
        <pt x="612" y="-405" on="0"/>
        <pt x="676" y="-285" on="0"/>
        <pt x="780" y="-193" on="0"/>
        <pt x="914" y="-130" on="0"/>
        <pt x="985" y="-109" on="1"/>
        <pt x="985" y="-86" on="1"/>
        <pt x="985" y="1243" on="1"/>
        <pt x="985" y="1263" on="0"/>
        <pt x="973" y="1272" on="0"/>
        <pt x="967" y="1272" on="1"/>
        <pt x="951" y="1272" on="0"/>
        <pt x="901" y="1225" on="0"/>
        <pt x="842" y="1148" on="0"/>
        <pt x="781" y="1049" on="0"/>
        <pt x="731" y="942" on="0"/>
        <pt x="697" y="837" on="0"/>
        <pt x="694" y="793" on="1"/>
        <pt x="694" y="-10" on="1"/>
        <pt x="694" y="-36" on="0"/>
        <pt x="660" y="-57" on="0"/>
        <pt x="637" y="-57" on="1"/>
        <pt x="619" y="-57" on="0"/>
        <pt x="583" y="-47" on="0"/>
        <pt x="554" y="-31" on="0"/>
        <pt x="535" y="-10" on="0"/>
        <pt x="535" y="2" on="1"/>
        <pt x="535" y="1274" on="1"/>
        <pt x="466" y="1265" on="0"/>
        <pt x="343" y="1205" on="0"/>
        <pt x="252" y="1101" on="0"/>
        <pt x="199" y="953" on="0"/>
        <pt x="199" y="856" on="1"/>
        <pt x="199" y="794" on="0"/>
        <pt x="225" y="695" on="0"/>
        <pt x="261" y="626" on="0"/>
        <pt x="297" y="588" on="0"/>
        <pt x="307" y="588" on="1"/>
        <pt x="316" y="588" on="0"/>
        <pt x="332" y="596" on="0"/>
        <pt x="340" y="596" on="1"/>
        <pt x="356" y="596" on="0"/>
        <pt x="356" y="571" on="1"/>
        <pt x="356" y="545" on="0"/>
        <pt x="337" y="496" on="0"/>
        <pt x="305" y="459" on="0"/>
        <pt x="266" y="436" on="0"/>
        <pt x="246" y="436" on="1"/>
        <pt x="220" y="436" on="0"/>
        <pt x="148" y="500" on="0"/>
        <pt x="83" y="612" on="0"/>
        <pt x="37" y="766" on="0"/>
        <pt x="37" y="856" on="1"/>
        <pt x="37" y="964" on="0"/>
        <pt x="89" y="1135" on="0"/>
        <pt x="176" y="1263" on="0"/>
        <pt x="292" y="1353" on="0"/>
        <pt x="420" y="1409" on="0"/>
        <pt x="552" y="1434" on="0"/>
        <pt x="612" y="1434" on="1"/>
        <pt x="628" y="1434" on="0"/>
        <pt x="658" y="1421" on="0"/>
        <pt x="680" y="1398" on="0"/>
        <pt x="694" y="1366" on="0"/>
        <pt x="694" y="1348" on="1"/>
      </contour>
      <contour>
        <pt x="846" y="-567" on="1"/>
        <pt x="880" y="-567" on="0"/>
        <pt x="928" y="-517" on="0"/>
        <pt x="960" y="-432" on="0"/>
        <pt x="977" y="-321" on="0"/>
        <pt x="981" y="-260" on="1"/>
        <pt x="879" y="-291" on="0"/>
        <pt x="772" y="-402" on="0"/>
        <pt x="772" y="-479" on="1"/>
        <pt x="772" y="-526" on="0"/>
        <pt x="815" y="-567" on="0"/>
      </contour>
    </TTGlyph>
    <TTGlyph name="Eogonek" xMin="80" yMin="-418" xMax="924" yMax="1468">
      <contour>
        <pt x="866" y="147" on="1"/>
        <pt x="854" y="127" on="0"/>
        <pt x="816" y="79" on="0"/>
        <pt x="765" y="30" on="0"/>
        <pt x="700" y="-18" on="0"/>
        <pt x="662" y="-39" on="1"/>
        <pt x="633" y="-54" on="0"/>
        <pt x="572" y="-96" on="0"/>
        <pt x="522" y="-145" on="0"/>
        <pt x="489" y="-198" on="0"/>
        <pt x="489" y="-225" on="1"/>
        <pt x="489" y="-254" on="0"/>
        <pt x="530" y="-299" on="0"/>
        <pt x="584" y="-299" on="1"/>
        <pt x="595" y="-299" on="0"/>
        <pt x="628" y="-297" on="0"/>
        <pt x="662" y="-293" on="0"/>
        <pt x="694" y="-286" on="0"/>
        <pt x="705" y="-281" on="1"/>
        <pt x="712" y="-277" on="0"/>
        <pt x="722" y="-286" on="0"/>
        <pt x="729" y="-303" on="0"/>
        <pt x="733" y="-323" on="0"/>
        <pt x="733" y="-330" on="1"/>
        <pt x="733" y="-376" on="0"/>
        <pt x="661" y="-418" on="0"/>
        <pt x="573" y="-418" on="1"/>
        <pt x="512" y="-418" on="0"/>
        <pt x="428" y="-384" on="0"/>
        <pt x="375" y="-333" on="0"/>
        <pt x="352" y="-271" on="0"/>
        <pt x="352" y="-244" on="1"/>
        <pt x="352" y="-200" on="0"/>
        <pt x="391" y="-126" on="0"/>
        <pt x="426" y="-88" on="1"/>
        <pt x="353" y="-86" on="0"/>
        <pt x="226" y="-37" on="0"/>
        <pt x="133" y="50" on="0"/>
        <pt x="80" y="172" on="0"/>
        <pt x="80" y="248" on="1"/>
        <pt x="80" y="304" on="0"/>
        <pt x="111" y="400" on="0"/>
        <pt x="162" y="478" on="0"/>
        <pt x="229" y="538" on="0"/>
        <pt x="266" y="557" on="1"/>
        <pt x="232" y="578" on="0"/>
        <pt x="168" y="637" on="0"/>
        <pt x="118" y="719" on="0"/>
        <pt x="88" y="824" on="0"/>
        <pt x="88" y="891" on="1"/>
        <pt x="88" y="959" on="0"/>
        <pt x="127" y="1097" on="0"/>
        <pt x="198" y="1226" on="0"/>
        <pt x="298" y="1337" on="0"/>
        <pt x="419" y="1420" on="0"/>
        <pt x="558" y="1468" on="0"/>
        <pt x="633" y="1468" on="1"/>
        <pt x="703" y="1468" on="0"/>
        <pt x="812" y="1426" on="0"/>
        <pt x="886" y="1353" on="0"/>
        <pt x="924" y="1254" on="0"/>
        <pt x="924" y="1198" on="1"/>
        <pt x="924" y="1118" on="0"/>
        <pt x="863" y="966" on="0"/>
        <pt x="759" y="847" on="0"/>
        <pt x="621" y="774" on="0"/>
        <pt x="545" y="774" on="1"/>
        <pt x="526" y="774" on="0"/>
        <pt x="486" y="784" on="0"/>
        <pt x="453" y="807" on="0"/>
        <pt x="432" y="845" on="0"/>
        <pt x="432" y="872" on="1"/>
        <pt x="432" y="883" on="0"/>
        <pt x="435" y="909" on="0"/>
        <pt x="441" y="931" on="0"/>
        <pt x="449" y="946" on="0"/>
        <pt x="455" y="946" on="1"/>
        <pt x="460" y="946" on="0"/>
        <pt x="469" y="940" on="0"/>
        <pt x="484" y="932" on="0"/>
        <pt x="510" y="926" on="0"/>
        <pt x="532" y="926" on="1"/>
        <pt x="583" y="926" on="0"/>
        <pt x="668" y="975" on="0"/>
        <pt x="728" y="1053" on="0"/>
        <pt x="762" y="1151" on="0"/>
        <pt x="762" y="1200" on="1"/>
        <pt x="762" y="1256" on="0"/>
        <pt x="690" y="1311" on="0"/>
        <pt x="633" y="1311" on="1"/>
        <pt x="556" y="1311" on="0"/>
        <pt x="418" y="1238" on="0"/>
        <pt x="313" y="1121" on="0"/>
        <pt x="252" y="975" on="0"/>
        <pt x="252" y="901" on="1"/>
        <pt x="252" y="844" on="0"/>
        <pt x="291" y="746" on="0"/>
        <pt x="352" y="673" on="0"/>
        <pt x="425" y="630" on="0"/>
        <pt x="459" y="627" on="1"/>
        <pt x="464" y="629" on="0"/>
        <pt x="472" y="629" on="0"/>
        <pt x="477" y="629" on="1"/>
        <pt x="496" y="629" on="0"/>
        <pt x="512" y="600" on="0"/>
        <pt x="512" y="580" on="1"/>
        <pt x="512" y="563" on="0"/>
        <pt x="503" y="526" on="0"/>
        <pt x="490" y="495" on="0"/>
        <pt x="472" y="474" on="0"/>
        <pt x="463" y="473" on="1"/>
        <pt x="431" y="469" on="0"/>
        <pt x="354" y="445" on="0"/>
        <pt x="288" y="394" on="0"/>
        <pt x="244" y="313" on="0"/>
        <pt x="244" y="252" on="1"/>
        <pt x="244" y="213" on="0"/>
        <pt x="274" y="147" on="0"/>
        <pt x="328" y="100" on="0"/>
        <pt x="401" y="74" on="0"/>
        <pt x="444" y="74" on="1"/>
        <pt x="508" y="74" on="0"/>
        <pt x="611" y="110" on="0"/>
        <pt x="687" y="162" on="0"/>
        <pt x="735" y="220" on="0"/>
        <pt x="745" y="242" on="1"/>
        <pt x="753" y="260" on="0"/>
        <pt x="776" y="276" on="0"/>
        <pt x="788" y="276" on="1"/>
        <pt x="803" y="276" on="0"/>
        <pt x="833" y="258" on="0"/>
        <pt x="857" y="229" on="0"/>
        <pt x="872" y="194" on="0"/>
        <pt x="872" y="176" on="1"/>
        <pt x="872" y="160" on="0"/>
      </contour>
    </TTGlyph>
    <TTGlyph name="Eth" xMin="37" yMin="-78" xMax="1180" yMax="1466">
      <contour>
        <pt x="403" y="735" on="1"/>
        <pt x="403" y="1047" on="1"/>
        <pt x="403" y="1076" on="0"/>
        <pt x="395" y="1101" on="0"/>
        <pt x="395" y="1112" on="1"/>
        <pt x="395" y="1128" on="0"/>
        <pt x="427" y="1147" on="0"/>
        <pt x="449" y="1147" on="1"/>
        <pt x="500" y="1147" on="0"/>
        <pt x="563" y="1094" on="0"/>
        <pt x="563" y="1057" on="1"/>
        <pt x="563" y="735" on="1"/>
        <pt x="702" y="735" on="1"/>
        <pt x="728" y="738" on="0"/>
        <pt x="748" y="708" on="0"/>
        <pt x="748" y="682" on="1"/>
        <pt x="748" y="667" on="0"/>
        <pt x="740" y="637" on="0"/>
        <pt x="726" y="613" on="0"/>
        <pt x="706" y="598" on="0"/>
        <pt x="694" y="598" on="1"/>
        <pt x="692" y="598" on="0"/>
        <pt x="687" y="598" on="0"/>
        <pt x="684" y="600" on="1"/>
        <pt x="563" y="600" on="1"/>
        <pt x="563" y="252" on="1"/>
        <pt x="563" y="167" on="0"/>
        <pt x="616" y="80" on="0"/>
        <pt x="678" y="80" on="1"/>
        <pt x="717" y="80" on="0"/>
        <pt x="797" y="130" on="0"/>
        <pt x="873" y="223" on="0"/>
        <pt x="938" y="354" on="0"/>
        <pt x="988" y="515" on="0"/>
        <pt x="1016" y="703" on="0"/>
        <pt x="1016" y="805" on="1"/>
        <pt x="1016" y="908" on="0"/>
        <pt x="971" y="1092" on="0"/>
        <pt x="876" y="1229" on="0"/>
        <pt x="729" y="1309" on="0"/>
        <pt x="627" y="1309" on="1"/>
        <pt x="542" y="1309" on="0"/>
        <pt x="412" y="1271" on="0"/>
        <pt x="317" y="1204" on="0"/>
        <pt x="252" y="1114" on="0"/>
        <pt x="213" y="1011" on="0"/>
        <pt x="197" y="900" on="0"/>
        <pt x="197" y="846" on="1"/>
        <pt x="197" y="772" on="0"/>
        <pt x="228" y="656" on="0"/>
        <pt x="267" y="575" on="0"/>
        <pt x="302" y="531" on="0"/>
        <pt x="305" y="528" on="1"/>
        <pt x="322" y="533" on="0"/>
        <pt x="336" y="515" on="0"/>
        <pt x="336" y="500" on="1"/>
        <pt x="336" y="480" on="0"/>
        <pt x="319" y="437" on="0"/>
        <pt x="291" y="402" on="0"/>
        <pt x="256" y="379" on="0"/>
        <pt x="238" y="379" on="1"/>
        <pt x="230" y="379" on="0"/>
        <pt x="215" y="383" on="0"/>
        <pt x="207" y="389" on="1"/>
        <pt x="205" y="390" on="0"/>
        <pt x="179" y="417" on="0"/>
        <pt x="141" y="467" on="0"/>
        <pt x="98" y="542" on="0"/>
        <pt x="61" y="640" on="0"/>
        <pt x="37" y="762" on="0"/>
        <pt x="37" y="834" on="1"/>
        <pt x="37" y="973" on="0"/>
        <pt x="122" y="1206" on="0"/>
        <pt x="278" y="1373" on="0"/>
        <pt x="498" y="1466" on="0"/>
        <pt x="633" y="1466" on="1"/>
        <pt x="776" y="1466" on="0"/>
        <pt x="983" y="1357" on="0"/>
        <pt x="1116" y="1177" on="0"/>
        <pt x="1180" y="945" on="0"/>
        <pt x="1180" y="821" on="1"/>
        <pt x="1180" y="676" on="0"/>
        <pt x="1135" y="430" on="0"/>
        <pt x="1058" y="230" on="0"/>
        <pt x="956" y="77" on="0"/>
        <pt x="842" y="-26" on="0"/>
        <pt x="722" y="-78" on="0"/>
        <pt x="666" y="-78" on="1"/>
        <pt x="594" y="-78" on="0"/>
        <pt x="493" y="-33" on="0"/>
        <pt x="431" y="54" on="0"/>
        <pt x="403" y="181" on="0"/>
        <pt x="403" y="262" on="1"/>
        <pt x="403" y="600" on="1"/>
        <pt x="330" y="600" on="1"/>
        <pt x="302" y="600" on="0"/>
        <pt x="276" y="625" on="0"/>
        <pt x="276" y="647" on="1"/>
        <pt x="276" y="689" on="0"/>
        <pt x="315" y="735" on="0"/>
        <pt x="350" y="735" on="1"/>
      </contour>
    </TTGlyph>
    <TTGlyph name="Euro" xMin="0" yMin="-43" xMax="872" yMax="1432">
      <contour>
        <pt x="272" y="483" on="1"/>
        <pt x="279" y="408" on="0"/>
        <pt x="317" y="273" on="0"/>
        <pt x="380" y="171" on="0"/>
        <pt x="467" y="111" on="0"/>
        <pt x="524" y="111" on="1"/>
        <pt x="572" y="111" on="0"/>
        <pt x="648" y="149" on="0"/>
        <pt x="702" y="194" on="0"/>
        <pt x="732" y="232" on="0"/>
        <pt x="733" y="233" on="1"/>
        <pt x="746" y="255" on="0"/>
        <pt x="779" y="264" on="0"/>
        <pt x="810" y="248" on="0"/>
        <pt x="837" y="215" on="0"/>
        <pt x="852" y="177" on="0"/>
        <pt x="850" y="139" on="0"/>
        <pt x="838" y="127" on="1"/>
        <pt x="837" y="125" on="0"/>
        <pt x="816" y="99" on="0"/>
        <pt x="776" y="61" on="0"/>
        <pt x="720" y="18" on="0"/>
        <pt x="647" y="-19" on="0"/>
        <pt x="560" y="-43" on="0"/>
        <pt x="510" y="-43" on="1"/>
        <pt x="427" y="-43" on="0"/>
        <pt x="287" y="31" on="0"/>
        <pt x="182" y="167" on="0"/>
        <pt x="117" y="362" on="0"/>
        <pt x="109" y="483" on="1"/>
        <pt x="59" y="483" on="1"/>
        <pt x="43" y="483" on="0"/>
        <pt x="20" y="499" on="0"/>
        <pt x="6" y="525" on="0"/>
        <pt x="0" y="557" on="0"/>
        <pt x="0" y="573" on="1"/>
        <pt x="0" y="590" on="0"/>
        <pt x="15" y="614" on="0"/>
        <pt x="31" y="614" on="1"/>
        <pt x="106" y="614" on="1"/>
        <pt x="108" y="642" on="0"/>
        <pt x="114" y="700" on="0"/>
        <pt x="117" y="729" on="1"/>
        <pt x="59" y="729" on="1"/>
        <pt x="43" y="729" on="0"/>
        <pt x="20" y="745" on="0"/>
        <pt x="6" y="771" on="0"/>
        <pt x="0" y="803" on="0"/>
        <pt x="0" y="819" on="1"/>
        <pt x="0" y="836" on="0"/>
        <pt x="15" y="860" on="0"/>
        <pt x="31" y="860" on="1"/>
        <pt x="141" y="860" on="1"/>
        <pt x="167" y="972" on="0"/>
        <pt x="257" y="1179" on="0"/>
        <pt x="383" y="1337" on="0"/>
        <pt x="542" y="1432" on="0"/>
        <pt x="637" y="1432" on="1"/>
        <pt x="683" y="1432" on="0"/>
        <pt x="768" y="1397" on="0"/>
        <pt x="833" y="1329" on="0"/>
        <pt x="872" y="1228" on="0"/>
        <pt x="872" y="1161" on="1"/>
        <pt x="872" y="1139" on="0"/>
        <pt x="867" y="1083" on="0"/>
        <pt x="849" y="1034" on="0"/>
        <pt x="816" y="1001" on="0"/>
        <pt x="788" y="1001" on="1"/>
        <pt x="765" y="1001" on="0"/>
        <pt x="719" y="1015" on="0"/>
        <pt x="687" y="1036" on="0"/>
        <pt x="678" y="1063" on="0"/>
        <pt x="692" y="1075" on="1"/>
        <pt x="711" y="1120" on="0"/>
        <pt x="711" y="1167" on="1"/>
        <pt x="711" y="1185" on="0"/>
        <pt x="702" y="1225" on="0"/>
        <pt x="680" y="1259" on="0"/>
        <pt x="644" y="1282" on="0"/>
        <pt x="618" y="1282" on="1"/>
        <pt x="566" y="1282" on="0"/>
        <pt x="470" y="1215" on="0"/>
        <pt x="389" y="1101" on="0"/>
        <pt x="326" y="947" on="0"/>
        <pt x="305" y="860" on="1"/>
        <pt x="553" y="860" on="1"/>
        <pt x="569" y="872" on="0"/>
        <pt x="585" y="861" on="0"/>
        <pt x="589" y="832" on="0"/>
        <pt x="582" y="792" on="0"/>
        <pt x="567" y="755" on="0"/>
        <pt x="547" y="729" on="0"/>
        <pt x="535" y="729" on="1"/>
        <pt x="281" y="729" on="1"/>
        <pt x="277" y="700" on="0"/>
        <pt x="272" y="642" on="0"/>
        <pt x="270" y="614" on="1"/>
        <pt x="494" y="614" on="1"/>
        <pt x="510" y="626" on="0"/>
        <pt x="526" y="616" on="0"/>
        <pt x="529" y="587" on="0"/>
        <pt x="522" y="546" on="0"/>
        <pt x="507" y="509" on="0"/>
        <pt x="487" y="483" on="0"/>
        <pt x="475" y="483" on="1"/>
      </contour>
    </TTGlyph>
    <TTGlyph name="F" xMin="37" yMin="-137" xMax="1333" yMax="1446">
      <contour>
        <pt x="844" y="115" on="1"/>
        <pt x="844" y="47" on="0"/>
        <pt x="827" y="-49" on="0"/>
        <pt x="797" y="-109" on="0"/>
        <pt x="754" y="-137" on="0"/>
        <pt x="729" y="-137" on="1"/>
        <pt x="710" y="-137" on="0"/>
        <pt x="664" y="-111" on="0"/>
        <pt x="623" y="-73" on="0"/>
        <pt x="596" y="-33" on="0"/>
        <pt x="596" y="-18" on="1"/>
        <pt x="596" y="-8" on="0"/>
        <pt x="601" y="-3" on="0"/>
        <pt x="610" y="-4" on="0"/>
        <pt x="623" y="-8" on="0"/>
        <pt x="631" y="-8" on="1"/>
        <pt x="659" y="-8" on="0"/>
        <pt x="684" y="63" on="0"/>
        <pt x="684" y="141" on="1"/>
        <pt x="684" y="463" on="1"/>
        <pt x="578" y="463" on="1"/>
        <pt x="562" y="463" on="0"/>
        <pt x="535" y="483" on="0"/>
        <pt x="515" y="513" on="0"/>
        <pt x="504" y="549" on="0"/>
        <pt x="504" y="565" on="1"/>
        <pt x="504" y="582" on="0"/>
        <pt x="519" y="606" on="0"/>
        <pt x="535" y="606" on="1"/>
        <pt x="684" y="606" on="1"/>
        <pt x="684" y="1272" on="1"/>
        <pt x="576" y="1265" on="0"/>
        <pt x="398" y="1215" on="0"/>
        <pt x="270" y="1113" on="0"/>
        <pt x="199" y="950" on="0"/>
        <pt x="199" y="829" on="1"/>
        <pt x="199" y="776" on="0"/>
        <pt x="220" y="691" on="0"/>
        <pt x="254" y="623" on="0"/>
        <pt x="295" y="571" on="0"/>
        <pt x="315" y="551" on="1"/>
        <pt x="332" y="556" on="0"/>
        <pt x="346" y="538" on="0"/>
        <pt x="346" y="522" on="1"/>
        <pt x="346" y="502" on="0"/>
        <pt x="329" y="459" on="0"/>
        <pt x="301" y="424" on="0"/>
        <pt x="266" y="401" on="0"/>
        <pt x="248" y="401" on="1"/>
        <pt x="240" y="401" on="0"/>
        <pt x="225" y="405" on="0"/>
        <pt x="217" y="412" on="1"/>
        <pt x="195" y="428" on="0"/>
        <pt x="133" y="501" on="0"/>
        <pt x="77" y="609" on="0"/>
        <pt x="37" y="748" on="0"/>
        <pt x="37" y="829" on="1"/>
        <pt x="37" y="1124" on="0"/>
        <pt x="414" y="1434" on="0"/>
        <pt x="782" y="1434" on="1"/>
        <pt x="810" y="1434" on="0"/>
        <pt x="895" y="1433" on="0"/>
        <pt x="991" y="1433" on="0"/>
        <pt x="1090" y="1431" on="0"/>
        <pt x="1175" y="1431" on="0"/>
        <pt x="1236" y="1430" on="0"/>
        <pt x="1247" y="1430" on="1"/>
        <pt x="1262" y="1430" on="0"/>
        <pt x="1282" y="1435" on="0"/>
        <pt x="1295" y="1441" on="0"/>
        <pt x="1302" y="1446" on="0"/>
        <pt x="1305" y="1446" on="1"/>
        <pt x="1310" y="1446" on="0"/>
        <pt x="1320" y="1433" on="0"/>
        <pt x="1328" y="1414" on="0"/>
        <pt x="1333" y="1390" on="0"/>
        <pt x="1333" y="1378" on="1"/>
        <pt x="1333" y="1360" on="0"/>
        <pt x="1322" y="1321" on="0"/>
        <pt x="1298" y="1290" on="0"/>
        <pt x="1263" y="1270" on="0"/>
        <pt x="1239" y="1270" on="1"/>
        <pt x="1230" y="1270" on="0"/>
        <pt x="1182" y="1271" on="0"/>
        <pt x="1115" y="1272" on="0"/>
        <pt x="1035" y="1273" on="0"/>
        <pt x="954" y="1274" on="0"/>
        <pt x="876" y="1275" on="0"/>
        <pt x="844" y="1276" on="1"/>
        <pt x="844" y="606" on="1"/>
        <pt x="1100" y="606" on="1"/>
        <pt x="1116" y="618" on="0"/>
        <pt x="1132" y="606" on="0"/>
        <pt x="1135" y="574" on="0"/>
        <pt x="1128" y="530" on="0"/>
        <pt x="1113" y="491" on="0"/>
        <pt x="1093" y="463" on="0"/>
        <pt x="1081" y="463" on="1"/>
        <pt x="844" y="463" on="1"/>
      </contour>
    </TTGlyph>
    <TTGlyph name="G" xMin="70" yMin="-725" xMax="1110" yMax="1462">
      <contour>
        <pt x="784" y="119" on="1"/>
        <pt x="719" y="23" on="0"/>
        <pt x="561" y="-82" on="0"/>
        <pt x="467" y="-82" on="1"/>
        <pt x="372" y="-82" on="0"/>
        <pt x="224" y="9" on="0"/>
        <pt x="123" y="176" on="0"/>
        <pt x="70" y="411" on="0"/>
        <pt x="70" y="555" on="1"/>
        <pt x="70" y="657" on="0"/>
        <pt x="112" y="871" on="0"/>
        <pt x="193" y="1072" on="0"/>
        <pt x="309" y="1251" on="0"/>
        <pt x="457" y="1384" on="0"/>
        <pt x="635" y="1462" on="0"/>
        <pt x="737" y="1462" on="1"/>
        <pt x="792" y="1462" on="0"/>
        <pt x="888" y="1427" on="0"/>
        <pt x="957" y="1361" on="0"/>
        <pt x="997" y="1267" on="0"/>
        <pt x="997" y="1208" on="1"/>
        <pt x="997" y="1152" on="0"/>
        <pt x="959" y="1048" on="0"/>
        <pt x="894" y="956" on="0"/>
        <pt x="808" y="880" on="0"/>
        <pt x="714" y="825" on="0"/>
        <pt x="616" y="795" on="0"/>
        <pt x="571" y="795" on="1"/>
        <pt x="534" y="795" on="0"/>
        <pt x="481" y="842" on="0"/>
        <pt x="481" y="893" on="1"/>
        <pt x="481" y="904" on="0"/>
        <pt x="484" y="930" on="0"/>
        <pt x="490" y="952" on="0"/>
        <pt x="498" y="967" on="0"/>
        <pt x="504" y="967" on="1"/>
        <pt x="509" y="967" on="0"/>
        <pt x="518" y="960" on="0"/>
        <pt x="533" y="953" on="0"/>
        <pt x="559" y="946" on="0"/>
        <pt x="582" y="946" on="1"/>
        <pt x="621" y="946" on="0"/>
        <pt x="710" y="988" on="0"/>
        <pt x="786" y="1058" on="0"/>
        <pt x="836" y="1149" on="0"/>
        <pt x="836" y="1198" on="1"/>
        <pt x="836" y="1216" on="0"/>
        <pt x="823" y="1256" on="0"/>
        <pt x="794" y="1290" on="0"/>
        <pt x="746" y="1313" on="0"/>
        <pt x="711" y="1313" on="1"/>
        <pt x="647" y="1313" on="0"/>
        <pt x="527" y="1251" on="0"/>
        <pt x="423" y="1142" on="0"/>
        <pt x="336" y="996" on="0"/>
        <pt x="274" y="828" on="0"/>
        <pt x="240" y="646" on="0"/>
        <pt x="240" y="557" on="1"/>
        <pt x="240" y="446" on="0"/>
        <pt x="275" y="269" on="0"/>
        <pt x="337" y="145" on="0"/>
        <pt x="422" y="78" on="0"/>
        <pt x="471" y="78" on="1"/>
        <pt x="523" y="78" on="0"/>
        <pt x="611" y="121" on="0"/>
        <pt x="681" y="193" on="0"/>
        <pt x="733" y="287" on="0"/>
        <pt x="768" y="387" on="0"/>
        <pt x="786" y="486" on="0"/>
        <pt x="786" y="528" on="1"/>
        <pt x="786" y="544" on="0"/>
        <pt x="782" y="585" on="0"/>
        <pt x="782" y="596" on="1"/>
        <pt x="782" y="611" on="0"/>
        <pt x="793" y="627" on="0"/>
        <pt x="811" y="635" on="0"/>
        <pt x="835" y="637" on="0"/>
        <pt x="848" y="637" on="1"/>
        <pt x="862" y="637" on="0"/>
        <pt x="898" y="625" on="0"/>
        <pt x="931" y="604" on="0"/>
        <pt x="954" y="576" on="0"/>
        <pt x="954" y="559" on="1"/>
        <pt x="946" y="476" on="0"/>
        <pt x="942" y="327" on="0"/>
        <pt x="942" y="250" on="1"/>
        <pt x="942" y="178" on="0"/>
        <pt x="944" y="22" on="0"/>
        <pt x="944" y="-72" on="1"/>
        <pt x="973" y="-67" on="0"/>
        <pt x="1028" y="-63" on="0"/>
        <pt x="1053" y="-61" on="1"/>
        <pt x="1089" y="-59" on="0"/>
        <pt x="1110" y="-108" on="0"/>
        <pt x="1095" y="-170" on="0"/>
        <pt x="1053" y="-222" on="0"/>
        <pt x="1026" y="-223" on="1"/>
        <pt x="1003" y="-223" on="0"/>
        <pt x="962" y="-225" on="0"/>
        <pt x="940" y="-227" on="1"/>
        <pt x="937" y="-285" on="0"/>
        <pt x="925" y="-403" on="0"/>
        <pt x="898" y="-514" on="0"/>
        <pt x="855" y="-611" on="0"/>
        <pt x="791" y="-683" on="0"/>
        <pt x="701" y="-725" on="0"/>
        <pt x="641" y="-725" on="1"/>
        <pt x="589" y="-725" on="0"/>
        <pt x="504" y="-688" on="0"/>
        <pt x="444" y="-623" on="0"/>
        <pt x="412" y="-535" on="0"/>
        <pt x="412" y="-483" on="1"/>
        <pt x="412" y="-405" on="0"/>
        <pt x="476" y="-284" on="0"/>
        <pt x="581" y="-192" on="0"/>
        <pt x="717" y="-128" on="0"/>
        <pt x="788" y="-106" on="1"/>
        <pt x="788" y="-86" on="1"/>
        <pt x="788" y="-20" on="0"/>
        <pt x="784" y="82" on="0"/>
      </contour>
      <contour>
        <pt x="645" y="-567" on="1"/>
        <pt x="679" y="-567" on="0"/>
        <pt x="728" y="-517" on="0"/>
        <pt x="760" y="-431" on="0"/>
        <pt x="778" y="-320" on="0"/>
        <pt x="782" y="-258" on="1"/>
        <pt x="680" y="-290" on="0"/>
        <pt x="571" y="-402" on="0"/>
        <pt x="571" y="-479" on="1"/>
        <pt x="571" y="-526" on="0"/>
        <pt x="614" y="-567" on="0"/>
      </contour>
    </TTGlyph>
    <TTGlyph name="Gbreve" xMin="70" yMin="-725" xMax="1110" yMax="1858">
      <component glyphName="G" x="0" y="0" flags="0x204"/>
      <component glyphName="breve" x="295" y="641" flags="0x4"/>
    </TTGlyph>
    <TTGlyph name="Gcircumflex" xMin="70" yMin="-725" xMax="1110" yMax="1878">
      <component glyphName="G" x="0" y="0" flags="0x204"/>
      <component glyphName="circumflex" x="301" y="641" flags="0x4"/>
    </TTGlyph>
    <TTGlyph name="Gcommaaccent" xMin="70" yMin="-725" xMax="997" yMax="1462">
      <contour>
        <pt x="518" y="-692" on="1"/>
        <pt x="494" y="-677" on="0"/>
        <pt x="487" y="-636" on="0"/>
        <pt x="504" y="-596" on="0"/>
        <pt x="537" y="-561" on="0"/>
        <pt x="574" y="-541" on="0"/>
        <pt x="604" y="-543" on="0"/>
        <pt x="610" y="-559" on="1"/>
        <pt x="625" y="-567" on="0"/>
        <pt x="645" y="-567" on="1"/>
        <pt x="676" y="-567" on="0"/>
        <pt x="722" y="-526" on="0"/>
        <pt x="754" y="-455" on="0"/>
        <pt x="773" y="-360" on="0"/>
        <pt x="784" y="-253" on="0"/>
        <pt x="788" y="-140" on="0"/>
        <pt x="788" y="-86" on="1"/>
        <pt x="788" y="-20" on="0"/>
        <pt x="784" y="82" on="0"/>
        <pt x="784" y="119" on="1"/>
        <pt x="719" y="23" on="0"/>
        <pt x="561" y="-82" on="0"/>
        <pt x="467" y="-82" on="1"/>
        <pt x="372" y="-82" on="0"/>
        <pt x="224" y="9" on="0"/>
        <pt x="123" y="176" on="0"/>
        <pt x="70" y="411" on="0"/>
        <pt x="70" y="555" on="1"/>
        <pt x="70" y="657" on="0"/>
        <pt x="112" y="871" on="0"/>
        <pt x="193" y="1072" on="0"/>
        <pt x="309" y="1251" on="0"/>
        <pt x="457" y="1384" on="0"/>
        <pt x="635" y="1462" on="0"/>
        <pt x="737" y="1462" on="1"/>
        <pt x="792" y="1462" on="0"/>
        <pt x="888" y="1427" on="0"/>
        <pt x="957" y="1361" on="0"/>
        <pt x="997" y="1267" on="0"/>
        <pt x="997" y="1208" on="1"/>
        <pt x="997" y="1152" on="0"/>
        <pt x="959" y="1048" on="0"/>
        <pt x="894" y="956" on="0"/>
        <pt x="808" y="880" on="0"/>
        <pt x="714" y="825" on="0"/>
        <pt x="616" y="795" on="0"/>
        <pt x="571" y="795" on="1"/>
        <pt x="534" y="795" on="0"/>
        <pt x="481" y="842" on="0"/>
        <pt x="481" y="893" on="1"/>
        <pt x="481" y="904" on="0"/>
        <pt x="484" y="930" on="0"/>
        <pt x="490" y="952" on="0"/>
        <pt x="498" y="967" on="0"/>
        <pt x="504" y="967" on="1"/>
        <pt x="509" y="967" on="0"/>
        <pt x="518" y="960" on="0"/>
        <pt x="533" y="953" on="0"/>
        <pt x="559" y="946" on="0"/>
        <pt x="582" y="946" on="1"/>
        <pt x="621" y="946" on="0"/>
        <pt x="710" y="988" on="0"/>
        <pt x="786" y="1058" on="0"/>
        <pt x="836" y="1149" on="0"/>
        <pt x="836" y="1198" on="1"/>
        <pt x="836" y="1216" on="0"/>
        <pt x="823" y="1256" on="0"/>
        <pt x="794" y="1290" on="0"/>
        <pt x="746" y="1313" on="0"/>
        <pt x="711" y="1313" on="1"/>
        <pt x="647" y="1313" on="0"/>
        <pt x="527" y="1251" on="0"/>
        <pt x="423" y="1142" on="0"/>
        <pt x="336" y="996" on="0"/>
        <pt x="274" y="828" on="0"/>
        <pt x="240" y="646" on="0"/>
        <pt x="240" y="557" on="1"/>
        <pt x="240" y="446" on="0"/>
        <pt x="275" y="269" on="0"/>
        <pt x="337" y="145" on="0"/>
        <pt x="422" y="78" on="0"/>
        <pt x="471" y="78" on="1"/>
        <pt x="523" y="78" on="0"/>
        <pt x="611" y="121" on="0"/>
        <pt x="681" y="193" on="0"/>
        <pt x="733" y="287" on="0"/>
        <pt x="768" y="387" on="0"/>
        <pt x="786" y="486" on="0"/>
        <pt x="786" y="528" on="1"/>
        <pt x="786" y="544" on="0"/>
        <pt x="782" y="585" on="0"/>
        <pt x="782" y="596" on="1"/>
        <pt x="782" y="611" on="0"/>
        <pt x="793" y="627" on="0"/>
        <pt x="811" y="635" on="0"/>
        <pt x="835" y="637" on="0"/>
        <pt x="848" y="637" on="1"/>
        <pt x="862" y="637" on="0"/>
        <pt x="898" y="625" on="0"/>
        <pt x="931" y="604" on="0"/>
        <pt x="954" y="576" on="0"/>
        <pt x="954" y="559" on="1"/>
        <pt x="946" y="476" on="0"/>
        <pt x="942" y="327" on="0"/>
        <pt x="942" y="250" on="1"/>
        <pt x="942" y="172" on="0"/>
        <pt x="944" y="5" on="0"/>
        <pt x="944" y="-100" on="1"/>
        <pt x="944" y="-160" on="0"/>
        <pt x="939" y="-299" on="0"/>
        <pt x="919" y="-438" on="0"/>
        <pt x="881" y="-567" on="0"/>
        <pt x="813" y="-666" on="0"/>
        <pt x="713" y="-725" on="0"/>
        <pt x="641" y="-725" on="1"/>
        <pt x="606" y="-725" on="0"/>
        <pt x="544" y="-709" on="0"/>
      </contour>
      <contour>
        <pt x="477" y="-166" on="1"/>
        <pt x="514" y="-166" on="0"/>
        <pt x="571" y="-220" on="0"/>
        <pt x="571" y="-276" on="1"/>
        <pt x="571" y="-305" on="0"/>
        <pt x="541" y="-377" on="0"/>
        <pt x="497" y="-440" on="0"/>
        <pt x="450" y="-483" on="0"/>
        <pt x="432" y="-483" on="1"/>
        <pt x="420" y="-483" on="0"/>
        <pt x="399" y="-472" on="0"/>
        <pt x="385" y="-455" on="0"/>
        <pt x="377" y="-435" on="0"/>
        <pt x="377" y="-426" on="1"/>
        <pt x="377" y="-418" on="0"/>
        <pt x="384" y="-415" on="0"/>
        <pt x="389" y="-412" on="1"/>
        <pt x="400" y="-409" on="0"/>
        <pt x="434" y="-374" on="0"/>
        <pt x="453" y="-346" on="1"/>
        <pt x="424" y="-340" on="0"/>
        <pt x="383" y="-293" on="0"/>
        <pt x="383" y="-256" on="1"/>
        <pt x="383" y="-235" on="0"/>
        <pt x="399" y="-201" on="0"/>
        <pt x="426" y="-178" on="0"/>
        <pt x="459" y="-166" on="0"/>
      </contour>
    </TTGlyph>
    <TTGlyph name="Gdotaccent" xMin="70" yMin="-725" xMax="1110" yMax="1771">
      <component glyphName="G" x="0" y="0" flags="0x204"/>
      <component glyphName="dotaccent" x="301" y="641" flags="0x4"/>
    </TTGlyph>
    <TTGlyph name="H" xMin="37" yMin="-57" xMax="1327" yMax="1536">
      <contour>
        <pt x="793" y="618" on="1"/>
        <pt x="1112" y="618" on="1"/>
        <pt x="1112" y="1317" on="1"/>
        <pt x="1112" y="1426" on="0"/>
        <pt x="1175" y="1536" on="0"/>
        <pt x="1219" y="1536" on="1"/>
        <pt x="1241" y="1536" on="0"/>
        <pt x="1280" y="1510" on="0"/>
        <pt x="1310" y="1475" on="0"/>
        <pt x="1327" y="1438" on="0"/>
        <pt x="1327" y="1427" on="1"/>
        <pt x="1327" y="1416" on="0"/>
        <pt x="1310" y="1413" on="0"/>
        <pt x="1289" y="1394" on="0"/>
        <pt x="1272" y="1338" on="0"/>
        <pt x="1272" y="1274" on="1"/>
        <pt x="1272" y="-10" on="1"/>
        <pt x="1272" y="-36" on="0"/>
        <pt x="1237" y="-57" on="0"/>
        <pt x="1214" y="-57" on="1"/>
        <pt x="1196" y="-57" on="0"/>
        <pt x="1160" y="-47" on="0"/>
        <pt x="1131" y="-31" on="0"/>
        <pt x="1112" y="-10" on="0"/>
        <pt x="1112" y="2" on="1"/>
        <pt x="1112" y="475" on="1"/>
        <pt x="793" y="475" on="1"/>
        <pt x="793" y="-10" on="1"/>
        <pt x="793" y="-36" on="0"/>
        <pt x="758" y="-57" on="0"/>
        <pt x="735" y="-57" on="1"/>
        <pt x="717" y="-57" on="0"/>
        <pt x="681" y="-47" on="0"/>
        <pt x="652" y="-31" on="0"/>
        <pt x="633" y="-10" on="0"/>
        <pt x="633" y="2" on="1"/>
        <pt x="633" y="475" on="1"/>
        <pt x="487" y="475" on="1"/>
        <pt x="471" y="475" on="0"/>
        <pt x="444" y="495" on="0"/>
        <pt x="425" y="526" on="0"/>
        <pt x="414" y="562" on="0"/>
        <pt x="414" y="578" on="1"/>
        <pt x="414" y="595" on="0"/>
        <pt x="429" y="618" on="0"/>
        <pt x="444" y="618" on="1"/>
        <pt x="633" y="618" on="1"/>
        <pt x="633" y="1280" on="1"/>
        <pt x="538" y="1280" on="0"/>
        <pt x="379" y="1217" on="0"/>
        <pt x="264" y="1100" on="0"/>
        <pt x="199" y="934" on="0"/>
        <pt x="199" y="831" on="1"/>
        <pt x="199" y="766" on="0"/>
        <pt x="225" y="662" on="0"/>
        <pt x="261" y="589" on="0"/>
        <pt x="297" y="549" on="0"/>
        <pt x="307" y="549" on="1"/>
        <pt x="316" y="549" on="0"/>
        <pt x="324" y="559" on="0"/>
        <pt x="332" y="559" on="1"/>
        <pt x="340" y="559" on="0"/>
        <pt x="344" y="537" on="0"/>
        <pt x="344" y="526" on="1"/>
        <pt x="344" y="494" on="0"/>
        <pt x="318" y="437" on="0"/>
        <pt x="279" y="402" on="0"/>
        <pt x="231" y="394" on="0"/>
        <pt x="209" y="410" on="1"/>
        <pt x="182" y="429" on="0"/>
        <pt x="121" y="500" on="0"/>
        <pt x="70" y="604" on="0"/>
        <pt x="37" y="741" on="0"/>
        <pt x="37" y="825" on="1"/>
        <pt x="37" y="934" on="0"/>
        <pt x="94" y="1109" on="0"/>
        <pt x="191" y="1244" on="0"/>
        <pt x="323" y="1341" on="0"/>
        <pt x="472" y="1404" on="0"/>
        <pt x="633" y="1434" on="0"/>
        <pt x="711" y="1434" on="1"/>
        <pt x="727" y="1434" on="0"/>
        <pt x="757" y="1421" on="0"/>
        <pt x="779" y="1398" on="0"/>
        <pt x="793" y="1366" on="0"/>
        <pt x="793" y="1348" on="1"/>
      </contour>
    </TTGlyph>
    <TTGlyph name="Hbar" xMin="37" yMin="-57" xMax="1399" yMax="1536">
      <contour>
        <pt x="1272" y="993" on="1"/>
        <pt x="1354" y="993" on="1"/>
        <pt x="1380" y="996" on="0"/>
        <pt x="1399" y="966" on="0"/>
        <pt x="1399" y="940" on="1"/>
        <pt x="1399" y="925" on="0"/>
        <pt x="1391" y="895" on="0"/>
        <pt x="1378" y="871" on="0"/>
        <pt x="1358" y="856" on="0"/>
        <pt x="1346" y="856" on="1"/>
        <pt x="1339" y="856" on="0"/>
        <pt x="1335" y="858" on="1"/>
        <pt x="1272" y="858" on="1"/>
        <pt x="1272" y="-10" on="1"/>
        <pt x="1272" y="-36" on="0"/>
        <pt x="1237" y="-57" on="0"/>
        <pt x="1214" y="-57" on="1"/>
        <pt x="1196" y="-57" on="0"/>
        <pt x="1160" y="-47" on="0"/>
        <pt x="1131" y="-31" on="0"/>
        <pt x="1112" y="-10" on="0"/>
        <pt x="1112" y="2" on="1"/>
        <pt x="1112" y="475" on="1"/>
        <pt x="793" y="475" on="1"/>
        <pt x="793" y="-10" on="1"/>
        <pt x="793" y="-36" on="0"/>
        <pt x="758" y="-57" on="0"/>
        <pt x="735" y="-57" on="1"/>
        <pt x="717" y="-57" on="0"/>
        <pt x="681" y="-47" on="0"/>
        <pt x="652" y="-31" on="0"/>
        <pt x="633" y="-10" on="0"/>
        <pt x="633" y="2" on="1"/>
        <pt x="633" y="858" on="1"/>
        <pt x="520" y="858" on="1"/>
        <pt x="492" y="858" on="0"/>
        <pt x="467" y="884" on="0"/>
        <pt x="467" y="905" on="1"/>
        <pt x="467" y="947" on="0"/>
        <pt x="506" y="993" on="0"/>
        <pt x="541" y="993" on="1"/>
        <pt x="633" y="993" on="1"/>
        <pt x="633" y="1280" on="1"/>
        <pt x="538" y="1280" on="0"/>
        <pt x="379" y="1217" on="0"/>
        <pt x="264" y="1100" on="0"/>
        <pt x="199" y="934" on="0"/>
        <pt x="199" y="831" on="1"/>
        <pt x="199" y="766" on="0"/>
        <pt x="225" y="662" on="0"/>
        <pt x="261" y="589" on="0"/>
        <pt x="297" y="549" on="0"/>
        <pt x="307" y="549" on="1"/>
        <pt x="316" y="549" on="0"/>
        <pt x="324" y="559" on="0"/>
        <pt x="332" y="559" on="1"/>
        <pt x="340" y="559" on="0"/>
        <pt x="344" y="537" on="0"/>
        <pt x="344" y="526" on="1"/>
        <pt x="344" y="494" on="0"/>
        <pt x="318" y="437" on="0"/>
        <pt x="279" y="402" on="0"/>
        <pt x="231" y="394" on="0"/>
        <pt x="209" y="410" on="1"/>
        <pt x="182" y="429" on="0"/>
        <pt x="121" y="500" on="0"/>
        <pt x="70" y="604" on="0"/>
        <pt x="37" y="741" on="0"/>
        <pt x="37" y="825" on="1"/>
        <pt x="37" y="934" on="0"/>
        <pt x="94" y="1109" on="0"/>
        <pt x="191" y="1244" on="0"/>
        <pt x="323" y="1341" on="0"/>
        <pt x="472" y="1404" on="0"/>
        <pt x="633" y="1434" on="0"/>
        <pt x="711" y="1434" on="1"/>
        <pt x="727" y="1434" on="0"/>
        <pt x="757" y="1421" on="0"/>
        <pt x="779" y="1398" on="0"/>
        <pt x="793" y="1366" on="0"/>
        <pt x="793" y="1348" on="1"/>
        <pt x="793" y="993" on="1"/>
        <pt x="1112" y="993" on="1"/>
        <pt x="1112" y="1317" on="1"/>
        <pt x="1112" y="1426" on="0"/>
        <pt x="1175" y="1536" on="0"/>
        <pt x="1219" y="1536" on="1"/>
        <pt x="1241" y="1536" on="0"/>
        <pt x="1280" y="1510" on="0"/>
        <pt x="1310" y="1475" on="0"/>
        <pt x="1327" y="1438" on="0"/>
        <pt x="1327" y="1427" on="1"/>
        <pt x="1327" y="1416" on="0"/>
        <pt x="1310" y="1413" on="0"/>
        <pt x="1289" y="1394" on="0"/>
        <pt x="1272" y="1338" on="0"/>
        <pt x="1272" y="1274" on="1"/>
      </contour>
      <contour>
        <pt x="793" y="618" on="1"/>
        <pt x="1112" y="618" on="1"/>
        <pt x="1112" y="858" on="1"/>
        <pt x="793" y="858" on="1"/>
      </contour>
    </TTGlyph>
    <TTGlyph name="Hcircumflex" xMin="37" yMin="-57" xMax="1327" yMax="1853">
      <component glyphName="H" x="0" y="0" flags="0x204"/>
      <component glyphName="circumflex" x="492" y="616" flags="0x4"/>
    </TTGlyph>
    <TTGlyph name="I" xMin="37" yMin="-57" xMax="694" yMax="1434">
      <contour>
        <pt x="694" y="-10" on="1"/>
        <pt x="694" y="-36" on="0"/>
        <pt x="660" y="-57" on="0"/>
        <pt x="637" y="-57" on="1"/>
        <pt x="619" y="-57" on="0"/>
        <pt x="583" y="-47" on="0"/>
        <pt x="554" y="-31" on="0"/>
        <pt x="535" y="-10" on="0"/>
        <pt x="535" y="2" on="1"/>
        <pt x="535" y="1274" on="1"/>
        <pt x="466" y="1265" on="0"/>
        <pt x="343" y="1205" on="0"/>
        <pt x="252" y="1101" on="0"/>
        <pt x="199" y="953" on="0"/>
        <pt x="199" y="856" on="1"/>
        <pt x="199" y="794" on="0"/>
        <pt x="225" y="695" on="0"/>
        <pt x="261" y="626" on="0"/>
        <pt x="297" y="588" on="0"/>
        <pt x="307" y="588" on="1"/>
        <pt x="315" y="588" on="0"/>
        <pt x="322" y="602" on="0"/>
        <pt x="330" y="602" on="1"/>
        <pt x="338" y="602" on="0"/>
        <pt x="344" y="582" on="0"/>
        <pt x="344" y="571" on="1"/>
        <pt x="344" y="539" on="0"/>
        <pt x="318" y="480" on="0"/>
        <pt x="279" y="443" on="0"/>
        <pt x="231" y="433" on="0"/>
        <pt x="209" y="449" on="1"/>
        <pt x="182" y="467" on="0"/>
        <pt x="121" y="541" on="0"/>
        <pt x="70" y="646" on="0"/>
        <pt x="37" y="778" on="0"/>
        <pt x="37" y="856" on="1"/>
        <pt x="37" y="964" on="0"/>
        <pt x="89" y="1135" on="0"/>
        <pt x="176" y="1263" on="0"/>
        <pt x="292" y="1353" on="0"/>
        <pt x="420" y="1409" on="0"/>
        <pt x="552" y="1434" on="0"/>
        <pt x="612" y="1434" on="1"/>
        <pt x="628" y="1434" on="0"/>
        <pt x="658" y="1421" on="0"/>
        <pt x="680" y="1398" on="0"/>
        <pt x="694" y="1366" on="0"/>
        <pt x="694" y="1348" on="1"/>
      </contour>
    </TTGlyph>
    <TTGlyph name="IJ" xMin="37" yMin="-725" xMax="1673" yMax="1434">
      <component glyphName="I" x="0" y="0" flags="0x4"/>
      <component glyphName="J" x="813" y="0" flags="0x4"/>
    </TTGlyph>
    <TTGlyph name="Iacute" xMin="37" yMin="-57" xMax="779" yMax="1847">
      <component glyphName="I" x="0" y="0" flags="0x204"/>
      <component glyphName="acute" x="193" y="610" flags="0x4"/>
    </TTGlyph>
    <TTGlyph name="Ibreve" xMin="37" yMin="-57" xMax="803" yMax="1827">
      <component glyphName="I" x="0" y="0" flags="0x204"/>
      <component glyphName="breve" x="154" y="610" flags="0x4"/>
    </TTGlyph>
    <TTGlyph name="Icircumflex" xMin="37" yMin="-57" xMax="801" yMax="1847">
      <component glyphName="I" x="0" y="0" flags="0x204"/>
      <component glyphName="circumflex" x="160" y="610" flags="0x4"/>
    </TTGlyph>
    <TTGlyph name="Idieresis" xMin="37" yMin="-57" xMax="813" yMax="1749">
      <component glyphName="I" x="0" y="0" flags="0x204"/>
      <component glyphName="dieresis" x="160" y="610" flags="0x4"/>
    </TTGlyph>
    <TTGlyph name="Idotaccent" xMin="37" yMin="-57" xMax="694" yMax="1740">
      <component glyphName="I" x="0" y="0" flags="0x204"/>
      <component glyphName="dotaccent" x="160" y="610" flags="0x4"/>
    </TTGlyph>
    <TTGlyph name="Igrave" xMin="37" yMin="-57" xMax="707" yMax="1847">
      <component glyphName="I" x="0" y="0" flags="0x204"/>
      <component glyphName="grave" x="125" y="610" flags="0x4"/>
    </TTGlyph>
    <TTGlyph name="Imacron" xMin="37" yMin="-57" xMax="805" yMax="1707">
      <component glyphName="I" x="0" y="0" flags="0x204"/>
      <component glyphName="macron" x="160" y="610" flags="0x4"/>
    </TTGlyph>
    <TTGlyph name="Iogonek" xMin="37" yMin="-438" xMax="758" yMax="1434">
      <contour>
        <pt x="694" y="-2" on="1"/>
        <pt x="694" y="-21" on="0"/>
        <pt x="682" y="-49" on="0"/>
        <pt x="662" y="-57" on="1"/>
        <pt x="632" y="-68" on="0"/>
        <pt x="578" y="-106" on="0"/>
        <pt x="538" y="-156" on="0"/>
        <pt x="514" y="-215" on="0"/>
        <pt x="514" y="-246" on="1"/>
        <pt x="514" y="-275" on="0"/>
        <pt x="555" y="-319" on="0"/>
        <pt x="608" y="-319" on="1"/>
        <pt x="620" y="-319" on="0"/>
        <pt x="652" y="-317" on="0"/>
        <pt x="686" y="-313" on="0"/>
        <pt x="718" y="-306" on="0"/>
        <pt x="729" y="-301" on="1"/>
        <pt x="736" y="-297" on="0"/>
        <pt x="747" y="-307" on="0"/>
        <pt x="754" y="-323" on="0"/>
        <pt x="758" y="-343" on="0"/>
        <pt x="758" y="-350" on="1"/>
        <pt x="758" y="-397" on="0"/>
        <pt x="686" y="-438" on="0"/>
        <pt x="598" y="-438" on="1"/>
        <pt x="536" y="-438" on="0"/>
        <pt x="452" y="-404" on="0"/>
        <pt x="400" y="-353" on="0"/>
        <pt x="377" y="-292" on="0"/>
        <pt x="377" y="-264" on="1"/>
        <pt x="377" y="-225" on="0"/>
        <pt x="404" y="-151" on="0"/>
        <pt x="449" y="-85" on="0"/>
        <pt x="507" y="-30" on="0"/>
        <pt x="537" y="-10" on="1"/>
        <pt x="535" y="-6" on="0"/>
        <pt x="535" y="2" on="1"/>
        <pt x="535" y="1274" on="1"/>
        <pt x="466" y="1265" on="0"/>
        <pt x="343" y="1205" on="0"/>
        <pt x="252" y="1101" on="0"/>
        <pt x="199" y="953" on="0"/>
        <pt x="199" y="856" on="1"/>
        <pt x="199" y="794" on="0"/>
        <pt x="225" y="695" on="0"/>
        <pt x="261" y="626" on="0"/>
        <pt x="297" y="588" on="0"/>
        <pt x="307" y="588" on="1"/>
        <pt x="315" y="588" on="0"/>
        <pt x="322" y="602" on="0"/>
        <pt x="330" y="602" on="1"/>
        <pt x="338" y="602" on="0"/>
        <pt x="344" y="582" on="0"/>
        <pt x="344" y="571" on="1"/>
        <pt x="344" y="539" on="0"/>
        <pt x="318" y="480" on="0"/>
        <pt x="279" y="443" on="0"/>
        <pt x="231" y="433" on="0"/>
        <pt x="209" y="449" on="1"/>
        <pt x="182" y="467" on="0"/>
        <pt x="121" y="541" on="0"/>
        <pt x="70" y="646" on="0"/>
        <pt x="37" y="778" on="0"/>
        <pt x="37" y="856" on="1"/>
        <pt x="37" y="964" on="0"/>
        <pt x="89" y="1135" on="0"/>
        <pt x="176" y="1263" on="0"/>
        <pt x="292" y="1353" on="0"/>
        <pt x="420" y="1409" on="0"/>
        <pt x="552" y="1434" on="0"/>
        <pt x="612" y="1434" on="1"/>
        <pt x="628" y="1434" on="0"/>
        <pt x="658" y="1421" on="0"/>
        <pt x="680" y="1398" on="0"/>
        <pt x="694" y="1366" on="0"/>
        <pt x="694" y="1348" on="1"/>
      </contour>
    </TTGlyph>
    <TTGlyph name="Itilde" xMin="37" yMin="-57" xMax="840" yMax="1784">
      <component glyphName="I" x="0" y="0" flags="0x204"/>
      <component glyphName="tilde" x="160" y="610" flags="0x4"/>
    </TTGlyph>
    <TTGlyph name="J" xMin="37" yMin="-725" xMax="860" yMax="1434">
      <contour>
        <pt x="535" y="1274" on="1"/>
        <pt x="466" y="1265" on="0"/>
        <pt x="343" y="1205" on="0"/>
        <pt x="252" y="1101" on="0"/>
        <pt x="199" y="953" on="0"/>
        <pt x="199" y="856" on="1"/>
        <pt x="199" y="794" on="0"/>
        <pt x="225" y="695" on="0"/>
        <pt x="261" y="626" on="0"/>
        <pt x="297" y="588" on="0"/>
        <pt x="307" y="588" on="1"/>
        <pt x="315" y="588" on="0"/>
        <pt x="322" y="602" on="0"/>
        <pt x="330" y="602" on="1"/>
        <pt x="338" y="602" on="0"/>
        <pt x="344" y="582" on="0"/>
        <pt x="344" y="571" on="1"/>
        <pt x="344" y="545" on="0"/>
        <pt x="327" y="496" on="0"/>
        <pt x="299" y="459" on="0"/>
        <pt x="263" y="436" on="0"/>
        <pt x="244" y="436" on="1"/>
        <pt x="223" y="436" on="0"/>
        <pt x="209" y="449" on="1"/>
        <pt x="190" y="461" on="0"/>
        <pt x="131" y="524" on="0"/>
        <pt x="76" y="625" on="0"/>
        <pt x="37" y="766" on="0"/>
        <pt x="37" y="856" on="1"/>
        <pt x="37" y="964" on="0"/>
        <pt x="89" y="1135" on="0"/>
        <pt x="176" y="1263" on="0"/>
        <pt x="292" y="1353" on="0"/>
        <pt x="420" y="1409" on="0"/>
        <pt x="552" y="1434" on="0"/>
        <pt x="612" y="1434" on="1"/>
        <pt x="628" y="1434" on="0"/>
        <pt x="658" y="1421" on="0"/>
        <pt x="680" y="1398" on="0"/>
        <pt x="694" y="1366" on="0"/>
        <pt x="694" y="1348" on="1"/>
        <pt x="694" y="-10" on="1"/>
        <pt x="694" y="-72" on="1"/>
        <pt x="723" y="-67" on="0"/>
        <pt x="778" y="-63" on="0"/>
        <pt x="803" y="-61" on="1"/>
        <pt x="839" y="-59" on="0"/>
        <pt x="860" y="-108" on="0"/>
        <pt x="845" y="-170" on="0"/>
        <pt x="803" y="-222" on="0"/>
        <pt x="776" y="-223" on="1"/>
        <pt x="753" y="-223" on="0"/>
        <pt x="712" y="-225" on="0"/>
        <pt x="692" y="-227" on="1"/>
        <pt x="687" y="-316" on="0"/>
        <pt x="659" y="-493" on="0"/>
        <pt x="593" y="-636" on="0"/>
        <pt x="480" y="-725" on="0"/>
        <pt x="391" y="-725" on="1"/>
        <pt x="339" y="-725" on="0"/>
        <pt x="254" y="-688" on="0"/>
        <pt x="194" y="-623" on="0"/>
        <pt x="162" y="-535" on="0"/>
        <pt x="162" y="-483" on="1"/>
        <pt x="162" y="-405" on="0"/>
        <pt x="225" y="-285" on="0"/>
        <pt x="330" y="-193" on="0"/>
        <pt x="464" y="-130" on="0"/>
        <pt x="535" y="-109" on="1"/>
        <pt x="535" y="-86" on="1"/>
      </contour>
      <contour>
        <pt x="395" y="-567" on="1"/>
        <pt x="429" y="-567" on="0"/>
        <pt x="477" y="-517" on="0"/>
        <pt x="509" y="-432" on="0"/>
        <pt x="526" y="-321" on="0"/>
        <pt x="530" y="-260" on="1"/>
        <pt x="428" y="-291" on="0"/>
        <pt x="322" y="-402" on="0"/>
        <pt x="322" y="-479" on="1"/>
        <pt x="322" y="-526" on="0"/>
        <pt x="364" y="-567" on="0"/>
      </contour>
    </TTGlyph>
    <TTGlyph name="Jcircumflex" xMin="37" yMin="-725" xMax="860" yMax="1847">
      <component glyphName="J" x="0" y="0" flags="0x204"/>
      <component glyphName="circumflex" x="162" y="610" flags="0x4"/>
    </TTGlyph>
    <TTGlyph name="K" xMin="37" yMin="-330" xMax="1315" yMax="1536">
      <contour>
        <pt x="694" y="627" on="1"/>
        <pt x="793" y="647" on="0"/>
        <pt x="899" y="747" on="0"/>
        <pt x="949" y="886" on="0"/>
        <pt x="964" y="1055" on="0"/>
        <pt x="981" y="1238" on="0"/>
        <pt x="1021" y="1423" on="0"/>
        <pt x="1071" y="1509" on="1"/>
        <pt x="1074" y="1516" on="0"/>
        <pt x="1096" y="1536" on="0"/>
        <pt x="1114" y="1536" on="1"/>
        <pt x="1133" y="1536" on="0"/>
        <pt x="1176" y="1526" on="0"/>
        <pt x="1212" y="1509" on="0"/>
        <pt x="1235" y="1487" on="0"/>
        <pt x="1235" y="1475" on="1"/>
        <pt x="1235" y="1460" on="0"/>
        <pt x="1219" y="1452" on="1"/>
        <pt x="1187" y="1404" on="0"/>
        <pt x="1150" y="1287" on="0"/>
        <pt x="1128" y="1160" on="0"/>
        <pt x="1112" y="1026" on="0"/>
        <pt x="1091" y="895" on="0"/>
        <pt x="1057" y="770" on="0"/>
        <pt x="999" y="661" on="0"/>
        <pt x="908" y="573" on="0"/>
        <pt x="840" y="543" on="1"/>
        <pt x="912" y="504" on="0"/>
        <pt x="1007" y="394" on="0"/>
        <pt x="1073" y="265" on="0"/>
        <pt x="1120" y="124" on="0"/>
        <pt x="1169" y="-14" on="0"/>
        <pt x="1229" y="-143" on="0"/>
        <pt x="1276" y="-195" on="1"/>
        <pt x="1280" y="-200" on="0"/>
        <pt x="1293" y="-205" on="0"/>
        <pt x="1306" y="-210" on="0"/>
        <pt x="1315" y="-217" on="0"/>
        <pt x="1315" y="-223" on="1"/>
        <pt x="1315" y="-238" on="0"/>
        <pt x="1281" y="-275" on="0"/>
        <pt x="1234" y="-308" on="0"/>
        <pt x="1188" y="-330" on="0"/>
        <pt x="1176" y="-330" on="1"/>
        <pt x="1161" y="-330" on="0"/>
        <pt x="1149" y="-317" on="1"/>
        <pt x="1106" y="-263" on="0"/>
        <pt x="1048" y="-148" on="0"/>
        <pt x="1005" y="-30" on="0"/>
        <pt x="973" y="87" on="0"/>
        <pt x="940" y="196" on="0"/>
        <pt x="899" y="294" on="0"/>
        <pt x="839" y="375" on="0"/>
        <pt x="754" y="436" on="0"/>
        <pt x="694" y="453" on="1"/>
        <pt x="694" y="-10" on="1"/>
        <pt x="694" y="-36" on="0"/>
        <pt x="660" y="-57" on="0"/>
        <pt x="637" y="-57" on="1"/>
        <pt x="619" y="-57" on="0"/>
        <pt x="583" y="-47" on="0"/>
        <pt x="554" y="-31" on="0"/>
        <pt x="535" y="-10" on="0"/>
        <pt x="535" y="2" on="1"/>
        <pt x="535" y="1274" on="1"/>
        <pt x="466" y="1265" on="0"/>
        <pt x="343" y="1205" on="0"/>
        <pt x="252" y="1101" on="0"/>
        <pt x="199" y="953" on="0"/>
        <pt x="199" y="856" on="1"/>
        <pt x="199" y="794" on="0"/>
        <pt x="225" y="695" on="0"/>
        <pt x="261" y="626" on="0"/>
        <pt x="297" y="588" on="0"/>
        <pt x="307" y="588" on="1"/>
        <pt x="316" y="588" on="0"/>
        <pt x="332" y="596" on="0"/>
        <pt x="340" y="596" on="1"/>
        <pt x="356" y="596" on="0"/>
        <pt x="356" y="571" on="1"/>
        <pt x="356" y="539" on="0"/>
        <pt x="327" y="480" on="0"/>
        <pt x="283" y="443" on="0"/>
        <pt x="231" y="433" on="0"/>
        <pt x="209" y="449" on="1"/>
        <pt x="182" y="467" on="0"/>
        <pt x="121" y="541" on="0"/>
        <pt x="70" y="646" on="0"/>
        <pt x="37" y="778" on="0"/>
        <pt x="37" y="856" on="1"/>
        <pt x="37" y="964" on="0"/>
        <pt x="89" y="1135" on="0"/>
        <pt x="176" y="1263" on="0"/>
        <pt x="292" y="1353" on="0"/>
        <pt x="420" y="1409" on="0"/>
        <pt x="552" y="1434" on="0"/>
        <pt x="612" y="1434" on="1"/>
        <pt x="628" y="1434" on="0"/>
        <pt x="658" y="1421" on="0"/>
        <pt x="680" y="1398" on="0"/>
        <pt x="694" y="1366" on="0"/>
        <pt x="694" y="1348" on="1"/>
      </contour>
    </TTGlyph>
    <TTGlyph name="Kcommaaccent" xMin="37" yMin="-459" xMax="1315" yMax="1536">
      <component glyphName="K" x="0" y="0" flags="0x204"/>
      <component glyphName="commaaccent" x="395" y="-15" flags="0x4"/>
    </TTGlyph>
    <TTGlyph name="L" xMin="39" yMin="-76" xMax="1030" yMax="1454">
      <contour>
        <pt x="766" y="-76" on="1"/>
        <pt x="721" y="-76" on="0"/>
        <pt x="639" y="-46" on="0"/>
        <pt x="566" y="3" on="0"/>
        <pt x="498" y="64" on="0"/>
        <pt x="467" y="96" on="1"/>
        <pt x="452" y="64" on="0"/>
        <pt x="411" y="9" on="0"/>
        <pt x="357" y="-33" on="0"/>
        <pt x="291" y="-57" on="0"/>
        <pt x="252" y="-57" on="1"/>
        <pt x="201" y="-57" on="0"/>
        <pt x="122" y="-22" on="0"/>
        <pt x="68" y="36" on="0"/>
        <pt x="39" y="112" on="0"/>
        <pt x="39" y="154" on="1"/>
        <pt x="39" y="204" on="0"/>
        <pt x="77" y="287" on="0"/>
        <pt x="142" y="346" on="0"/>
        <pt x="226" y="379" on="0"/>
        <pt x="272" y="379" on="1"/>
        <pt x="289" y="379" on="0"/>
        <pt x="322" y="374" on="0"/>
        <pt x="338" y="369" on="1"/>
        <pt x="320" y="435" on="0"/>
        <pt x="264" y="560" on="0"/>
        <pt x="211" y="690" on="0"/>
        <pt x="172" y="834" on="0"/>
        <pt x="172" y="920" on="1"/>
        <pt x="172" y="986" on="0"/>
        <pt x="204" y="1116" on="0"/>
        <pt x="263" y="1235" on="0"/>
        <pt x="349" y="1337" on="0"/>
        <pt x="457" y="1412" on="0"/>
        <pt x="586" y="1454" on="0"/>
        <pt x="659" y="1454" on="1"/>
        <pt x="728" y="1454" on="0"/>
        <pt x="840" y="1412" on="0"/>
        <pt x="921" y="1339" on="0"/>
        <pt x="965" y="1238" on="0"/>
        <pt x="965" y="1178" on="1"/>
        <pt x="965" y="1118" on="0"/>
        <pt x="929" y="1008" on="0"/>
        <pt x="867" y="912" on="0"/>
        <pt x="785" y="834" on="0"/>
        <pt x="693" y="778" on="0"/>
        <pt x="597" y="748" on="0"/>
        <pt x="553" y="748" on="1"/>
        <pt x="532" y="748" on="0"/>
        <pt x="495" y="762" on="0"/>
        <pt x="466" y="790" on="0"/>
        <pt x="449" y="834" on="0"/>
        <pt x="449" y="864" on="1"/>
        <pt x="449" y="891" on="0"/>
        <pt x="465" y="891" on="1"/>
        <pt x="470" y="891" on="0"/>
        <pt x="487" y="877" on="0"/>
        <pt x="504" y="877" on="1"/>
        <pt x="555" y="877" on="0"/>
        <pt x="661" y="927" on="0"/>
        <pt x="748" y="1006" on="0"/>
        <pt x="803" y="1103" on="0"/>
        <pt x="803" y="1149" on="1"/>
        <pt x="803" y="1179" on="0"/>
        <pt x="785" y="1232" on="0"/>
        <pt x="748" y="1273" on="0"/>
        <pt x="692" y="1296" on="0"/>
        <pt x="653" y="1296" on="1"/>
        <pt x="582" y="1296" on="0"/>
        <pt x="466" y="1233" on="0"/>
        <pt x="382" y="1128" on="0"/>
        <pt x="336" y="989" on="0"/>
        <pt x="336" y="913" on="1"/>
        <pt x="336" y="860" on="0"/>
        <pt x="360" y="757" on="0"/>
        <pt x="396" y="656" on="0"/>
        <pt x="439" y="553" on="0"/>
        <pt x="476" y="444" on="0"/>
        <pt x="502" y="329" on="0"/>
        <pt x="504" y="266" on="1"/>
        <pt x="537" y="234" on="0"/>
        <pt x="598" y="170" on="0"/>
        <pt x="658" y="117" on="0"/>
        <pt x="718" y="84" on="0"/>
        <pt x="750" y="84" on="1"/>
        <pt x="793" y="84" on="0"/>
        <pt x="849" y="122" on="0"/>
        <pt x="883" y="179" on="0"/>
        <pt x="897" y="245" on="0"/>
        <pt x="897" y="272" on="1"/>
        <pt x="897" y="286" on="0"/>
        <pt x="893" y="303" on="0"/>
        <pt x="893" y="309" on="1"/>
        <pt x="893" y="324" on="0"/>
        <pt x="918" y="324" on="1"/>
        <pt x="972" y="324" on="0"/>
        <pt x="1030" y="269" on="0"/>
        <pt x="1030" y="231" on="1"/>
        <pt x="1030" y="171" on="0"/>
        <pt x="992" y="61" on="0"/>
        <pt x="923" y="-25" on="0"/>
        <pt x="825" y="-76" on="0"/>
      </contour>
      <contour>
        <pt x="258" y="238" on="1"/>
        <pt x="227" y="238" on="0"/>
        <pt x="184" y="196" on="0"/>
        <pt x="184" y="162" on="1"/>
        <pt x="184" y="133" on="0"/>
        <pt x="221" y="86" on="0"/>
        <pt x="256" y="86" on="1"/>
        <pt x="277" y="86" on="0"/>
        <pt x="310" y="105" on="0"/>
        <pt x="334" y="137" on="0"/>
        <pt x="349" y="178" on="0"/>
        <pt x="352" y="201" on="1"/>
        <pt x="329" y="218" on="0"/>
        <pt x="283" y="238" on="0"/>
      </contour>
    </TTGlyph>
    <TTGlyph name="Lacute" xMin="39" yMin="-76" xMax="1030" yMax="1868">
      <component glyphName="L" x="0" y="0" flags="0x204"/>
      <component glyphName="acute" x="276" y="631" flags="0x4"/>
    </TTGlyph>
    <TTGlyph name="Lcaron" xMin="39" yMin="-76" xMax="1243" yMax="1454">
      <component glyphName="L" x="0" y="0" flags="0x4"/>
      <component glyphName="commaaccent" x="711" y="1468" flags="0x4"/>
    </TTGlyph>
    <TTGlyph name="Lcommaaccent" xMin="39" yMin="-444" xMax="1030" yMax="1454">
      <component glyphName="L" x="0" y="0" flags="0x204"/>
      <component glyphName="commaaccent" x="82" y="0" flags="0x4"/>
    </TTGlyph>
    <TTGlyph name="Ldot" xMin="39" yMin="-76" xMax="1030" yMax="1454">
      <component glyphName="L" x="0" y="0" flags="0x204"/>
      <component glyphName="periodcentered" x="608" y="-81" flags="0x4"/>
    </TTGlyph>
    <TTGlyph name="Lslash" xMin="39" yMin="-76" xMax="1030" yMax="1454">
      <contour>
        <pt x="766" y="-76" on="1"/>
        <pt x="721" y="-76" on="0"/>
        <pt x="639" y="-46" on="0"/>
        <pt x="566" y="3" on="0"/>
        <pt x="498" y="64" on="0"/>
        <pt x="467" y="96" on="1"/>
        <pt x="452" y="64" on="0"/>
        <pt x="411" y="9" on="0"/>
        <pt x="357" y="-33" on="0"/>
        <pt x="291" y="-57" on="0"/>
        <pt x="252" y="-57" on="1"/>
        <pt x="201" y="-57" on="0"/>
        <pt x="122" y="-22" on="0"/>
        <pt x="68" y="36" on="0"/>
        <pt x="39" y="112" on="0"/>
        <pt x="39" y="154" on="1"/>
        <pt x="39" y="204" on="0"/>
        <pt x="77" y="287" on="0"/>
        <pt x="142" y="346" on="0"/>
        <pt x="226" y="379" on="0"/>
        <pt x="272" y="379" on="1"/>
        <pt x="289" y="379" on="0"/>
        <pt x="322" y="374" on="0"/>
        <pt x="338" y="369" on="1"/>
        <pt x="330" y="395" on="0"/>
        <pt x="312" y="447" on="0"/>
        <pt x="301" y="473" on="1"/>
        <pt x="141" y="428" on="1"/>
        <pt x="135" y="426" on="0"/>
        <pt x="124" y="424" on="0"/>
        <pt x="119" y="424" on="1"/>
        <pt x="93" y="424" on="0"/>
        <pt x="72" y="466" on="0"/>
        <pt x="72" y="489" on="1"/>
        <pt x="72" y="536" on="0"/>
        <pt x="125" y="551" on="1"/>
        <pt x="252" y="586" on="1"/>
        <pt x="237" y="623" on="0"/>
        <pt x="208" y="699" on="0"/>
        <pt x="185" y="781" on="0"/>
        <pt x="172" y="870" on="0"/>
        <pt x="172" y="920" on="1"/>
        <pt x="172" y="986" on="0"/>
        <pt x="204" y="1116" on="0"/>
        <pt x="263" y="1235" on="0"/>
        <pt x="349" y="1337" on="0"/>
        <pt x="457" y="1412" on="0"/>
        <pt x="586" y="1454" on="0"/>
        <pt x="659" y="1454" on="1"/>
        <pt x="728" y="1454" on="0"/>
        <pt x="840" y="1412" on="0"/>
        <pt x="921" y="1339" on="0"/>
        <pt x="965" y="1238" on="0"/>
        <pt x="965" y="1178" on="1"/>
        <pt x="965" y="1118" on="0"/>
        <pt x="929" y="1008" on="0"/>
        <pt x="867" y="912" on="0"/>
        <pt x="785" y="834" on="0"/>
        <pt x="693" y="778" on="0"/>
        <pt x="597" y="748" on="0"/>
        <pt x="553" y="748" on="1"/>
        <pt x="532" y="748" on="0"/>
        <pt x="495" y="762" on="0"/>
        <pt x="466" y="790" on="0"/>
        <pt x="449" y="834" on="0"/>
        <pt x="449" y="864" on="1"/>
        <pt x="449" y="891" on="0"/>
        <pt x="465" y="891" on="1"/>
        <pt x="470" y="891" on="0"/>
        <pt x="487" y="877" on="0"/>
        <pt x="504" y="877" on="1"/>
        <pt x="555" y="877" on="0"/>
        <pt x="661" y="927" on="0"/>
        <pt x="748" y="1006" on="0"/>
        <pt x="803" y="1103" on="0"/>
        <pt x="803" y="1149" on="1"/>
        <pt x="803" y="1179" on="0"/>
        <pt x="785" y="1232" on="0"/>
        <pt x="748" y="1273" on="0"/>
        <pt x="692" y="1296" on="0"/>
        <pt x="653" y="1296" on="1"/>
        <pt x="582" y="1296" on="0"/>
        <pt x="466" y="1233" on="0"/>
        <pt x="382" y="1128" on="0"/>
        <pt x="336" y="989" on="0"/>
        <pt x="336" y="913" on="1"/>
        <pt x="336" y="839" on="0"/>
        <pt x="379" y="702" on="0"/>
        <pt x="408" y="631" on="1"/>
        <pt x="596" y="684" on="1"/>
        <pt x="608" y="690" on="0"/>
        <pt x="618" y="690" on="1"/>
        <pt x="635" y="690" on="0"/>
        <pt x="659" y="654" on="0"/>
        <pt x="659" y="623" on="1"/>
        <pt x="659" y="600" on="0"/>
        <pt x="636" y="561" on="0"/>
        <pt x="614" y="561" on="1"/>
        <pt x="451" y="514" on="1"/>
        <pt x="472" y="457" on="0"/>
        <pt x="502" y="334" on="0"/>
        <pt x="504" y="266" on="1"/>
        <pt x="537" y="234" on="0"/>
        <pt x="598" y="170" on="0"/>
        <pt x="658" y="117" on="0"/>
        <pt x="718" y="84" on="0"/>
        <pt x="750" y="84" on="1"/>
        <pt x="793" y="84" on="0"/>
        <pt x="849" y="122" on="0"/>
        <pt x="883" y="179" on="0"/>
        <pt x="897" y="245" on="0"/>
        <pt x="897" y="272" on="1"/>
        <pt x="897" y="286" on="0"/>
        <pt x="893" y="303" on="0"/>
        <pt x="893" y="309" on="1"/>
        <pt x="893" y="324" on="0"/>
        <pt x="918" y="324" on="1"/>
        <pt x="972" y="324" on="0"/>
        <pt x="1030" y="269" on="0"/>
        <pt x="1030" y="231" on="1"/>
        <pt x="1030" y="171" on="0"/>
        <pt x="992" y="61" on="0"/>
        <pt x="923" y="-25" on="0"/>
        <pt x="825" y="-76" on="0"/>
      </contour>
      <contour>
        <pt x="256" y="86" on="1"/>
        <pt x="277" y="86" on="0"/>
        <pt x="310" y="105" on="0"/>
        <pt x="334" y="137" on="0"/>
        <pt x="349" y="178" on="0"/>
        <pt x="352" y="201" on="1"/>
        <pt x="329" y="218" on="0"/>
        <pt x="283" y="238" on="0"/>
        <pt x="258" y="238" on="1"/>
        <pt x="227" y="238" on="0"/>
        <pt x="184" y="196" on="0"/>
        <pt x="184" y="162" on="1"/>
        <pt x="184" y="133" on="0"/>
        <pt x="221" y="86" on="0"/>
      </contour>
    </TTGlyph>
    <TTGlyph name="M" xMin="14" yMin="-58" xMax="1099" yMax="1434">
      <contour>
        <pt x="1087" y="39" on="1"/>
        <pt x="1099" y="31" on="0"/>
        <pt x="1085" y="-1" on="0"/>
        <pt x="1047" y="-34" on="0"/>
        <pt x="995" y="-58" on="0"/>
        <pt x="969" y="-57" on="1"/>
        <pt x="944" y="-56" on="0"/>
        <pt x="896" y="-28" on="0"/>
        <pt x="859" y="31" on="0"/>
        <pt x="836" y="119" on="0"/>
        <pt x="836" y="180" on="1"/>
        <pt x="836" y="1128" on="1"/>
        <pt x="836" y="1186" on="0"/>
        <pt x="813" y="1250" on="0"/>
        <pt x="782" y="1279" on="0"/>
        <pt x="749" y="1284" on="0"/>
        <pt x="739" y="1284" on="1"/>
        <pt x="728" y="1284" on="0"/>
        <pt x="694" y="1278" on="0"/>
        <pt x="663" y="1245" on="0"/>
        <pt x="641" y="1174" on="0"/>
        <pt x="641" y="1108" on="1"/>
        <pt x="641" y="2" on="1"/>
        <pt x="644" y="2" on="0"/>
        <pt x="651" y="-5" on="0"/>
        <pt x="651" y="-8" on="1"/>
        <pt x="651" y="-16" on="0"/>
        <pt x="628" y="-33" on="0"/>
        <pt x="594" y="-48" on="0"/>
        <pt x="551" y="-57" on="0"/>
        <pt x="532" y="-57" on="1"/>
        <pt x="512" y="-57" on="0"/>
        <pt x="481" y="-47" on="0"/>
        <pt x="481" y="-18" on="1"/>
        <pt x="481" y="1128" on="1"/>
        <pt x="481" y="1186" on="0"/>
        <pt x="460" y="1250" on="0"/>
        <pt x="430" y="1279" on="0"/>
        <pt x="397" y="1284" on="0"/>
        <pt x="385" y="1284" on="1"/>
        <pt x="375" y="1284" on="0"/>
        <pt x="342" y="1279" on="0"/>
        <pt x="310" y="1250" on="0"/>
        <pt x="287" y="1186" on="0"/>
        <pt x="287" y="1128" on="1"/>
        <pt x="287" y="221" on="1"/>
        <pt x="287" y="85" on="0"/>
        <pt x="197" y="-57" on="0"/>
        <pt x="111" y="-57" on="1"/>
        <pt x="82" y="-57" on="0"/>
        <pt x="45" y="-37" on="0"/>
        <pt x="23" y="-7" on="0"/>
        <pt x="14" y="27" on="0"/>
        <pt x="14" y="41" on="1"/>
        <pt x="14" y="48" on="0"/>
        <pt x="23" y="52" on="0"/>
        <pt x="39" y="52" on="0"/>
        <pt x="59" y="53" on="0"/>
        <pt x="70" y="57" on="1"/>
        <pt x="80" y="61" on="0"/>
        <pt x="101" y="85" on="0"/>
        <pt x="117" y="131" on="0"/>
        <pt x="127" y="201" on="0"/>
        <pt x="127" y="252" on="1"/>
        <pt x="127" y="1108" on="1"/>
        <pt x="127" y="1198" on="0"/>
        <pt x="172" y="1322" on="0"/>
        <pt x="244" y="1400" on="0"/>
        <pt x="335" y="1434" on="0"/>
        <pt x="381" y="1434" on="1"/>
        <pt x="394" y="1434" on="0"/>
        <pt x="438" y="1429" on="0"/>
        <pt x="491" y="1411" on="0"/>
        <pt x="545" y="1378" on="0"/>
        <pt x="569" y="1350" on="1"/>
        <pt x="588" y="1378" on="0"/>
        <pt x="634" y="1411" on="0"/>
        <pt x="679" y="1429" on="0"/>
        <pt x="720" y="1434" on="0"/>
        <pt x="735" y="1434" on="1"/>
        <pt x="783" y="1434" on="0"/>
        <pt x="876" y="1400" on="0"/>
        <pt x="949" y="1322" on="0"/>
        <pt x="995" y="1198" on="0"/>
        <pt x="995" y="1108" on="1"/>
        <pt x="995" y="197" on="1"/>
        <pt x="995" y="165" on="0"/>
        <pt x="1010" y="114" on="0"/>
        <pt x="1035" y="75" on="0"/>
        <pt x="1069" y="48" on="0"/>
      </contour>
    </TTGlyph>
    <TTGlyph name="N" xMin="37" yMin="-193" xMax="1243" yMax="1434">
      <contour>
        <pt x="694" y="1180" on="1"/>
        <pt x="725" y="1233" on="0"/>
        <pt x="796" y="1325" on="0"/>
        <pt x="876" y="1394" on="0"/>
        <pt x="961" y="1434" on="0"/>
        <pt x="1006" y="1434" on="1"/>
        <pt x="1027" y="1434" on="0"/>
        <pt x="1076" y="1416" on="0"/>
        <pt x="1118" y="1375" on="0"/>
        <pt x="1145" y="1306" on="0"/>
        <pt x="1145" y="1255" on="1"/>
        <pt x="1145" y="61" on="1"/>
        <pt x="1145" y="23" on="0"/>
        <pt x="1160" y="-28" on="0"/>
        <pt x="1181" y="-62" on="0"/>
        <pt x="1207" y="-82" on="0"/>
        <pt x="1228" y="-98" on="0"/>
        <pt x="1243" y="-112" on="0"/>
        <pt x="1243" y="-123" on="1"/>
        <pt x="1243" y="-135" on="0"/>
        <pt x="1228" y="-159" on="0"/>
        <pt x="1201" y="-180" on="0"/>
        <pt x="1163" y="-193" on="0"/>
        <pt x="1139" y="-193" on="1"/>
        <pt x="1116" y="-193" on="0"/>
        <pt x="1063" y="-173" on="0"/>
        <pt x="1017" y="-122" on="0"/>
        <pt x="986" y="-38" on="0"/>
        <pt x="985" y="27" on="1"/>
        <pt x="985" y="1243" on="1"/>
        <pt x="985" y="1263" on="0"/>
        <pt x="973" y="1272" on="0"/>
        <pt x="967" y="1272" on="1"/>
        <pt x="951" y="1272" on="0"/>
        <pt x="899" y="1223" on="0"/>
        <pt x="838" y="1143" on="0"/>
        <pt x="776" y="1040" on="0"/>
        <pt x="726" y="930" on="0"/>
        <pt x="694" y="823" on="0"/>
        <pt x="694" y="780" on="1"/>
        <pt x="694" y="-10" on="1"/>
        <pt x="694" y="-36" on="0"/>
        <pt x="660" y="-57" on="0"/>
        <pt x="637" y="-57" on="1"/>
        <pt x="619" y="-57" on="0"/>
        <pt x="583" y="-47" on="0"/>
        <pt x="554" y="-31" on="0"/>
        <pt x="535" y="-10" on="0"/>
        <pt x="535" y="2" on="1"/>
        <pt x="535" y="1274" on="1"/>
        <pt x="466" y="1265" on="0"/>
        <pt x="343" y="1205" on="0"/>
        <pt x="252" y="1101" on="0"/>
        <pt x="199" y="953" on="0"/>
        <pt x="199" y="856" on="1"/>
        <pt x="199" y="794" on="0"/>
        <pt x="225" y="695" on="0"/>
        <pt x="261" y="626" on="0"/>
        <pt x="297" y="588" on="0"/>
        <pt x="307" y="588" on="1"/>
        <pt x="316" y="588" on="0"/>
        <pt x="332" y="596" on="0"/>
        <pt x="340" y="596" on="1"/>
        <pt x="356" y="596" on="0"/>
        <pt x="356" y="571" on="1"/>
        <pt x="356" y="545" on="0"/>
        <pt x="337" y="496" on="0"/>
        <pt x="305" y="459" on="0"/>
        <pt x="266" y="436" on="0"/>
        <pt x="246" y="436" on="1"/>
        <pt x="220" y="436" on="0"/>
        <pt x="148" y="500" on="0"/>
        <pt x="83" y="612" on="0"/>
        <pt x="37" y="766" on="0"/>
        <pt x="37" y="856" on="1"/>
        <pt x="37" y="964" on="0"/>
        <pt x="89" y="1135" on="0"/>
        <pt x="176" y="1263" on="0"/>
        <pt x="292" y="1353" on="0"/>
        <pt x="420" y="1409" on="0"/>
        <pt x="552" y="1434" on="0"/>
        <pt x="612" y="1434" on="1"/>
        <pt x="628" y="1434" on="0"/>
        <pt x="658" y="1421" on="0"/>
        <pt x="680" y="1398" on="0"/>
        <pt x="694" y="1366" on="0"/>
        <pt x="694" y="1348" on="1"/>
      </contour>
    </TTGlyph>
    <TTGlyph name="Nacute" xMin="37" yMin="-193" xMax="1243" yMax="1847">
      <component glyphName="N" x="0" y="0" flags="0x204"/>
      <component glyphName="acute" x="424" y="610" flags="0x4"/>
    </TTGlyph>
    <TTGlyph name="Ncaron" xMin="37" yMin="-193" xMax="1243" yMax="1847">
      <component glyphName="N" x="0" y="0" flags="0x204"/>
      <component glyphName="caron" x="385" y="610" flags="0x4"/>
    </TTGlyph>
    <TTGlyph name="Ncommaaccent" xMin="37" yMin="-444" xMax="1243" yMax="1434">
      <component glyphName="N" x="0" y="0" flags="0x204"/>
      <component glyphName="commaaccent" x="406" y="0" flags="0x4"/>
    </TTGlyph>
    <TTGlyph name="Ntilde" xMin="37" yMin="-193" xMax="1243" yMax="1784">
      <component glyphName="N" x="0" y="0" flags="0x204"/>
      <component glyphName="tilde" x="391" y="610" flags="0x4"/>
    </TTGlyph>
    <TTGlyph name="O" xMin="41" yMin="-57" xMax="1063" yMax="1477">
      <contour>
        <pt x="801" y="696" on="1"/>
        <pt x="801" y="756" on="0"/>
        <pt x="795" y="821" on="1"/>
        <pt x="756" y="821" on="1"/>
        <pt x="692" y="821" on="0"/>
        <pt x="580" y="857" on="0"/>
        <pt x="497" y="925" on="0"/>
        <pt x="449" y="1020" on="0"/>
        <pt x="449" y="1079" on="1"/>
        <pt x="449" y="1119" on="0"/>
        <pt x="476" y="1190" on="0"/>
        <pt x="525" y="1243" on="0"/>
        <pt x="593" y="1274" on="0"/>
        <pt x="635" y="1274" on="1"/>
        <pt x="691" y="1274" on="0"/>
        <pt x="780" y="1232" on="0"/>
        <pt x="848" y="1161" on="0"/>
        <pt x="898" y="1066" on="0"/>
        <pt x="915" y="1012" on="1"/>
        <pt x="931" y="1021" on="0"/>
        <pt x="959" y="1047" on="0"/>
        <pt x="973" y="1063" on="1"/>
        <pt x="982" y="1090" on="0"/>
        <pt x="997" y="1090" on="1"/>
        <pt x="1008" y="1090" on="0"/>
        <pt x="1031" y="1071" on="0"/>
        <pt x="1051" y="1039" on="0"/>
        <pt x="1063" y="1000" on="0"/>
        <pt x="1063" y="979" on="1"/>
        <pt x="1063" y="941" on="0"/>
        <pt x="999" y="880" on="0"/>
        <pt x="948" y="858" on="1"/>
        <pt x="954" y="815" on="0"/>
        <pt x="961" y="733" on="0"/>
        <pt x="961" y="696" on="1"/>
        <pt x="961" y="502" on="0"/>
        <pt x="883" y="218" on="0"/>
        <pt x="753" y="33" on="0"/>
        <pt x="586" y="-57" on="0"/>
        <pt x="496" y="-57" on="1"/>
        <pt x="384" y="-57" on="0"/>
        <pt x="214" y="48" on="0"/>
        <pt x="99" y="230" on="0"/>
        <pt x="41" y="473" on="0"/>
        <pt x="41" y="610" on="1"/>
        <pt x="41" y="784" on="0"/>
        <pt x="102" y="1047" on="0"/>
        <pt x="195" y="1237" on="0"/>
        <pt x="305" y="1363" on="0"/>
        <pt x="400" y="1439" on="0"/>
        <pt x="467" y="1471" on="0"/>
        <pt x="471" y="1473" on="1"/>
        <pt x="476" y="1475" on="0"/>
        <pt x="487" y="1477" on="0"/>
        <pt x="494" y="1477" on="1"/>
        <pt x="511" y="1477" on="0"/>
        <pt x="537" y="1456" on="0"/>
        <pt x="555" y="1425" on="0"/>
        <pt x="565" y="1387" on="0"/>
        <pt x="565" y="1370" on="1"/>
        <pt x="565" y="1350" on="0"/>
        <pt x="553" y="1323" on="0"/>
        <pt x="539" y="1323" on="1"/>
        <pt x="532" y="1323" on="0"/>
        <pt x="528" y="1325" on="1"/>
        <pt x="510" y="1315" on="0"/>
        <pt x="449" y="1277" on="0"/>
        <pt x="377" y="1210" on="0"/>
        <pt x="303" y="1108" on="0"/>
        <pt x="243" y="961" on="0"/>
        <pt x="205" y="762" on="0"/>
        <pt x="205" y="631" on="1"/>
        <pt x="205" y="492" on="0"/>
        <pt x="257" y="290" on="0"/>
        <pt x="341" y="159" on="0"/>
        <pt x="447" y="96" on="0"/>
        <pt x="502" y="96" on="1"/>
        <pt x="566" y="96" on="0"/>
        <pt x="675" y="176" on="0"/>
        <pt x="754" y="329" on="0"/>
        <pt x="800" y="552" on="0"/>
      </contour>
      <contour>
        <pt x="774" y="963" on="1"/>
        <pt x="766" y="998" on="0"/>
        <pt x="744" y="1058" on="0"/>
        <pt x="712" y="1101" on="0"/>
        <pt x="673" y="1126" on="0"/>
        <pt x="649" y="1126" on="1"/>
        <pt x="618" y="1126" on="0"/>
        <pt x="598" y="1092" on="0"/>
        <pt x="598" y="1075" on="1"/>
        <pt x="598" y="1057" on="0"/>
        <pt x="615" y="1017" on="0"/>
        <pt x="652" y="984" on="0"/>
        <pt x="710" y="963" on="0"/>
        <pt x="750" y="963" on="1"/>
      </contour>
    </TTGlyph>
    <TTGlyph name="OE" xMin="41" yMin="-88" xMax="1706" yMax="1477">
      <contour>
        <pt x="1649" y="147" on="1"/>
        <pt x="1636" y="125" on="0"/>
        <pt x="1573" y="46" on="0"/>
        <pt x="1469" y="-31" on="0"/>
        <pt x="1321" y="-88" on="0"/>
        <pt x="1223" y="-88" on="1"/>
        <pt x="1154" y="-88" on="0"/>
        <pt x="1031" y="-50" on="0"/>
        <pt x="935" y="24" on="0"/>
        <pt x="872" y="133" on="0"/>
        <pt x="864" y="203" on="1"/>
        <pt x="831" y="136" on="0"/>
        <pt x="748" y="38" on="0"/>
        <pt x="653" y="-26" on="0"/>
        <pt x="550" y="-57" on="0"/>
        <pt x="496" y="-57" on="1"/>
        <pt x="384" y="-57" on="0"/>
        <pt x="214" y="48" on="0"/>
        <pt x="99" y="230" on="0"/>
        <pt x="41" y="473" on="0"/>
        <pt x="41" y="610" on="1"/>
        <pt x="41" y="784" on="0"/>
        <pt x="102" y="1047" on="0"/>
        <pt x="195" y="1237" on="0"/>
        <pt x="305" y="1363" on="0"/>
        <pt x="400" y="1439" on="0"/>
        <pt x="467" y="1471" on="0"/>
        <pt x="471" y="1473" on="1"/>
        <pt x="476" y="1475" on="0"/>
        <pt x="487" y="1477" on="0"/>
        <pt x="494" y="1477" on="1"/>
        <pt x="511" y="1477" on="0"/>
        <pt x="537" y="1456" on="0"/>
        <pt x="555" y="1425" on="0"/>
        <pt x="565" y="1387" on="0"/>
        <pt x="565" y="1370" on="1"/>
        <pt x="565" y="1350" on="0"/>
        <pt x="553" y="1323" on="0"/>
        <pt x="539" y="1323" on="1"/>
        <pt x="532" y="1323" on="0"/>
        <pt x="528" y="1325" on="1"/>
        <pt x="510" y="1315" on="0"/>
        <pt x="449" y="1277" on="0"/>
        <pt x="377" y="1210" on="0"/>
        <pt x="303" y="1108" on="0"/>
        <pt x="243" y="961" on="0"/>
        <pt x="205" y="762" on="0"/>
        <pt x="205" y="631" on="1"/>
        <pt x="205" y="492" on="0"/>
        <pt x="257" y="290" on="0"/>
        <pt x="341" y="159" on="0"/>
        <pt x="447" y="96" on="0"/>
        <pt x="502" y="96" on="1"/>
        <pt x="566" y="96" on="0"/>
        <pt x="675" y="176" on="0"/>
        <pt x="754" y="329" on="0"/>
        <pt x="800" y="552" on="0"/>
        <pt x="801" y="696" on="1"/>
        <pt x="801" y="756" on="0"/>
        <pt x="795" y="821" on="1"/>
        <pt x="756" y="821" on="1"/>
        <pt x="692" y="821" on="0"/>
        <pt x="580" y="857" on="0"/>
        <pt x="497" y="925" on="0"/>
        <pt x="449" y="1020" on="0"/>
        <pt x="449" y="1079" on="1"/>
        <pt x="449" y="1119" on="0"/>
        <pt x="476" y="1190" on="0"/>
        <pt x="525" y="1243" on="0"/>
        <pt x="593" y="1274" on="0"/>
        <pt x="635" y="1274" on="1"/>
        <pt x="691" y="1274" on="0"/>
        <pt x="780" y="1232" on="0"/>
        <pt x="848" y="1160" on="0"/>
        <pt x="898" y="1066" on="0"/>
        <pt x="915" y="1014" on="1"/>
        <pt x="934" y="1101" on="0"/>
        <pt x="1024" y="1265" on="0"/>
        <pt x="1153" y="1392" on="0"/>
        <pt x="1319" y="1468" on="0"/>
        <pt x="1415" y="1468" on="1"/>
        <pt x="1486" y="1468" on="0"/>
        <pt x="1595" y="1426" on="0"/>
        <pt x="1668" y="1353" on="0"/>
        <pt x="1706" y="1254" on="0"/>
        <pt x="1706" y="1198" on="1"/>
        <pt x="1706" y="1118" on="0"/>
        <pt x="1645" y="966" on="0"/>
        <pt x="1541" y="847" on="0"/>
        <pt x="1403" y="774" on="0"/>
        <pt x="1327" y="774" on="1"/>
        <pt x="1308" y="774" on="0"/>
        <pt x="1268" y="784" on="0"/>
        <pt x="1235" y="807" on="0"/>
        <pt x="1214" y="845" on="0"/>
        <pt x="1214" y="872" on="1"/>
        <pt x="1214" y="883" on="0"/>
        <pt x="1217" y="909" on="0"/>
        <pt x="1223" y="931" on="0"/>
        <pt x="1232" y="946" on="0"/>
        <pt x="1237" y="946" on="1"/>
        <pt x="1242" y="946" on="0"/>
        <pt x="1251" y="940" on="0"/>
        <pt x="1266" y="932" on="0"/>
        <pt x="1292" y="926" on="0"/>
        <pt x="1315" y="926" on="1"/>
        <pt x="1366" y="926" on="0"/>
        <pt x="1450" y="975" on="0"/>
        <pt x="1510" y="1053" on="0"/>
        <pt x="1544" y="1151" on="0"/>
        <pt x="1544" y="1200" on="1"/>
        <pt x="1544" y="1256" on="0"/>
        <pt x="1472" y="1311" on="0"/>
        <pt x="1415" y="1311" on="1"/>
        <pt x="1338" y="1311" on="0"/>
        <pt x="1200" y="1238" on="0"/>
        <pt x="1095" y="1121" on="0"/>
        <pt x="1034" y="975" on="0"/>
        <pt x="1034" y="901" on="1"/>
        <pt x="1034" y="844" on="0"/>
        <pt x="1073" y="746" on="0"/>
        <pt x="1134" y="673" on="0"/>
        <pt x="1207" y="630" on="0"/>
        <pt x="1241" y="627" on="1"/>
        <pt x="1246" y="629" on="0"/>
        <pt x="1255" y="629" on="0"/>
        <pt x="1260" y="629" on="1"/>
        <pt x="1278" y="629" on="0"/>
        <pt x="1294" y="600" on="0"/>
        <pt x="1294" y="580" on="1"/>
        <pt x="1294" y="563" on="0"/>
        <pt x="1286" y="526" on="0"/>
        <pt x="1272" y="495" on="0"/>
        <pt x="1254" y="474" on="0"/>
        <pt x="1245" y="473" on="1"/>
        <pt x="1213" y="469" on="0"/>
        <pt x="1136" y="445" on="0"/>
        <pt x="1070" y="394" on="0"/>
        <pt x="1026" y="313" on="0"/>
        <pt x="1026" y="252" on="1"/>
        <pt x="1026" y="213" on="0"/>
        <pt x="1056" y="147" on="0"/>
        <pt x="1110" y="100" on="0"/>
        <pt x="1184" y="74" on="0"/>
        <pt x="1227" y="74" on="1"/>
        <pt x="1291" y="74" on="0"/>
        <pt x="1394" y="110" on="0"/>
        <pt x="1470" y="162" on="0"/>
        <pt x="1518" y="220" on="0"/>
        <pt x="1528" y="242" on="1"/>
        <pt x="1536" y="260" on="0"/>
        <pt x="1558" y="276" on="0"/>
        <pt x="1571" y="276" on="1"/>
        <pt x="1586" y="276" on="0"/>
        <pt x="1616" y="258" on="0"/>
        <pt x="1640" y="229" on="0"/>
        <pt x="1655" y="194" on="0"/>
        <pt x="1655" y="176" on="1"/>
        <pt x="1655" y="160" on="0"/>
      </contour>
      <contour>
        <pt x="750" y="963" on="1"/>
        <pt x="756" y="963" on="0"/>
        <pt x="768" y="961" on="0"/>
        <pt x="774" y="963" on="1"/>
        <pt x="766" y="997" on="0"/>
        <pt x="744" y="1057" on="0"/>
        <pt x="713" y="1101" on="0"/>
        <pt x="674" y="1126" on="0"/>
        <pt x="649" y="1126" on="1"/>
        <pt x="618" y="1126" on="0"/>
        <pt x="598" y="1092" on="0"/>
        <pt x="598" y="1075" on="1"/>
        <pt x="598" y="1057" on="0"/>
        <pt x="615" y="1017" on="0"/>
        <pt x="652" y="984" on="0"/>
        <pt x="710" y="963" on="0"/>
      </contour>
      <contour>
        <pt x="958" y="643" on="1"/>
        <pt x="956" y="598" on="0"/>
        <pt x="950" y="513" on="0"/>
        <pt x="944" y="475" on="1"/>
        <pt x="967" y="501" on="0"/>
        <pt x="1021" y="542" on="0"/>
        <pt x="1049" y="557" on="1"/>
        <pt x="1023" y="573" on="0"/>
        <pt x="977" y="615" on="0"/>
      </contour>
    </TTGlyph>
    <TTGlyph name="Oacute" xMin="41" yMin="-57" xMax="1063" yMax="1868">
      <component glyphName="O" x="0" y="0" flags="0x204"/>
      <component glyphName="acute" x="203" y="631" flags="0x4"/>
    </TTGlyph>
    <TTGlyph name="Obreve" xMin="41" yMin="-57" xMax="1063" yMax="1848">
      <component glyphName="O" x="0" y="0" flags="0x204"/>
      <component glyphName="breve" x="164" y="631" flags="0x4"/>
    </TTGlyph>
    <TTGlyph name="Ocircumflex" xMin="41" yMin="-57" xMax="1063" yMax="1868">
      <component glyphName="O" x="0" y="0" flags="0x204"/>
      <component glyphName="circumflex" x="170" y="631" flags="0x4"/>
    </TTGlyph>
    <TTGlyph name="Odieresis" xMin="41" yMin="-57" xMax="1063" yMax="1770">
      <component glyphName="O" x="0" y="0" flags="0x204"/>
      <component glyphName="dieresis" x="170" y="631" flags="0x4"/>
    </TTGlyph>
    <TTGlyph name="Ograve" xMin="41" yMin="-57" xMax="1063" yMax="1868">
      <component glyphName="O" x="0" y="0" flags="0x204"/>
      <component glyphName="grave" x="135" y="631" flags="0x4"/>
    </TTGlyph>
    <TTGlyph name="Ohungarumlaut" xMin="41" yMin="-57" xMax="1063" yMax="1868">
      <component glyphName="O" x="0" y="0" flags="0x204"/>
      <component glyphName="hungarumlaut" x="190" y="631" flags="0x4"/>
    </TTGlyph>
    <TTGlyph name="Omacron" xMin="41" yMin="-57" xMax="1063" yMax="1728">
      <component glyphName="O" x="0" y="0" flags="0x204"/>
      <component glyphName="macron" x="170" y="631" flags="0x4"/>
    </TTGlyph>
    <TTGlyph name="Oslash" xMin="41" yMin="-114" xMax="968" yMax="1477">
      <contour>
        <pt x="158" y="135" on="1"/>
        <pt x="99" y="226" on="0"/>
        <pt x="41" y="470" on="0"/>
        <pt x="41" y="610" on="1"/>
        <pt x="41" y="784" on="0"/>
        <pt x="102" y="1047" on="0"/>
        <pt x="195" y="1237" on="0"/>
        <pt x="305" y="1363" on="0"/>
        <pt x="400" y="1439" on="0"/>
        <pt x="467" y="1471" on="0"/>
        <pt x="471" y="1473" on="1"/>
        <pt x="476" y="1475" on="0"/>
        <pt x="487" y="1477" on="0"/>
        <pt x="494" y="1477" on="1"/>
        <pt x="511" y="1477" on="0"/>
        <pt x="537" y="1456" on="0"/>
        <pt x="555" y="1425" on="0"/>
        <pt x="565" y="1387" on="0"/>
        <pt x="565" y="1370" on="1"/>
        <pt x="565" y="1350" on="0"/>
        <pt x="553" y="1323" on="0"/>
        <pt x="539" y="1323" on="1"/>
        <pt x="532" y="1323" on="0"/>
        <pt x="528" y="1325" on="1"/>
        <pt x="510" y="1315" on="0"/>
        <pt x="449" y="1277" on="0"/>
        <pt x="377" y="1210" on="0"/>
        <pt x="303" y="1108" on="0"/>
        <pt x="243" y="961" on="0"/>
        <pt x="205" y="762" on="0"/>
        <pt x="205" y="631" on="1"/>
        <pt x="205" y="531" on="0"/>
        <pt x="231" y="373" on="0"/>
        <pt x="254" y="311" on="1"/>
        <pt x="698" y="1114" on="1"/>
        <pt x="676" y="1133" on="0"/>
        <pt x="649" y="1133" on="1"/>
        <pt x="634" y="1133" on="0"/>
        <pt x="613" y="1121" on="0"/>
        <pt x="600" y="1104" on="0"/>
        <pt x="594" y="1084" on="0"/>
        <pt x="594" y="1075" on="1"/>
        <pt x="594" y="1059" on="0"/>
        <pt x="601" y="1043" on="0"/>
        <pt x="609" y="1036" on="0"/>
        <pt x="616" y="1031" on="0"/>
        <pt x="616" y="1026" on="1"/>
        <pt x="616" y="1020" on="0"/>
        <pt x="596" y="995" on="0"/>
        <pt x="565" y="971" on="0"/>
        <pt x="528" y="952" on="0"/>
        <pt x="510" y="952" on="1"/>
        <pt x="495" y="952" on="0"/>
        <pt x="472" y="980" on="0"/>
        <pt x="457" y="1020" on="0"/>
        <pt x="449" y="1064" on="0"/>
        <pt x="449" y="1079" on="1"/>
        <pt x="449" y="1119" on="0"/>
        <pt x="476" y="1190" on="0"/>
        <pt x="525" y="1243" on="0"/>
        <pt x="593" y="1274" on="0"/>
        <pt x="635" y="1274" on="1"/>
        <pt x="672" y="1274" on="0"/>
        <pt x="738" y="1254" on="0"/>
        <pt x="766" y="1237" on="1"/>
        <pt x="836" y="1362" on="1"/>
        <pt x="839" y="1367" on="0"/>
        <pt x="836" y="1380" on="0"/>
        <pt x="838" y="1386" on="1"/>
        <pt x="841" y="1400" on="0"/>
        <pt x="860" y="1397" on="1"/>
        <pt x="872" y="1395" on="0"/>
        <pt x="910" y="1380" on="0"/>
        <pt x="945" y="1356" on="0"/>
        <pt x="968" y="1323" on="0"/>
        <pt x="965" y="1305" on="1"/>
        <pt x="965" y="1303" on="0"/>
        <pt x="964" y="1294" on="0"/>
        <pt x="961" y="1292" on="1"/>
        <pt x="868" y="1124" on="1"/>
        <pt x="894" y="1078" on="0"/>
        <pt x="930" y="969" on="0"/>
        <pt x="952" y="857" on="0"/>
        <pt x="961" y="745" on="0"/>
        <pt x="961" y="696" on="1"/>
        <pt x="961" y="502" on="0"/>
        <pt x="883" y="218" on="0"/>
        <pt x="753" y="33" on="0"/>
        <pt x="586" y="-57" on="0"/>
        <pt x="496" y="-57" on="1"/>
        <pt x="424" y="-57" on="0"/>
        <pt x="306" y="-15" on="0"/>
        <pt x="258" y="23" on="1"/>
        <pt x="190" y="-98" on="1"/>
        <pt x="184" y="-109" on="0"/>
        <pt x="164" y="-114" on="0"/>
        <pt x="152" y="-111" on="1"/>
        <pt x="139" y="-109" on="0"/>
        <pt x="108" y="-93" on="0"/>
        <pt x="82" y="-70" on="0"/>
        <pt x="67" y="-42" on="0"/>
        <pt x="70" y="-27" on="1"/>
        <pt x="72" y="-18" on="0"/>
        <pt x="78" y="-10" on="1"/>
      </contour>
      <contour>
        <pt x="801" y="696" on="1"/>
        <pt x="801" y="758" on="0"/>
        <pt x="790" y="897" on="0"/>
        <pt x="776" y="958" on="1"/>
        <pt x="340" y="172" on="1"/>
        <pt x="413" y="96" on="0"/>
        <pt x="502" y="96" on="1"/>
        <pt x="565" y="96" on="0"/>
        <pt x="674" y="176" on="0"/>
        <pt x="755" y="329" on="0"/>
        <pt x="801" y="552" on="0"/>
      </contour>
    </TTGlyph>
    <TTGlyph name="Oslashacute" xMin="41" yMin="-114" xMax="968" yMax="1868">
      <component glyphName="Oslash" x="0" y="0" flags="0x204"/>
      <component glyphName="acute" x="262" y="631" flags="0x4"/>
    </TTGlyph>
    <TTGlyph name="Otilde" xMin="41" yMin="-57" xMax="1063" yMax="1805">
      <component glyphName="O" x="0" y="0" flags="0x204"/>
      <component glyphName="tilde" x="170" y="631" flags="0x4"/>
    </TTGlyph>
    <TTGlyph name="P" xMin="37" yMin="-57" xMax="1147" yMax="1434">
      <contour>
        <pt x="410" y="1073" on="1"/>
        <pt x="410" y="1102" on="0"/>
        <pt x="401" y="1128" on="0"/>
        <pt x="401" y="1139" on="1"/>
        <pt x="401" y="1154" on="0"/>
        <pt x="433" y="1174" on="0"/>
        <pt x="455" y="1174" on="1"/>
        <pt x="506" y="1174" on="0"/>
        <pt x="569" y="1121" on="0"/>
        <pt x="569" y="1083" on="1"/>
        <pt x="569" y="414" on="1"/>
        <pt x="604" y="418" on="0"/>
        <pt x="693" y="450" on="0"/>
        <pt x="787" y="507" on="0"/>
        <pt x="876" y="591" on="0"/>
        <pt x="946" y="703" on="0"/>
        <pt x="989" y="844" on="0"/>
        <pt x="989" y="930" on="1"/>
        <pt x="989" y="988" on="0"/>
        <pt x="952" y="1112" on="0"/>
        <pt x="872" y="1214" on="0"/>
        <pt x="745" y="1280" on="0"/>
        <pt x="655" y="1280" on="1"/>
        <pt x="532" y="1280" on="0"/>
        <pt x="356" y="1204" on="0"/>
        <pt x="245" y="1076" on="0"/>
        <pt x="193" y="907" on="0"/>
        <pt x="193" y="813" on="1"/>
        <pt x="193" y="745" on="0"/>
        <pt x="216" y="652" on="0"/>
        <pt x="244" y="593" on="0"/>
        <pt x="268" y="565" on="0"/>
        <pt x="270" y="563" on="1"/>
        <pt x="287" y="568" on="0"/>
        <pt x="301" y="550" on="0"/>
        <pt x="301" y="535" on="1"/>
        <pt x="301" y="521" on="0"/>
        <pt x="282" y="465" on="0"/>
        <pt x="250" y="416" on="0"/>
        <pt x="208" y="391" on="0"/>
        <pt x="186" y="408" on="1"/>
        <pt x="174" y="419" on="0"/>
        <pt x="124" y="477" on="0"/>
        <pt x="75" y="574" on="0"/>
        <pt x="37" y="711" on="0"/>
        <pt x="37" y="801" on="1"/>
        <pt x="37" y="945" on="0"/>
        <pt x="127" y="1178" on="0"/>
        <pt x="290" y="1344" on="0"/>
        <pt x="516" y="1434" on="0"/>
        <pt x="653" y="1434" on="1"/>
        <pt x="765" y="1434" on="0"/>
        <pt x="948" y="1360" on="0"/>
        <pt x="1077" y="1227" on="0"/>
        <pt x="1147" y="1043" on="0"/>
        <pt x="1147" y="934" on="1"/>
        <pt x="1147" y="800" on="0"/>
        <pt x="1051" y="573" on="0"/>
        <pt x="891" y="397" on="0"/>
        <pt x="682" y="281" on="0"/>
        <pt x="569" y="260" on="1"/>
        <pt x="569" y="-10" on="1"/>
        <pt x="569" y="-36" on="0"/>
        <pt x="535" y="-57" on="0"/>
        <pt x="512" y="-57" on="1"/>
        <pt x="494" y="-57" on="0"/>
        <pt x="458" y="-47" on="0"/>
        <pt x="429" y="-31" on="0"/>
        <pt x="410" y="-10" on="0"/>
        <pt x="410" y="2" on="1"/>
      </contour>
    </TTGlyph>
    <TTGlyph name="Q" xMin="68" yMin="-401" xMax="1033" yMax="1434">
      <contour>
        <pt x="934" y="-242" on="1"/>
        <pt x="953" y="-242" on="0"/>
        <pt x="977" y="-231" on="0"/>
        <pt x="994" y="-218" on="0"/>
        <pt x="1006" y="-207" on="0"/>
        <pt x="1012" y="-207" on="1"/>
        <pt x="1025" y="-207" on="0"/>
        <pt x="1033" y="-236" on="0"/>
        <pt x="1023" y="-279" on="0"/>
        <pt x="997" y="-329" on="0"/>
        <pt x="957" y="-372" on="0"/>
        <pt x="903" y="-401" on="0"/>
        <pt x="870" y="-401" on="1"/>
        <pt x="788" y="-401" on="0"/>
        <pt x="605" y="-338" on="0"/>
        <pt x="427" y="-213" on="0"/>
        <pt x="265" y="-30" on="0"/>
        <pt x="141" y="211" on="0"/>
        <pt x="68" y="506" on="0"/>
        <pt x="68" y="680" on="1"/>
        <pt x="68" y="813" on="0"/>
        <pt x="109" y="1029" on="0"/>
        <pt x="179" y="1197" on="0"/>
        <pt x="273" y="1318" on="0"/>
        <pt x="379" y="1396" on="0"/>
        <pt x="490" y="1434" on="0"/>
        <pt x="543" y="1434" on="1"/>
        <pt x="622" y="1434" on="0"/>
        <pt x="781" y="1353" on="0"/>
        <pt x="908" y="1177" on="0"/>
        <pt x="987" y="901" on="0"/>
        <pt x="987" y="705" on="1"/>
        <pt x="987" y="567" on="0"/>
        <pt x="945" y="350" on="0"/>
        <pt x="879" y="185" on="0"/>
        <pt x="796" y="70" on="0"/>
        <pt x="714" y="-2" on="0"/>
        <pt x="641" y="-35" on="0"/>
        <pt x="618" y="-35" on="1"/>
        <pt x="605" y="-35" on="0"/>
        <pt x="570" y="-10" on="0"/>
        <pt x="538" y="24" on="0"/>
        <pt x="516" y="62" on="0"/>
        <pt x="516" y="74" on="1"/>
        <pt x="516" y="90" on="0"/>
        <pt x="535" y="90" on="1"/>
        <pt x="545" y="90" on="1"/>
        <pt x="617" y="110" on="0"/>
        <pt x="723" y="225" on="0"/>
        <pt x="793" y="390" on="0"/>
        <pt x="827" y="595" on="0"/>
        <pt x="827" y="705" on="1"/>
        <pt x="827" y="857" on="0"/>
        <pt x="777" y="1074" on="0"/>
        <pt x="696" y="1213" on="0"/>
        <pt x="593" y="1278" on="0"/>
        <pt x="539" y="1278" on="1"/>
        <pt x="485" y="1278" on="0"/>
        <pt x="374" y="1208" on="0"/>
        <pt x="284" y="1062" on="0"/>
        <pt x="227" y="837" on="0"/>
        <pt x="227" y="682" on="1"/>
        <pt x="227" y="509" on="0"/>
        <pt x="296" y="238" on="0"/>
        <pt x="411" y="32" on="0"/>
        <pt x="558" y="-111" on="0"/>
        <pt x="715" y="-201" on="0"/>
        <pt x="870" y="-242" on="0"/>
      </contour>
    </TTGlyph>
    <TTGlyph name="R" xMin="37" yMin="-340" xMax="1147" yMax="1434">
      <contour>
        <pt x="410" y="1073" on="1"/>
        <pt x="410" y="1102" on="0"/>
        <pt x="401" y="1128" on="0"/>
        <pt x="401" y="1139" on="1"/>
        <pt x="401" y="1154" on="0"/>
        <pt x="433" y="1174" on="0"/>
        <pt x="455" y="1174" on="1"/>
        <pt x="506" y="1174" on="0"/>
        <pt x="569" y="1121" on="0"/>
        <pt x="569" y="1083" on="1"/>
        <pt x="569" y="414" on="1"/>
        <pt x="608" y="421" on="0"/>
        <pt x="701" y="455" on="0"/>
        <pt x="794" y="512" on="0"/>
        <pt x="881" y="594" on="0"/>
        <pt x="948" y="704" on="0"/>
        <pt x="989" y="843" on="0"/>
        <pt x="989" y="930" on="1"/>
        <pt x="989" y="988" on="0"/>
        <pt x="950" y="1112" on="0"/>
        <pt x="868" y="1214" on="0"/>
        <pt x="739" y="1280" on="0"/>
        <pt x="649" y="1280" on="1"/>
        <pt x="531" y="1280" on="0"/>
        <pt x="359" y="1202" on="0"/>
        <pt x="247" y="1071" on="0"/>
        <pt x="193" y="903" on="0"/>
        <pt x="193" y="813" on="1"/>
        <pt x="193" y="745" on="0"/>
        <pt x="216" y="652" on="0"/>
        <pt x="244" y="593" on="0"/>
        <pt x="268" y="565" on="0"/>
        <pt x="270" y="563" on="1"/>
        <pt x="287" y="568" on="0"/>
        <pt x="301" y="550" on="0"/>
        <pt x="301" y="535" on="1"/>
        <pt x="301" y="521" on="0"/>
        <pt x="282" y="465" on="0"/>
        <pt x="250" y="416" on="0"/>
        <pt x="208" y="391" on="0"/>
        <pt x="186" y="408" on="1"/>
        <pt x="174" y="419" on="0"/>
        <pt x="124" y="477" on="0"/>
        <pt x="75" y="574" on="0"/>
        <pt x="37" y="711" on="0"/>
        <pt x="37" y="801" on="1"/>
        <pt x="37" y="943" on="0"/>
        <pt x="125" y="1176" on="0"/>
        <pt x="286" y="1343" on="0"/>
        <pt x="510" y="1434" on="0"/>
        <pt x="647" y="1434" on="1"/>
        <pt x="759" y="1434" on="0"/>
        <pt x="943" y="1360" on="0"/>
        <pt x="1075" y="1227" on="0"/>
        <pt x="1147" y="1043" on="0"/>
        <pt x="1147" y="934" on="1"/>
        <pt x="1147" y="829" on="0"/>
        <pt x="1086" y="645" on="0"/>
        <pt x="980" y="493" on="0"/>
        <pt x="839" y="375" on="0"/>
        <pt x="758" y="338" on="1"/>
        <pt x="809" y="309" on="0"/>
        <pt x="876" y="226" on="0"/>
        <pt x="923" y="131" on="0"/>
        <pt x="958" y="27" on="0"/>
        <pt x="994" y="-74" on="0"/>
        <pt x="1040" y="-168" on="0"/>
        <pt x="1075" y="-205" on="1"/>
        <pt x="1079" y="-210" on="0"/>
        <pt x="1092" y="-215" on="0"/>
        <pt x="1105" y="-220" on="0"/>
        <pt x="1114" y="-227" on="0"/>
        <pt x="1114" y="-233" on="1"/>
        <pt x="1114" y="-248" on="0"/>
        <pt x="1080" y="-285" on="0"/>
        <pt x="1034" y="-318" on="0"/>
        <pt x="987" y="-340" on="0"/>
        <pt x="975" y="-340" on="1"/>
        <pt x="960" y="-340" on="0"/>
        <pt x="948" y="-328" on="1"/>
        <pt x="898" y="-271" on="0"/>
        <pt x="842" y="-148" on="0"/>
        <pt x="804" y="-27" on="0"/>
        <pt x="772" y="87" on="0"/>
        <pt x="721" y="183" on="0"/>
        <pt x="639" y="255" on="0"/>
        <pt x="569" y="274" on="1"/>
        <pt x="569" y="-10" on="1"/>
        <pt x="569" y="-36" on="0"/>
        <pt x="535" y="-57" on="0"/>
        <pt x="512" y="-57" on="1"/>
        <pt x="494" y="-57" on="0"/>
        <pt x="458" y="-47" on="0"/>
        <pt x="429" y="-31" on="0"/>
        <pt x="410" y="-10" on="0"/>
        <pt x="410" y="2" on="1"/>
      </contour>
    </TTGlyph>
    <TTGlyph name="Racute" xMin="37" yMin="-340" xMax="1147" yMax="1847">
      <component glyphName="R" x="0" y="0" flags="0x204"/>
      <component glyphName="acute" x="279" y="610" flags="0x4"/>
    </TTGlyph>
    <TTGlyph name="Rcaron" xMin="37" yMin="-340" xMax="1147" yMax="1847">
      <component glyphName="R" x="0" y="0" flags="0x204"/>
      <component glyphName="caron" x="240" y="610" flags="0x4"/>
    </TTGlyph>
    <TTGlyph name="Rcommaaccent" xMin="37" yMin="-444" xMax="1147" yMax="1434">
      <component glyphName="R" x="0" y="0" flags="0x204"/>
      <component glyphName="commaaccent" x="207" y="0" flags="0x4"/>
    </TTGlyph>
    <TTGlyph name="S" xMin="57" yMin="-74" xMax="889" yMax="1452">
      <contour>
        <pt x="414" y="-74" on="1"/>
        <pt x="349" y="-74" on="0"/>
        <pt x="263" y="-45" on="0"/>
        <pt x="213" y="-9" on="0"/>
        <pt x="193" y="24" on="0"/>
        <pt x="193" y="29" on="1"/>
        <pt x="193" y="47" on="0"/>
        <pt x="209" y="88" on="0"/>
        <pt x="233" y="123" on="0"/>
        <pt x="261" y="147" on="0"/>
        <pt x="272" y="147" on="1"/>
        <pt x="286" y="147" on="0"/>
        <pt x="295" y="129" on="1"/>
        <pt x="297" y="127" on="0"/>
        <pt x="313" y="111" on="0"/>
        <pt x="342" y="94" on="0"/>
        <pt x="385" y="80" on="0"/>
        <pt x="414" y="80" on="1"/>
        <pt x="477" y="80" on="0"/>
        <pt x="557" y="157" on="0"/>
        <pt x="557" y="223" on="1"/>
        <pt x="557" y="269" on="0"/>
        <pt x="514" y="341" on="0"/>
        <pt x="444" y="403" on="0"/>
        <pt x="354" y="462" on="0"/>
        <pt x="260" y="526" on="0"/>
        <pt x="170" y="600" on="0"/>
        <pt x="100" y="696" on="0"/>
        <pt x="57" y="817" on="0"/>
        <pt x="57" y="895" on="1"/>
        <pt x="57" y="962" on="0"/>
        <pt x="103" y="1098" on="0"/>
        <pt x="184" y="1221" on="0"/>
        <pt x="294" y="1328" on="0"/>
        <pt x="422" y="1407" on="0"/>
        <pt x="561" y="1452" on="0"/>
        <pt x="631" y="1452" on="1"/>
        <pt x="691" y="1452" on="0"/>
        <pt x="787" y="1414" on="0"/>
        <pt x="853" y="1345" on="0"/>
        <pt x="889" y="1248" on="0"/>
        <pt x="889" y="1188" on="1"/>
        <pt x="889" y="1131" on="0"/>
        <pt x="849" y="1021" on="0"/>
        <pt x="783" y="923" on="0"/>
        <pt x="700" y="840" on="0"/>
        <pt x="613" y="779" on="0"/>
        <pt x="531" y="745" on="0"/>
        <pt x="500" y="745" on="1"/>
        <pt x="473" y="745" on="0"/>
        <pt x="430" y="770" on="0"/>
        <pt x="401" y="807" on="0"/>
        <pt x="385" y="848" on="0"/>
        <pt x="385" y="864" on="1"/>
        <pt x="385" y="877" on="0"/>
        <pt x="392" y="885" on="0"/>
        <pt x="405" y="884" on="0"/>
        <pt x="425" y="879" on="0"/>
        <pt x="438" y="879" on="1"/>
        <pt x="480" y="879" on="0"/>
        <pt x="582" y="937" on="0"/>
        <pt x="672" y="1027" on="0"/>
        <pt x="733" y="1135" on="0"/>
        <pt x="733" y="1186" on="1"/>
        <pt x="733" y="1238" on="0"/>
        <pt x="682" y="1298" on="0"/>
        <pt x="621" y="1298" on="1"/>
        <pt x="583" y="1298" on="0"/>
        <pt x="494" y="1269" on="0"/>
        <pt x="404" y="1217" on="0"/>
        <pt x="320" y="1143" on="0"/>
        <pt x="256" y="1054" on="0"/>
        <pt x="217" y="951" on="0"/>
        <pt x="217" y="895" on="1"/>
        <pt x="217" y="836" on="0"/>
        <pt x="260" y="743" on="0"/>
        <pt x="331" y="667" on="0"/>
        <pt x="421" y="603" on="0"/>
        <pt x="515" y="540" on="0"/>
        <pt x="605" y="473" on="0"/>
        <pt x="676" y="392" on="0"/>
        <pt x="719" y="293" on="0"/>
        <pt x="719" y="229" on="1"/>
        <pt x="719" y="167" on="0"/>
        <pt x="672" y="56" on="0"/>
        <pt x="590" y="-26" on="0"/>
        <pt x="478" y="-74" on="0"/>
      </contour>
    </TTGlyph>
    <TTGlyph name="Sacute" xMin="57" yMin="-74" xMax="889" yMax="1868">
      <component glyphName="S" x="0" y="0" flags="0x204"/>
      <component glyphName="acute" x="211" y="631" flags="0x4"/>
    </TTGlyph>
    <TTGlyph name="Scaron" xMin="57" yMin="-74" xMax="889" yMax="1868">
      <component glyphName="S" x="0" y="0" flags="0x204"/>
      <component glyphName="caron" x="172" y="631" flags="0x4"/>
    </TTGlyph>
    <TTGlyph name="Scedilla" xMin="57" yMin="-500" xMax="889" yMax="1452">
      <contour>
        <pt x="719" y="229" on="1"/>
        <pt x="719" y="174" on="0"/>
        <pt x="682" y="75" on="0"/>
        <pt x="616" y="-4" on="0"/>
        <pt x="525" y="-58" on="0"/>
        <pt x="471" y="-68" on="1"/>
        <pt x="451" y="-127" on="1"/>
        <pt x="505" y="-136" on="0"/>
        <pt x="570" y="-179" on="0"/>
        <pt x="605" y="-231" on="0"/>
        <pt x="616" y="-284" on="0"/>
        <pt x="616" y="-305" on="1"/>
        <pt x="616" y="-333" on="0"/>
        <pt x="593" y="-401" on="0"/>
        <pt x="541" y="-460" on="0"/>
        <pt x="456" y="-500" on="0"/>
        <pt x="395" y="-500" on="1"/>
        <pt x="308" y="-500" on="0"/>
        <pt x="236" y="-458" on="0"/>
        <pt x="236" y="-412" on="1"/>
        <pt x="236" y="-405" on="0"/>
        <pt x="240" y="-385" on="0"/>
        <pt x="247" y="-368" on="0"/>
        <pt x="257" y="-358" on="0"/>
        <pt x="264" y="-362" on="1"/>
        <pt x="275" y="-368" on="0"/>
        <pt x="303" y="-375" on="0"/>
        <pt x="333" y="-379" on="0"/>
        <pt x="361" y="-381" on="0"/>
        <pt x="373" y="-381" on="1"/>
        <pt x="427" y="-381" on="0"/>
        <pt x="492" y="-335" on="0"/>
        <pt x="492" y="-293" on="1"/>
        <pt x="492" y="-268" on="0"/>
        <pt x="467" y="-245" on="0"/>
        <pt x="431" y="-236" on="0"/>
        <pt x="387" y="-234" on="0"/>
        <pt x="351" y="-226" on="0"/>
        <pt x="326" y="-204" on="0"/>
        <pt x="326" y="-180" on="1"/>
        <pt x="326" y="-174" on="0"/>
        <pt x="332" y="-148" on="0"/>
        <pt x="341" y="-116" on="0"/>
        <pt x="350" y="-83" on="0"/>
        <pt x="354" y="-70" on="1"/>
        <pt x="307" y="-64" on="0"/>
        <pt x="245" y="-35" on="0"/>
        <pt x="208" y="-3" on="0"/>
        <pt x="193" y="24" on="0"/>
        <pt x="193" y="29" on="1"/>
        <pt x="193" y="47" on="0"/>
        <pt x="209" y="88" on="0"/>
        <pt x="233" y="123" on="0"/>
        <pt x="261" y="147" on="0"/>
        <pt x="272" y="147" on="1"/>
        <pt x="286" y="147" on="0"/>
        <pt x="295" y="129" on="1"/>
        <pt x="297" y="127" on="0"/>
        <pt x="313" y="111" on="0"/>
        <pt x="342" y="94" on="0"/>
        <pt x="385" y="80" on="0"/>
        <pt x="414" y="80" on="1"/>
        <pt x="477" y="80" on="0"/>
        <pt x="557" y="157" on="0"/>
        <pt x="557" y="223" on="1"/>
        <pt x="557" y="269" on="0"/>
        <pt x="514" y="341" on="0"/>
        <pt x="444" y="403" on="0"/>
        <pt x="354" y="462" on="0"/>
        <pt x="260" y="526" on="0"/>
        <pt x="170" y="600" on="0"/>
        <pt x="100" y="696" on="0"/>
        <pt x="57" y="817" on="0"/>
        <pt x="57" y="895" on="1"/>
        <pt x="57" y="962" on="0"/>
        <pt x="103" y="1098" on="0"/>
        <pt x="184" y="1221" on="0"/>
        <pt x="294" y="1328" on="0"/>
        <pt x="422" y="1407" on="0"/>
        <pt x="561" y="1452" on="0"/>
        <pt x="631" y="1452" on="1"/>
        <pt x="691" y="1452" on="0"/>
        <pt x="787" y="1414" on="0"/>
        <pt x="853" y="1345" on="0"/>
        <pt x="889" y="1248" on="0"/>
        <pt x="889" y="1188" on="1"/>
        <pt x="889" y="1131" on="0"/>
        <pt x="849" y="1021" on="0"/>
        <pt x="783" y="923" on="0"/>
        <pt x="700" y="840" on="0"/>
        <pt x="613" y="779" on="0"/>
        <pt x="531" y="745" on="0"/>
        <pt x="500" y="745" on="1"/>
        <pt x="473" y="745" on="0"/>
        <pt x="430" y="770" on="0"/>
        <pt x="401" y="807" on="0"/>
        <pt x="385" y="848" on="0"/>
        <pt x="385" y="864" on="1"/>
        <pt x="385" y="877" on="0"/>
        <pt x="392" y="885" on="0"/>
        <pt x="405" y="884" on="0"/>
        <pt x="425" y="879" on="0"/>
        <pt x="438" y="879" on="1"/>
        <pt x="480" y="879" on="0"/>
        <pt x="582" y="937" on="0"/>
        <pt x="672" y="1027" on="0"/>
        <pt x="733" y="1135" on="0"/>
        <pt x="733" y="1186" on="1"/>
        <pt x="733" y="1238" on="0"/>
        <pt x="682" y="1298" on="0"/>
        <pt x="621" y="1298" on="1"/>
        <pt x="583" y="1298" on="0"/>
        <pt x="494" y="1269" on="0"/>
        <pt x="404" y="1217" on="0"/>
        <pt x="320" y="1143" on="0"/>
        <pt x="256" y="1054" on="0"/>
        <pt x="217" y="951" on="0"/>
        <pt x="217" y="895" on="1"/>
        <pt x="217" y="836" on="0"/>
        <pt x="260" y="743" on="0"/>
        <pt x="331" y="667" on="0"/>
        <pt x="421" y="603" on="0"/>
        <pt x="515" y="540" on="0"/>
        <pt x="605" y="473" on="0"/>
        <pt x="676" y="392" on="0"/>
        <pt x="719" y="293" on="0"/>
      </contour>
    </TTGlyph>
    <TTGlyph name="Scircumflex" xMin="57" yMin="-74" xMax="889" yMax="1868">
      <component glyphName="S" x="0" y="0" flags="0x204"/>
      <component glyphName="circumflex" x="178" y="631" flags="0x4"/>
    </TTGlyph>
    <TTGlyph name="T" xMin="37" yMin="-137" xMax="1190" yMax="1446">
      <contour>
        <pt x="844" y="115" on="1"/>
        <pt x="844" y="47" on="0"/>
        <pt x="827" y="-49" on="0"/>
        <pt x="797" y="-109" on="0"/>
        <pt x="754" y="-137" on="0"/>
        <pt x="729" y="-137" on="1"/>
        <pt x="710" y="-137" on="0"/>
        <pt x="664" y="-111" on="0"/>
        <pt x="623" y="-73" on="0"/>
        <pt x="596" y="-33" on="0"/>
        <pt x="596" y="-18" on="1"/>
        <pt x="596" y="-8" on="0"/>
        <pt x="601" y="-3" on="0"/>
        <pt x="610" y="-4" on="0"/>
        <pt x="623" y="-8" on="0"/>
        <pt x="631" y="-8" on="1"/>
        <pt x="659" y="-8" on="0"/>
        <pt x="684" y="63" on="0"/>
        <pt x="684" y="141" on="1"/>
        <pt x="684" y="1272" on="1"/>
        <pt x="589" y="1264" on="0"/>
        <pt x="413" y="1213" on="0"/>
        <pt x="279" y="1111" on="0"/>
        <pt x="199" y="948" on="0"/>
        <pt x="199" y="829" on="1"/>
        <pt x="199" y="776" on="0"/>
        <pt x="220" y="691" on="0"/>
        <pt x="254" y="623" on="0"/>
        <pt x="295" y="571" on="0"/>
        <pt x="315" y="551" on="1"/>
        <pt x="332" y="556" on="0"/>
        <pt x="346" y="538" on="0"/>
        <pt x="346" y="522" on="1"/>
        <pt x="346" y="502" on="0"/>
        <pt x="329" y="459" on="0"/>
        <pt x="301" y="424" on="0"/>
        <pt x="266" y="401" on="0"/>
        <pt x="248" y="401" on="1"/>
        <pt x="240" y="401" on="0"/>
        <pt x="225" y="405" on="0"/>
        <pt x="217" y="412" on="1"/>
        <pt x="195" y="428" on="0"/>
        <pt x="133" y="501" on="0"/>
        <pt x="77" y="609" on="0"/>
        <pt x="37" y="748" on="0"/>
        <pt x="37" y="829" on="1"/>
        <pt x="37" y="977" on="0"/>
        <pt x="147" y="1203" on="0"/>
        <pt x="343" y="1356" on="0"/>
        <pt x="612" y="1434" on="0"/>
        <pt x="772" y="1434" on="1"/>
        <pt x="809" y="1434" on="0"/>
        <pt x="914" y="1433" on="0"/>
        <pt x="1018" y="1431" on="0"/>
        <pt x="1101" y="1430" on="0"/>
        <pt x="1116" y="1430" on="1"/>
        <pt x="1129" y="1430" on="0"/>
        <pt x="1146" y="1435" on="0"/>
        <pt x="1157" y="1441" on="0"/>
        <pt x="1163" y="1446" on="0"/>
        <pt x="1165" y="1446" on="1"/>
        <pt x="1170" y="1446" on="0"/>
        <pt x="1179" y="1433" on="0"/>
        <pt x="1186" y="1414" on="0"/>
        <pt x="1190" y="1390" on="0"/>
        <pt x="1190" y="1378" on="1"/>
        <pt x="1190" y="1360" on="0"/>
        <pt x="1180" y="1321" on="0"/>
        <pt x="1160" y="1290" on="0"/>
        <pt x="1130" y="1270" on="0"/>
        <pt x="1110" y="1270" on="1"/>
        <pt x="1099" y="1270" on="0"/>
        <pt x="1040" y="1271" on="0"/>
        <pt x="964" y="1273" on="0"/>
        <pt x="880" y="1275" on="0"/>
        <pt x="844" y="1276" on="1"/>
      </contour>
    </TTGlyph>
    <TTGlyph name="Tbar" xMin="37" yMin="-137" xMax="1190" yMax="1446">
      <contour>
        <pt x="844" y="115" on="1"/>
        <pt x="844" y="47" on="0"/>
        <pt x="827" y="-49" on="0"/>
        <pt x="797" y="-109" on="0"/>
        <pt x="754" y="-137" on="0"/>
        <pt x="729" y="-137" on="1"/>
        <pt x="710" y="-137" on="0"/>
        <pt x="664" y="-111" on="0"/>
        <pt x="623" y="-73" on="0"/>
        <pt x="596" y="-33" on="0"/>
        <pt x="596" y="-18" on="1"/>
        <pt x="596" y="-8" on="0"/>
        <pt x="601" y="-3" on="0"/>
        <pt x="610" y="-4" on="0"/>
        <pt x="623" y="-8" on="0"/>
        <pt x="631" y="-8" on="1"/>
        <pt x="659" y="-8" on="0"/>
        <pt x="684" y="63" on="0"/>
        <pt x="684" y="141" on="1"/>
        <pt x="684" y="836" on="1"/>
        <pt x="449" y="836" on="1"/>
        <pt x="421" y="836" on="0"/>
        <pt x="395" y="861" on="0"/>
        <pt x="395" y="883" on="1"/>
        <pt x="395" y="925" on="0"/>
        <pt x="434" y="971" on="0"/>
        <pt x="469" y="971" on="1"/>
        <pt x="684" y="971" on="1"/>
        <pt x="684" y="1272" on="1"/>
        <pt x="589" y="1264" on="0"/>
        <pt x="413" y="1213" on="0"/>
        <pt x="279" y="1111" on="0"/>
        <pt x="199" y="948" on="0"/>
        <pt x="199" y="829" on="1"/>
        <pt x="199" y="776" on="0"/>
        <pt x="220" y="691" on="0"/>
        <pt x="254" y="623" on="0"/>
        <pt x="295" y="571" on="0"/>
        <pt x="315" y="551" on="1"/>
        <pt x="332" y="556" on="0"/>
        <pt x="346" y="538" on="0"/>
        <pt x="346" y="522" on="1"/>
        <pt x="346" y="502" on="0"/>
        <pt x="329" y="459" on="0"/>
        <pt x="301" y="424" on="0"/>
        <pt x="266" y="401" on="0"/>
        <pt x="248" y="401" on="1"/>
        <pt x="240" y="401" on="0"/>
        <pt x="225" y="405" on="0"/>
        <pt x="217" y="412" on="1"/>
        <pt x="195" y="428" on="0"/>
        <pt x="133" y="501" on="0"/>
        <pt x="77" y="609" on="0"/>
        <pt x="37" y="748" on="0"/>
        <pt x="37" y="829" on="1"/>
        <pt x="37" y="977" on="0"/>
        <pt x="147" y="1203" on="0"/>
        <pt x="343" y="1356" on="0"/>
        <pt x="612" y="1434" on="0"/>
        <pt x="772" y="1434" on="1"/>
        <pt x="809" y="1434" on="0"/>
        <pt x="914" y="1433" on="0"/>
        <pt x="1018" y="1431" on="0"/>
        <pt x="1101" y="1430" on="0"/>
        <pt x="1116" y="1430" on="1"/>
        <pt x="1129" y="1430" on="0"/>
        <pt x="1146" y="1435" on="0"/>
        <pt x="1157" y="1441" on="0"/>
        <pt x="1163" y="1446" on="0"/>
        <pt x="1165" y="1446" on="1"/>
        <pt x="1170" y="1446" on="0"/>
        <pt x="1179" y="1433" on="0"/>
        <pt x="1186" y="1414" on="0"/>
        <pt x="1190" y="1390" on="0"/>
        <pt x="1190" y="1378" on="1"/>
        <pt x="1190" y="1360" on="0"/>
        <pt x="1180" y="1321" on="0"/>
        <pt x="1160" y="1290" on="0"/>
        <pt x="1130" y="1270" on="0"/>
        <pt x="1110" y="1270" on="1"/>
        <pt x="1099" y="1270" on="0"/>
        <pt x="1040" y="1271" on="0"/>
        <pt x="964" y="1273" on="0"/>
        <pt x="880" y="1275" on="0"/>
        <pt x="844" y="1276" on="1"/>
        <pt x="844" y="971" on="1"/>
        <pt x="1067" y="971" on="1"/>
        <pt x="1093" y="974" on="0"/>
        <pt x="1112" y="944" on="0"/>
        <pt x="1112" y="918" on="1"/>
        <pt x="1112" y="903" on="0"/>
        <pt x="1105" y="873" on="0"/>
        <pt x="1091" y="849" on="0"/>
        <pt x="1071" y="834" on="0"/>
        <pt x="1059" y="834" on="1"/>
        <pt x="1057" y="834" on="0"/>
        <pt x="1052" y="834" on="0"/>
        <pt x="1049" y="836" on="1"/>
        <pt x="844" y="836" on="1"/>
      </contour>
    </TTGlyph>
    <TTGlyph name="Tcaron" xMin="37" yMin="-137" xMax="1190" yMax="1851">
      <component glyphName="T" x="0" y="0" flags="0x204"/>
      <component glyphName="caron" x="352" y="614" flags="0x4"/>
    </TTGlyph>
    <TTGlyph name="Tcommaaccent" xMin="37" yMin="-547" xMax="1190" yMax="1446">
      <component glyphName="T" x="0" y="0" flags="0x204"/>
      <component glyphName="commaaccent" x="297" y="-103" flags="0x4"/>
    </TTGlyph>
    <TTGlyph name="Thorn" xMin="37" yMin="-57" xMax="1147" yMax="1434">
      <contour>
        <pt x="410" y="1016" on="1"/>
        <pt x="352" y="995" on="0"/>
        <pt x="270" y="934" on="0"/>
        <pt x="217" y="858" on="0"/>
        <pt x="193" y="770" on="0"/>
        <pt x="193" y="723" on="1"/>
        <pt x="193" y="675" on="0"/>
        <pt x="216" y="610" on="0"/>
        <pt x="244" y="568" on="0"/>
        <pt x="268" y="548" on="0"/>
        <pt x="270" y="547" on="1"/>
        <pt x="287" y="552" on="0"/>
        <pt x="301" y="534" on="0"/>
        <pt x="301" y="518" on="1"/>
        <pt x="301" y="504" on="0"/>
        <pt x="282" y="448" on="0"/>
        <pt x="250" y="399" on="0"/>
        <pt x="208" y="374" on="0"/>
        <pt x="186" y="391" on="1"/>
        <pt x="174" y="400" on="0"/>
        <pt x="124" y="447" on="0"/>
        <pt x="75" y="524" on="0"/>
        <pt x="37" y="633" on="0"/>
        <pt x="37" y="705" on="1"/>
        <pt x="37" y="792" on="0"/>
        <pt x="89" y="941" on="0"/>
        <pt x="186" y="1061" on="0"/>
        <pt x="324" y="1148" on="0"/>
        <pt x="410" y="1174" on="1"/>
        <pt x="410" y="1333" on="1"/>
        <pt x="410" y="1362" on="0"/>
        <pt x="401" y="1388" on="0"/>
        <pt x="401" y="1399" on="1"/>
        <pt x="401" y="1414" on="0"/>
        <pt x="433" y="1434" on="0"/>
        <pt x="455" y="1434" on="1"/>
        <pt x="506" y="1434" on="0"/>
        <pt x="569" y="1381" on="0"/>
        <pt x="569" y="1343" on="1"/>
        <pt x="569" y="1204" on="1"/>
        <pt x="589" y="1206" on="0"/>
        <pt x="632" y="1208" on="0"/>
        <pt x="653" y="1208" on="1"/>
        <pt x="765" y="1208" on="0"/>
        <pt x="948" y="1147" on="0"/>
        <pt x="1077" y="1037" on="0"/>
        <pt x="1147" y="887" on="0"/>
        <pt x="1147" y="797" on="1"/>
        <pt x="1147" y="687" on="0"/>
        <pt x="1051" y="500" on="0"/>
        <pt x="891" y="356" on="0"/>
        <pt x="682" y="262" on="0"/>
        <pt x="569" y="244" on="1"/>
        <pt x="569" y="-10" on="1"/>
        <pt x="569" y="-36" on="0"/>
        <pt x="535" y="-57" on="0"/>
        <pt x="512" y="-57" on="1"/>
        <pt x="494" y="-57" on="0"/>
        <pt x="458" y="-47" on="0"/>
        <pt x="429" y="-31" on="0"/>
        <pt x="410" y="-10" on="0"/>
        <pt x="410" y="2" on="1"/>
      </contour>
      <contour>
        <pt x="655" y="1055" on="1"/>
        <pt x="632" y="1055" on="0"/>
        <pt x="589" y="1053" on="0"/>
        <pt x="569" y="1051" on="1"/>
        <pt x="569" y="395" on="1"/>
        <pt x="604" y="398" on="0"/>
        <pt x="693" y="423" on="0"/>
        <pt x="787" y="466" on="0"/>
        <pt x="876" y="530" on="0"/>
        <pt x="946" y="615" on="0"/>
        <pt x="989" y="722" on="0"/>
        <pt x="989" y="788" on="1"/>
        <pt x="989" y="833" on="0"/>
        <pt x="952" y="927" on="0"/>
        <pt x="872" y="1005" on="0"/>
        <pt x="745" y="1055" on="0"/>
      </contour>
    </TTGlyph>
    <TTGlyph name="U" xMin="37" yMin="-57" xMax="1169" yMax="1434">
      <contour>
        <pt x="985" y="197" on="1"/>
        <pt x="953" y="144" on="0"/>
        <pt x="881" y="51" on="0"/>
        <pt x="802" y="-18" on="0"/>
        <pt x="718" y="-57" on="0"/>
        <pt x="674" y="-57" on="1"/>
        <pt x="652" y="-57" on="0"/>
        <pt x="603" y="-39" on="0"/>
        <pt x="562" y="2" on="0"/>
        <pt x="535" y="70" on="0"/>
        <pt x="535" y="121" on="1"/>
        <pt x="535" y="1274" on="1"/>
        <pt x="466" y="1265" on="0"/>
        <pt x="343" y="1205" on="0"/>
        <pt x="252" y="1101" on="0"/>
        <pt x="199" y="953" on="0"/>
        <pt x="199" y="856" on="1"/>
        <pt x="199" y="794" on="0"/>
        <pt x="225" y="695" on="0"/>
        <pt x="261" y="626" on="0"/>
        <pt x="297" y="588" on="0"/>
        <pt x="307" y="588" on="1"/>
        <pt x="316" y="588" on="0"/>
        <pt x="332" y="596" on="0"/>
        <pt x="340" y="596" on="1"/>
        <pt x="356" y="596" on="0"/>
        <pt x="356" y="571" on="1"/>
        <pt x="356" y="539" on="0"/>
        <pt x="327" y="480" on="0"/>
        <pt x="283" y="443" on="0"/>
        <pt x="231" y="433" on="0"/>
        <pt x="209" y="449" on="1"/>
        <pt x="182" y="467" on="0"/>
        <pt x="121" y="541" on="0"/>
        <pt x="70" y="646" on="0"/>
        <pt x="37" y="778" on="0"/>
        <pt x="37" y="856" on="1"/>
        <pt x="37" y="964" on="0"/>
        <pt x="89" y="1135" on="0"/>
        <pt x="176" y="1263" on="0"/>
        <pt x="292" y="1353" on="0"/>
        <pt x="420" y="1409" on="0"/>
        <pt x="552" y="1434" on="0"/>
        <pt x="612" y="1434" on="1"/>
        <pt x="628" y="1434" on="0"/>
        <pt x="658" y="1421" on="0"/>
        <pt x="680" y="1398" on="0"/>
        <pt x="694" y="1366" on="0"/>
        <pt x="694" y="1348" on="1"/>
        <pt x="694" y="133" on="1"/>
        <pt x="694" y="113" on="0"/>
        <pt x="707" y="104" on="0"/>
        <pt x="713" y="104" on="1"/>
        <pt x="728" y="104" on="0"/>
        <pt x="780" y="147" on="0"/>
        <pt x="841" y="218" on="0"/>
        <pt x="903" y="311" on="0"/>
        <pt x="953" y="411" on="0"/>
        <pt x="985" y="511" on="0"/>
        <pt x="985" y="555" on="1"/>
        <pt x="985" y="1333" on="1"/>
        <pt x="985" y="1362" on="0"/>
        <pt x="977" y="1388" on="0"/>
        <pt x="977" y="1399" on="1"/>
        <pt x="977" y="1414" on="0"/>
        <pt x="1008" y="1434" on="0"/>
        <pt x="1030" y="1434" on="1"/>
        <pt x="1081" y="1434" on="0"/>
        <pt x="1145" y="1381" on="0"/>
        <pt x="1145" y="1343" on="1"/>
        <pt x="1145" y="455" on="1"/>
        <pt x="1145" y="354" on="0"/>
        <pt x="1148" y="207" on="0"/>
        <pt x="1154" y="102" on="0"/>
        <pt x="1160" y="31" on="0"/>
        <pt x="1163" y="6" on="1"/>
        <pt x="1169" y="-3" on="0"/>
        <pt x="1169" y="-8" on="1"/>
        <pt x="1169" y="-18" on="0"/>
        <pt x="1149" y="-36" on="0"/>
        <pt x="1119" y="-49" on="0"/>
        <pt x="1082" y="-57" on="0"/>
        <pt x="1065" y="-57" on="1"/>
        <pt x="1038" y="-57" on="0"/>
        <pt x="1008" y="-26" on="0"/>
        <pt x="993" y="37" on="0"/>
        <pt x="987" y="131" on="0"/>
        <pt x="985" y="193" on="1"/>
      </contour>
    </TTGlyph>
    <TTGlyph name="Uacute" xMin="37" yMin="-57" xMax="1169" yMax="1845">
      <component glyphName="U" x="0" y="0" flags="0x204"/>
      <component glyphName="acute" x="449" y="608" flags="0x4"/>
    </TTGlyph>
    <TTGlyph name="Ubreve" xMin="37" yMin="-57" xMax="1169" yMax="1825">
      <component glyphName="U" x="0" y="0" flags="0x204"/>
      <component glyphName="breve" x="410" y="608" flags="0x4"/>
    </TTGlyph>
    <TTGlyph name="Ucircumflex" xMin="37" yMin="-57" xMax="1169" yMax="1845">
      <component glyphName="U" x="0" y="0" flags="0x204"/>
      <component glyphName="circumflex" x="416" y="608" flags="0x4"/>
    </TTGlyph>
    <TTGlyph name="Udieresis" xMin="37" yMin="-57" xMax="1169" yMax="1747">
      <component glyphName="U" x="0" y="0" flags="0x204"/>
      <component glyphName="dieresis" x="416" y="608" flags="0x4"/>
    </TTGlyph>
    <TTGlyph name="Ugrave" xMin="37" yMin="-57" xMax="1169" yMax="1845">
      <component glyphName="U" x="0" y="0" flags="0x204"/>
      <component glyphName="grave" x="381" y="608" flags="0x4"/>
    </TTGlyph>
    <TTGlyph name="Uhungarumlaut" xMin="37" yMin="-57" xMax="1175" yMax="1845">
      <component glyphName="U" x="0" y="0" flags="0x204"/>
      <component glyphName="hungarumlaut" x="436" y="608" flags="0x4"/>
    </TTGlyph>
    <TTGlyph name="Umacron" xMin="37" yMin="-57" xMax="1169" yMax="1705">
      <component glyphName="U" x="0" y="0" flags="0x204"/>
      <component glyphName="macron" x="416" y="608" flags="0x4"/>
    </TTGlyph>
    <TTGlyph name="Uogonek" xMin="37" yMin="-424" xMax="1202" yMax="1434">
      <contour>
        <pt x="985" y="197" on="1"/>
        <pt x="953" y="144" on="0"/>
        <pt x="881" y="51" on="0"/>
        <pt x="802" y="-18" on="0"/>
        <pt x="718" y="-57" on="0"/>
        <pt x="674" y="-57" on="1"/>
        <pt x="652" y="-57" on="0"/>
        <pt x="603" y="-39" on="0"/>
        <pt x="562" y="2" on="0"/>
        <pt x="535" y="70" on="0"/>
        <pt x="535" y="121" on="1"/>
        <pt x="535" y="1274" on="1"/>
        <pt x="466" y="1265" on="0"/>
        <pt x="343" y="1205" on="0"/>
        <pt x="252" y="1101" on="0"/>
        <pt x="199" y="953" on="0"/>
        <pt x="199" y="856" on="1"/>
        <pt x="199" y="794" on="0"/>
        <pt x="225" y="695" on="0"/>
        <pt x="261" y="626" on="0"/>
        <pt x="297" y="588" on="0"/>
        <pt x="307" y="588" on="1"/>
        <pt x="316" y="588" on="0"/>
        <pt x="332" y="596" on="0"/>
        <pt x="340" y="596" on="1"/>
        <pt x="356" y="596" on="0"/>
        <pt x="356" y="571" on="1"/>
        <pt x="356" y="539" on="0"/>
        <pt x="327" y="480" on="0"/>
        <pt x="283" y="443" on="0"/>
        <pt x="231" y="433" on="0"/>
        <pt x="209" y="449" on="1"/>
        <pt x="182" y="467" on="0"/>
        <pt x="121" y="541" on="0"/>
        <pt x="70" y="646" on="0"/>
        <pt x="37" y="778" on="0"/>
        <pt x="37" y="856" on="1"/>
        <pt x="37" y="964" on="0"/>
        <pt x="89" y="1135" on="0"/>
        <pt x="176" y="1263" on="0"/>
        <pt x="292" y="1353" on="0"/>
        <pt x="420" y="1409" on="0"/>
        <pt x="552" y="1434" on="0"/>
        <pt x="612" y="1434" on="1"/>
        <pt x="628" y="1434" on="0"/>
        <pt x="658" y="1421" on="0"/>
        <pt x="680" y="1398" on="0"/>
        <pt x="694" y="1366" on="0"/>
        <pt x="694" y="1348" on="1"/>
        <pt x="694" y="133" on="1"/>
        <pt x="694" y="113" on="0"/>
        <pt x="707" y="104" on="0"/>
        <pt x="713" y="104" on="1"/>
        <pt x="728" y="104" on="0"/>
        <pt x="780" y="147" on="0"/>
        <pt x="841" y="218" on="0"/>
        <pt x="903" y="311" on="0"/>
        <pt x="953" y="411" on="0"/>
        <pt x="985" y="511" on="0"/>
        <pt x="985" y="555" on="1"/>
        <pt x="985" y="1333" on="1"/>
        <pt x="985" y="1362" on="0"/>
        <pt x="977" y="1388" on="0"/>
        <pt x="977" y="1399" on="1"/>
        <pt x="977" y="1414" on="0"/>
        <pt x="1008" y="1434" on="0"/>
        <pt x="1030" y="1434" on="1"/>
        <pt x="1081" y="1434" on="0"/>
        <pt x="1145" y="1381" on="0"/>
        <pt x="1145" y="1343" on="1"/>
        <pt x="1145" y="455" on="1"/>
        <pt x="1145" y="354" on="0"/>
        <pt x="1148" y="207" on="0"/>
        <pt x="1154" y="102" on="0"/>
        <pt x="1160" y="31" on="0"/>
        <pt x="1163" y="6" on="1"/>
        <pt x="1169" y="-3" on="0"/>
        <pt x="1169" y="-8" on="1"/>
        <pt x="1169" y="-21" on="0"/>
        <pt x="1151" y="-33" on="0"/>
        <pt x="1139" y="-41" on="1"/>
        <pt x="1110" y="-58" on="0"/>
        <pt x="1046" y="-98" on="0"/>
        <pt x="993" y="-145" on="0"/>
        <pt x="958" y="-200" on="0"/>
        <pt x="958" y="-231" on="1"/>
        <pt x="958" y="-260" on="0"/>
        <pt x="999" y="-305" on="0"/>
        <pt x="1053" y="-305" on="1"/>
        <pt x="1064" y="-305" on="0"/>
        <pt x="1097" y="-303" on="0"/>
        <pt x="1131" y="-299" on="0"/>
        <pt x="1163" y="-292" on="0"/>
        <pt x="1174" y="-287" on="1"/>
        <pt x="1181" y="-283" on="0"/>
        <pt x="1191" y="-292" on="0"/>
        <pt x="1198" y="-309" on="0"/>
        <pt x="1202" y="-329" on="0"/>
        <pt x="1202" y="-336" on="1"/>
        <pt x="1202" y="-382" on="0"/>
        <pt x="1130" y="-424" on="0"/>
        <pt x="1042" y="-424" on="1"/>
        <pt x="981" y="-424" on="0"/>
        <pt x="897" y="-390" on="0"/>
        <pt x="844" y="-339" on="0"/>
        <pt x="821" y="-278" on="0"/>
        <pt x="821" y="-250" on="1"/>
        <pt x="821" y="-208" on="0"/>
        <pt x="847" y="-142" on="0"/>
        <pt x="894" y="-83" on="0"/>
        <pt x="960" y="-29" on="0"/>
        <pt x="1001" y="0" on="1"/>
        <pt x="993" y="31" on="0"/>
        <pt x="987" y="130" on="0"/>
        <pt x="985" y="193" on="1"/>
      </contour>
    </TTGlyph>
    <TTGlyph name="Uring" xMin="37" yMin="-57" xMax="1169" yMax="1915">
      <component glyphName="U" x="0" y="0" flags="0x204"/>
      <component glyphName="ring" x="416" y="608" flags="0x4"/>
    </TTGlyph>
    <TTGlyph name="Utilde" xMin="37" yMin="-57" xMax="1169" yMax="1782">
      <component glyphName="U" x="0" y="0" flags="0x204"/>
      <component glyphName="tilde" x="416" y="608" flags="0x4"/>
    </TTGlyph>
    <TTGlyph name="V" xMin="37" yMin="-57" xMax="1145" yMax="1434">
      <contour>
        <pt x="985" y="1085" on="1"/>
        <pt x="985" y="1161" on="0"/>
        <pt x="979" y="1269" on="0"/>
        <pt x="971" y="1342" on="0"/>
        <pt x="965" y="1387" on="0"/>
        <pt x="965" y="1399" on="1"/>
        <pt x="965" y="1414" on="0"/>
        <pt x="996" y="1434" on="0"/>
        <pt x="1018" y="1434" on="1"/>
        <pt x="1069" y="1434" on="0"/>
        <pt x="1117" y="1393" on="0"/>
        <pt x="1126" y="1348" on="1"/>
        <pt x="1130" y="1329" on="0"/>
        <pt x="1137" y="1286" on="0"/>
        <pt x="1142" y="1230" on="0"/>
        <pt x="1145" y="1159" on="0"/>
        <pt x="1145" y="1112" on="1"/>
        <pt x="1145" y="935" on="0"/>
        <pt x="1107" y="624" on="0"/>
        <pt x="1041" y="364" on="0"/>
        <pt x="950" y="159" on="0"/>
        <pt x="846" y="18" on="0"/>
        <pt x="731" y="-57" on="0"/>
        <pt x="674" y="-57" on="1"/>
        <pt x="652" y="-57" on="0"/>
        <pt x="603" y="-39" on="0"/>
        <pt x="562" y="2" on="0"/>
        <pt x="535" y="70" on="0"/>
        <pt x="535" y="121" on="1"/>
        <pt x="535" y="1274" on="1"/>
        <pt x="466" y="1265" on="0"/>
        <pt x="343" y="1205" on="0"/>
        <pt x="252" y="1101" on="0"/>
        <pt x="199" y="953" on="0"/>
        <pt x="199" y="856" on="1"/>
        <pt x="199" y="794" on="0"/>
        <pt x="225" y="695" on="0"/>
        <pt x="261" y="626" on="0"/>
        <pt x="297" y="588" on="0"/>
        <pt x="307" y="588" on="1"/>
        <pt x="316" y="588" on="0"/>
        <pt x="332" y="596" on="0"/>
        <pt x="340" y="596" on="1"/>
        <pt x="356" y="596" on="0"/>
        <pt x="356" y="571" on="1"/>
        <pt x="356" y="539" on="0"/>
        <pt x="327" y="480" on="0"/>
        <pt x="283" y="443" on="0"/>
        <pt x="231" y="433" on="0"/>
        <pt x="209" y="449" on="1"/>
        <pt x="182" y="467" on="0"/>
        <pt x="121" y="541" on="0"/>
        <pt x="70" y="646" on="0"/>
        <pt x="37" y="778" on="0"/>
        <pt x="37" y="856" on="1"/>
        <pt x="37" y="964" on="0"/>
        <pt x="89" y="1135" on="0"/>
        <pt x="176" y="1263" on="0"/>
        <pt x="292" y="1353" on="0"/>
        <pt x="420" y="1409" on="0"/>
        <pt x="552" y="1434" on="0"/>
        <pt x="612" y="1434" on="1"/>
        <pt x="628" y="1434" on="0"/>
        <pt x="658" y="1421" on="0"/>
        <pt x="680" y="1398" on="0"/>
        <pt x="694" y="1366" on="0"/>
        <pt x="694" y="1348" on="1"/>
        <pt x="694" y="133" on="1"/>
        <pt x="694" y="113" on="0"/>
        <pt x="707" y="104" on="0"/>
        <pt x="713" y="104" on="1"/>
        <pt x="728" y="104" on="0"/>
        <pt x="780" y="157" on="0"/>
        <pt x="841" y="265" on="0"/>
        <pt x="903" y="427" on="0"/>
        <pt x="953" y="645" on="0"/>
        <pt x="985" y="919" on="0"/>
      </contour>
    </TTGlyph>
    <TTGlyph name="W" xMin="47" yMin="-57" xMax="1075" yMax="1434">
      <contour>
        <pt x="995" y="268" on="1"/>
        <pt x="995" y="178" on="0"/>
        <pt x="950" y="54" on="0"/>
        <pt x="878" y="-23" on="0"/>
        <pt x="787" y="-57" on="0"/>
        <pt x="741" y="-57" on="1"/>
        <pt x="727" y="-57" on="0"/>
        <pt x="682" y="-52" on="0"/>
        <pt x="628" y="-34" on="0"/>
        <pt x="573" y="0" on="0"/>
        <pt x="549" y="29" on="1"/>
        <pt x="528" y="0" on="0"/>
        <pt x="478" y="-34" on="0"/>
        <pt x="429" y="-52" on="0"/>
        <pt x="387" y="-57" on="0"/>
        <pt x="373" y="-57" on="1"/>
        <pt x="325" y="-57" on="0"/>
        <pt x="237" y="-23" on="0"/>
        <pt x="168" y="54" on="0"/>
        <pt x="127" y="178" on="0"/>
        <pt x="127" y="268" on="1"/>
        <pt x="127" y="1200" on="1"/>
        <pt x="127" y="1239" on="0"/>
        <pt x="118" y="1293" on="0"/>
        <pt x="100" y="1330" on="0"/>
        <pt x="73" y="1352" on="0"/>
        <pt x="55" y="1358" on="1"/>
        <pt x="47" y="1361" on="0"/>
        <pt x="47" y="1366" on="1"/>
        <pt x="47" y="1373" on="0"/>
        <pt x="72" y="1396" on="0"/>
        <pt x="110" y="1418" on="0"/>
        <pt x="157" y="1434" on="0"/>
        <pt x="178" y="1434" on="1"/>
        <pt x="197" y="1434" on="0"/>
        <pt x="236" y="1414" on="0"/>
        <pt x="267" y="1365" on="0"/>
        <pt x="287" y="1283" on="0"/>
        <pt x="287" y="1221" on="1"/>
        <pt x="287" y="248" on="1"/>
        <pt x="287" y="189" on="0"/>
        <pt x="309" y="126" on="0"/>
        <pt x="340" y="97" on="0"/>
        <pt x="373" y="92" on="0"/>
        <pt x="383" y="92" on="1"/>
        <pt x="395" y="92" on="0"/>
        <pt x="428" y="97" on="0"/>
        <pt x="459" y="130" on="0"/>
        <pt x="481" y="202" on="0"/>
        <pt x="481" y="268" on="1"/>
        <pt x="481" y="1272" on="1"/>
        <pt x="481" y="1287" on="0"/>
        <pt x="478" y="1307" on="0"/>
        <pt x="475" y="1321" on="0"/>
        <pt x="473" y="1332" on="0"/>
        <pt x="473" y="1337" on="1"/>
        <pt x="473" y="1353" on="0"/>
        <pt x="505" y="1372" on="0"/>
        <pt x="526" y="1372" on="1"/>
        <pt x="577" y="1372" on="0"/>
        <pt x="641" y="1319" on="0"/>
        <pt x="641" y="1282" on="1"/>
        <pt x="641" y="248" on="1"/>
        <pt x="641" y="189" on="0"/>
        <pt x="663" y="126" on="0"/>
        <pt x="693" y="97" on="0"/>
        <pt x="726" y="92" on="0"/>
        <pt x="737" y="92" on="1"/>
        <pt x="747" y="92" on="0"/>
        <pt x="781" y="97" on="0"/>
        <pt x="813" y="126" on="0"/>
        <pt x="836" y="189" on="0"/>
        <pt x="836" y="248" on="1"/>
        <pt x="836" y="1221" on="1"/>
        <pt x="836" y="1283" on="0"/>
        <pt x="855" y="1365" on="0"/>
        <pt x="886" y="1414" on="0"/>
        <pt x="924" y="1434" on="0"/>
        <pt x="942" y="1434" on="1"/>
        <pt x="964" y="1434" on="0"/>
        <pt x="1011" y="1418" on="0"/>
        <pt x="1050" y="1396" on="0"/>
        <pt x="1075" y="1373" on="0"/>
        <pt x="1075" y="1366" on="1"/>
        <pt x="1075" y="1361" on="0"/>
        <pt x="1067" y="1358" on="1"/>
        <pt x="1047" y="1352" on="0"/>
        <pt x="1020" y="1330" on="0"/>
        <pt x="1003" y="1293" on="0"/>
        <pt x="995" y="1239" on="0"/>
        <pt x="995" y="1200" on="1"/>
      </contour>
    </TTGlyph>
    <TTGlyph name="Wacute" xMin="47" yMin="-57" xMax="1075" yMax="1790">
      <component glyphName="W" x="0" y="0" flags="0x204"/>
      <component glyphName="acute" x="188" y="553" flags="0x4"/>
    </TTGlyph>
    <TTGlyph name="Wcircumflex" xMin="47" yMin="-57" xMax="1075" yMax="1790">
      <component glyphName="W" x="0" y="0" flags="0x204"/>
      <component glyphName="circumflex" x="156" y="553" flags="0x4"/>
    </TTGlyph>
    <TTGlyph name="Wdieresis" xMin="47" yMin="-57" xMax="1075" yMax="1692">
      <component glyphName="W" x="0" y="0" flags="0x204"/>
      <component glyphName="dieresis" x="156" y="553" flags="0x4"/>
    </TTGlyph>
    <TTGlyph name="Wgrave" xMin="47" yMin="-57" xMax="1075" yMax="1790">
      <component glyphName="W" x="0" y="0" flags="0x204"/>
      <component glyphName="grave" x="121" y="553" flags="0x4"/>
    </TTGlyph>
    <TTGlyph name="X" xMin="0" yMin="-57" xMax="784" yMax="1434">
      <contour>
        <pt x="766" y="53" on="1"/>
        <pt x="775" y="48" on="0"/>
        <pt x="784" y="42" on="0"/>
        <pt x="784" y="33" on="1"/>
        <pt x="784" y="24" on="0"/>
        <pt x="757" y="-6" on="0"/>
        <pt x="719" y="-35" on="0"/>
        <pt x="678" y="-57" on="0"/>
        <pt x="664" y="-57" on="1"/>
        <pt x="648" y="-57" on="0"/>
        <pt x="629" y="-45" on="0"/>
        <pt x="621" y="-33" on="1"/>
        <pt x="561" y="61" on="0"/>
        <pt x="454" y="252" on="0"/>
        <pt x="406" y="346" on="1"/>
        <pt x="362" y="258" on="0"/>
        <pt x="264" y="79" on="0"/>
        <pt x="207" y="-12" on="1"/>
        <pt x="194" y="-32" on="0"/>
        <pt x="163" y="-57" on="0"/>
        <pt x="131" y="-57" on="1"/>
        <pt x="104" y="-57" on="0"/>
        <pt x="56" y="-33" on="0"/>
        <pt x="21" y="0" on="0"/>
        <pt x="0" y="32" on="0"/>
        <pt x="0" y="41" on="1"/>
        <pt x="0" y="46" on="0"/>
        <pt x="7" y="51" on="0"/>
        <pt x="18" y="51" on="1"/>
        <pt x="34" y="51" on="0"/>
        <pt x="95" y="121" on="0"/>
        <pt x="176" y="247" on="0"/>
        <pt x="270" y="423" on="0"/>
        <pt x="319" y="530" on="1"/>
        <pt x="247" y="692" on="0"/>
        <pt x="143" y="983" on="0"/>
        <pt x="75" y="1206" on="0"/>
        <pt x="43" y="1345" on="0"/>
        <pt x="43" y="1356" on="1"/>
        <pt x="43" y="1373" on="0"/>
        <pt x="70" y="1401" on="0"/>
        <pt x="110" y="1422" on="0"/>
        <pt x="154" y="1434" on="0"/>
        <pt x="172" y="1434" on="1"/>
        <pt x="186" y="1434" on="0"/>
        <pt x="215" y="1424" on="0"/>
        <pt x="215" y="1415" on="1"/>
        <pt x="215" y="1410" on="0"/>
        <pt x="201" y="1397" on="0"/>
        <pt x="201" y="1380" on="1"/>
        <pt x="201" y="1378" on="0"/>
        <pt x="225" y="1276" on="0"/>
        <pt x="276" y="1103" on="0"/>
        <pt x="354" y="870" on="0"/>
        <pt x="408" y="737" on="1"/>
        <pt x="471" y="892" on="0"/>
        <pt x="579" y="1235" on="0"/>
        <pt x="616" y="1411" on="1"/>
        <pt x="614" y="1413" on="0"/>
        <pt x="614" y="1417" on="1"/>
        <pt x="614" y="1423" on="0"/>
        <pt x="627" y="1430" on="0"/>
        <pt x="643" y="1433" on="0"/>
        <pt x="660" y="1434" on="0"/>
        <pt x="664" y="1434" on="1"/>
        <pt x="681" y="1434" on="0"/>
        <pt x="717" y="1426" on="0"/>
        <pt x="747" y="1411" on="0"/>
        <pt x="766" y="1390" on="0"/>
        <pt x="766" y="1378" on="1"/>
        <pt x="766" y="1372" on="0"/>
        <pt x="739" y="1240" on="0"/>
        <pt x="676" y="1016" on="0"/>
        <pt x="571" y="714" on="0"/>
        <pt x="494" y="539" on="1"/>
        <pt x="551" y="417" on="0"/>
        <pt x="685" y="171" on="0"/>
      </contour>
    </TTGlyph>
    <TTGlyph name="Y" xMin="37" yMin="-725" xMax="1308" yMax="1434">
      <contour>
        <pt x="1145" y="-10" on="1"/>
        <pt x="1145" y="-72" on="1"/>
        <pt x="1174" y="-67" on="0"/>
        <pt x="1229" y="-63" on="0"/>
        <pt x="1253" y="-61" on="1"/>
        <pt x="1277" y="-60" on="0"/>
        <pt x="1302" y="-82" on="0"/>
        <pt x="1308" y="-118" on="0"/>
        <pt x="1298" y="-160" on="0"/>
        <pt x="1276" y="-197" on="0"/>
        <pt x="1245" y="-223" on="0"/>
        <pt x="1227" y="-223" on="1"/>
        <pt x="1204" y="-223" on="0"/>
        <pt x="1163" y="-225" on="0"/>
        <pt x="1143" y="-227" on="1"/>
        <pt x="1138" y="-316" on="0"/>
        <pt x="1109" y="-493" on="0"/>
        <pt x="1043" y="-636" on="0"/>
        <pt x="931" y="-725" on="0"/>
        <pt x="842" y="-725" on="1"/>
        <pt x="789" y="-725" on="0"/>
        <pt x="704" y="-688" on="0"/>
        <pt x="644" y="-623" on="0"/>
        <pt x="612" y="-535" on="0"/>
        <pt x="612" y="-483" on="1"/>
        <pt x="612" y="-405" on="0"/>
        <pt x="676" y="-285" on="0"/>
        <pt x="780" y="-193" on="0"/>
        <pt x="914" y="-130" on="0"/>
        <pt x="985" y="-109" on="1"/>
        <pt x="985" y="-86" on="1"/>
        <pt x="985" y="197" on="1"/>
        <pt x="953" y="144" on="0"/>
        <pt x="881" y="51" on="0"/>
        <pt x="802" y="-18" on="0"/>
        <pt x="718" y="-57" on="0"/>
        <pt x="674" y="-57" on="1"/>
        <pt x="652" y="-57" on="0"/>
        <pt x="603" y="-39" on="0"/>
        <pt x="562" y="2" on="0"/>
        <pt x="535" y="70" on="0"/>
        <pt x="535" y="121" on="1"/>
        <pt x="535" y="1274" on="1"/>
        <pt x="466" y="1265" on="0"/>
        <pt x="343" y="1205" on="0"/>
        <pt x="252" y="1101" on="0"/>
        <pt x="199" y="953" on="0"/>
        <pt x="199" y="856" on="1"/>
        <pt x="199" y="794" on="0"/>
        <pt x="225" y="695" on="0"/>
        <pt x="261" y="626" on="0"/>
        <pt x="297" y="588" on="0"/>
        <pt x="307" y="588" on="1"/>
        <pt x="316" y="588" on="0"/>
        <pt x="332" y="596" on="0"/>
        <pt x="340" y="596" on="1"/>
        <pt x="356" y="596" on="0"/>
        <pt x="356" y="571" on="1"/>
        <pt x="356" y="539" on="0"/>
        <pt x="327" y="480" on="0"/>
        <pt x="283" y="443" on="0"/>
        <pt x="231" y="433" on="0"/>
        <pt x="209" y="449" on="1"/>
        <pt x="182" y="467" on="0"/>
        <pt x="121" y="541" on="0"/>
        <pt x="70" y="646" on="0"/>
        <pt x="37" y="778" on="0"/>
        <pt x="37" y="856" on="1"/>
        <pt x="37" y="964" on="0"/>
        <pt x="89" y="1135" on="0"/>
        <pt x="176" y="1263" on="0"/>
        <pt x="292" y="1353" on="0"/>
        <pt x="420" y="1409" on="0"/>
        <pt x="552" y="1434" on="0"/>
        <pt x="612" y="1434" on="1"/>
        <pt x="628" y="1434" on="0"/>
        <pt x="658" y="1421" on="0"/>
        <pt x="680" y="1398" on="0"/>
        <pt x="694" y="1366" on="0"/>
        <pt x="694" y="1348" on="1"/>
        <pt x="694" y="133" on="1"/>
        <pt x="694" y="113" on="0"/>
        <pt x="707" y="104" on="0"/>
        <pt x="713" y="104" on="1"/>
        <pt x="728" y="104" on="0"/>
        <pt x="780" y="147" on="0"/>
        <pt x="841" y="218" on="0"/>
        <pt x="903" y="311" on="0"/>
        <pt x="953" y="411" on="0"/>
        <pt x="985" y="511" on="0"/>
        <pt x="985" y="555" on="1"/>
        <pt x="985" y="1333" on="1"/>
        <pt x="985" y="1362" on="0"/>
        <pt x="977" y="1388" on="0"/>
        <pt x="977" y="1399" on="1"/>
        <pt x="977" y="1414" on="0"/>
        <pt x="1008" y="1434" on="0"/>
        <pt x="1030" y="1434" on="1"/>
        <pt x="1081" y="1434" on="0"/>
        <pt x="1145" y="1381" on="0"/>
        <pt x="1145" y="1343" on="1"/>
      </contour>
      <contour>
        <pt x="846" y="-567" on="1"/>
        <pt x="880" y="-567" on="0"/>
        <pt x="928" y="-517" on="0"/>
        <pt x="960" y="-432" on="0"/>
        <pt x="977" y="-321" on="0"/>
        <pt x="981" y="-260" on="1"/>
        <pt x="879" y="-291" on="0"/>
        <pt x="772" y="-402" on="0"/>
        <pt x="772" y="-479" on="1"/>
        <pt x="772" y="-526" on="0"/>
        <pt x="815" y="-567" on="0"/>
      </contour>
    </TTGlyph>
    <TTGlyph name="Yacute" xMin="37" yMin="-725" xMax="1308" yMax="1847">
      <component glyphName="Y" x="0" y="0" flags="0x204"/>
      <component glyphName="acute" x="453" y="610" flags="0x4"/>
    </TTGlyph>
    <TTGlyph name="Ycircumflex" xMin="37" yMin="-725" xMax="1308" yMax="1847">
      <component glyphName="Y" x="0" y="0" flags="0x204"/>
      <component glyphName="circumflex" x="420" y="610" flags="0x4"/>
    </TTGlyph>
    <TTGlyph name="Ydieresis" xMin="37" yMin="-725" xMax="1308" yMax="1749">
      <component glyphName="Y" x="0" y="0" flags="0x204"/>
      <component glyphName="dieresis" x="420" y="610" flags="0x4"/>
    </TTGlyph>
    <TTGlyph name="Ygrave" xMin="37" yMin="-725" xMax="1308" yMax="1847">
      <component glyphName="Y" x="0" y="0" flags="0x204"/>
      <component glyphName="grave" x="385" y="610" flags="0x4"/>
    </TTGlyph>
    <TTGlyph name="Z" xMin="57" yMin="-752" xMax="1022" yMax="1434">
      <contour>
        <pt x="324" y="-510" on="1"/>
        <pt x="324" y="-435" on="0"/>
        <pt x="383" y="-318" on="0"/>
        <pt x="480" y="-228" on="0"/>
        <pt x="606" y="-163" on="0"/>
        <pt x="674" y="-141" on="1"/>
        <pt x="646" y="-50" on="0"/>
        <pt x="526" y="48" on="0"/>
        <pt x="442" y="51" on="1"/>
        <pt x="425" y="52" on="0"/>
        <pt x="399" y="71" on="0"/>
        <pt x="382" y="101" on="0"/>
        <pt x="373" y="136" on="0"/>
        <pt x="373" y="152" on="1"/>
        <pt x="373" y="173" on="0"/>
        <pt x="389" y="203" on="0"/>
        <pt x="408" y="203" on="1"/>
        <pt x="411" y="203" on="0"/>
        <pt x="419" y="203" on="0"/>
        <pt x="424" y="201" on="1"/>
        <pt x="427" y="200" on="0"/>
        <pt x="482" y="224" on="0"/>
        <pt x="559" y="282" on="0"/>
        <pt x="647" y="382" on="0"/>
        <pt x="722" y="532" on="0"/>
        <pt x="772" y="741" on="0"/>
        <pt x="772" y="879" on="1"/>
        <pt x="772" y="966" on="0"/>
        <pt x="742" y="1093" on="0"/>
        <pt x="694" y="1181" on="0"/>
        <pt x="633" y="1235" on="0"/>
        <pt x="573" y="1264" on="0"/>
        <pt x="518" y="1274" on="0"/>
        <pt x="500" y="1274" on="1"/>
        <pt x="447" y="1274" on="0"/>
        <pt x="346" y="1223" on="0"/>
        <pt x="268" y="1125" on="0"/>
        <pt x="221" y="981" on="0"/>
        <pt x="221" y="887" on="1"/>
        <pt x="221" y="789" on="0"/>
        <pt x="267" y="652" on="0"/>
        <pt x="331" y="566" on="0"/>
        <pt x="401" y="526" on="0"/>
        <pt x="424" y="526" on="1"/>
        <pt x="435" y="526" on="0"/>
        <pt x="451" y="532" on="0"/>
        <pt x="457" y="532" on="1"/>
        <pt x="462" y="532" on="0"/>
        <pt x="467" y="521" on="0"/>
        <pt x="467" y="504" on="1"/>
        <pt x="467" y="450" on="0"/>
        <pt x="413" y="379" on="0"/>
        <pt x="365" y="379" on="1"/>
        <pt x="341" y="379" on="0"/>
        <pt x="277" y="407" on="0"/>
        <pt x="209" y="463" on="0"/>
        <pt x="142" y="546" on="0"/>
        <pt x="89" y="657" on="0"/>
        <pt x="57" y="795" on="0"/>
        <pt x="57" y="877" on="1"/>
        <pt x="57" y="1019" on="0"/>
        <pt x="138" y="1229" on="0"/>
        <pt x="267" y="1367" on="0"/>
        <pt x="426" y="1434" on="0"/>
        <pt x="504" y="1434" on="1"/>
        <pt x="598" y="1434" on="0"/>
        <pt x="757" y="1355" on="0"/>
        <pt x="872" y="1208" on="0"/>
        <pt x="936" y="999" on="0"/>
        <pt x="936" y="868" on="1"/>
        <pt x="936" y="717" on="0"/>
        <pt x="876" y="485" on="0"/>
        <pt x="786" y="311" on="0"/>
        <pt x="679" y="190" on="0"/>
        <pt x="631" y="150" on="1"/>
        <pt x="660" y="137" on="0"/>
        <pt x="718" y="94" on="0"/>
        <pt x="769" y="32" on="0"/>
        <pt x="812" y="-51" on="0"/>
        <pt x="827" y="-104" on="1"/>
        <pt x="865" y="-96" on="0"/>
        <pt x="934" y="-90" on="0"/>
        <pt x="965" y="-88" on="1"/>
        <pt x="1001" y="-86" on="0"/>
        <pt x="1022" y="-135" on="0"/>
        <pt x="1007" y="-197" on="0"/>
        <pt x="965" y="-249" on="0"/>
        <pt x="938" y="-250" on="1"/>
        <pt x="893" y="-250" on="0"/>
        <pt x="850" y="-256" on="1"/>
        <pt x="852" y="-267" on="0"/>
        <pt x="852" y="-291" on="0"/>
        <pt x="852" y="-303" on="1"/>
        <pt x="852" y="-381" on="0"/>
        <pt x="824" y="-540" on="0"/>
        <pt x="755" y="-670" on="0"/>
        <pt x="640" y="-752" on="0"/>
        <pt x="553" y="-752" on="1"/>
        <pt x="501" y="-752" on="0"/>
        <pt x="416" y="-715" on="0"/>
        <pt x="356" y="-650" on="0"/>
        <pt x="324" y="-561" on="0"/>
      </contour>
      <contour>
        <pt x="696" y="-285" on="1"/>
        <pt x="593" y="-316" on="0"/>
        <pt x="483" y="-428" on="0"/>
        <pt x="483" y="-506" on="1"/>
        <pt x="483" y="-552" on="0"/>
        <pt x="526" y="-594" on="0"/>
        <pt x="557" y="-594" on="1"/>
        <pt x="593" y="-594" on="0"/>
        <pt x="645" y="-540" on="0"/>
        <pt x="680" y="-456" on="0"/>
        <pt x="696" y="-352" on="0"/>
        <pt x="696" y="-301" on="1"/>
      </contour>
    </TTGlyph>
    <TTGlyph name="Zacute" xMin="57" yMin="-752" xMax="1022" yMax="1847">
      <component glyphName="Z" x="0" y="0" flags="0x204"/>
      <component glyphName="acute" x="150" y="610" flags="0x4"/>
    </TTGlyph>
    <TTGlyph name="Zcaron" xMin="57" yMin="-752" xMax="1022" yMax="1847">
      <component glyphName="Z" x="0" y="0" flags="0x204"/>
      <component glyphName="caron" x="111" y="610" flags="0x4"/>
    </TTGlyph>
    <TTGlyph name="Zdotaccent" xMin="57" yMin="-752" xMax="1022" yMax="1740">
      <component glyphName="Z" x="0" y="0" flags="0x204"/>
      <component glyphName="dotaccent" x="117" y="610" flags="0x4"/>
    </TTGlyph>
    <TTGlyph name="a" xMin="37" yMin="-57" xMax="909" yMax="803">
      <contour>
        <pt x="651" y="78" on="1"/>
        <pt x="682" y="78" on="0"/>
        <pt x="727" y="122" on="0"/>
        <pt x="760" y="188" on="0"/>
        <pt x="781" y="265" on="0"/>
        <pt x="788" y="299" on="1"/>
        <pt x="795" y="331" on="0"/>
        <pt x="822" y="360" on="0"/>
        <pt x="838" y="360" on="1"/>
        <pt x="850" y="360" on="0"/>
        <pt x="875" y="345" on="0"/>
        <pt x="896" y="321" on="0"/>
        <pt x="909" y="291" on="0"/>
        <pt x="909" y="276" on="1"/>
        <pt x="909" y="274" on="0"/>
        <pt x="909" y="268" on="0"/>
        <pt x="907" y="262" on="1"/>
        <pt x="894" y="211" on="0"/>
        <pt x="849" y="99" on="0"/>
        <pt x="779" y="5" on="0"/>
        <pt x="680" y="-57" on="0"/>
        <pt x="614" y="-57" on="1"/>
        <pt x="560" y="-57" on="0"/>
        <pt x="480" y="-11" on="0"/>
        <pt x="457" y="27" on="1"/>
        <pt x="426" y="-8" on="0"/>
        <pt x="339" y="-57" on="0"/>
        <pt x="281" y="-57" on="1"/>
        <pt x="221" y="-57" on="0"/>
        <pt x="130" y="-9" on="0"/>
        <pt x="68" y="74" on="0"/>
        <pt x="37" y="187" on="0"/>
        <pt x="37" y="252" on="1"/>
        <pt x="37" y="380" on="0"/>
        <pt x="119" y="584" on="0"/>
        <pt x="255" y="727" on="0"/>
        <pt x="430" y="803" on="0"/>
        <pt x="524" y="803" on="1"/>
        <pt x="566" y="803" on="0"/>
        <pt x="618" y="757" on="0"/>
        <pt x="618" y="717" on="1"/>
        <pt x="618" y="691" on="0"/>
        <pt x="607" y="670" on="0"/>
        <pt x="592" y="670" on="1"/>
        <pt x="578" y="670" on="0"/>
        <pt x="548" y="674" on="0"/>
        <pt x="532" y="674" on="1"/>
        <pt x="474" y="674" on="0"/>
        <pt x="354" y="623" on="0"/>
        <pt x="257" y="518" on="0"/>
        <pt x="195" y="357" on="0"/>
        <pt x="195" y="246" on="1"/>
        <pt x="195" y="165" on="0"/>
        <pt x="257" y="78" on="0"/>
        <pt x="311" y="78" on="1"/>
        <pt x="353" y="78" on="0"/>
        <pt x="409" y="141" on="0"/>
        <pt x="426" y="184" on="1"/>
        <pt x="426" y="500" on="1"/>
        <pt x="426" y="515" on="0"/>
        <pt x="423" y="535" on="0"/>
        <pt x="420" y="549" on="0"/>
        <pt x="418" y="560" on="0"/>
        <pt x="418" y="565" on="1"/>
        <pt x="418" y="581" on="0"/>
        <pt x="449" y="600" on="0"/>
        <pt x="471" y="600" on="1"/>
        <pt x="522" y="600" on="0"/>
        <pt x="582" y="547" on="0"/>
        <pt x="582" y="510" on="1"/>
        <pt x="582" y="172" on="1"/>
        <pt x="582" y="155" on="0"/>
        <pt x="590" y="122" on="0"/>
        <pt x="606" y="95" on="0"/>
        <pt x="633" y="78" on="0"/>
      </contour>
    </TTGlyph>
    <TTGlyph name="aacute" xMin="37" yMin="-57" xMax="909" yMax="1237">
      <component glyphName="a" x="0" y="0" flags="0x204"/>
      <component glyphName="acute" x="51" y="0" flags="0x4"/>
    </TTGlyph>
    <TTGlyph name="abreve" xMin="37" yMin="-57" xMax="909" yMax="1217">
      <component glyphName="a" x="0" y="0" flags="0x204"/>
      <component glyphName="breve" x="12" y="0" flags="0x4"/>
    </TTGlyph>
    <TTGlyph name="acircumflex" xMin="37" yMin="-57" xMax="909" yMax="1237">
      <component glyphName="a" x="0" y="0" flags="0x204"/>
      <component glyphName="circumflex" x="18" y="0" flags="0x4"/>
    </TTGlyph>
    <TTGlyph name="acute" xMin="231" yMin="905" xMax="586" yMax="1237">
      <contour>
        <pt x="379" y="942" on="1"/>
        <pt x="366" y="922" on="0"/>
        <pt x="328" y="905" on="0"/>
        <pt x="311" y="905" on="1"/>
        <pt x="269" y="905" on="0"/>
        <pt x="231" y="935" on="0"/>
        <pt x="231" y="952" on="1"/>
        <pt x="231" y="960" on="0"/>
        <pt x="242" y="975" on="0"/>
        <pt x="248" y="983" on="1"/>
        <pt x="434" y="1198" on="1"/>
        <pt x="437" y="1215" on="0"/>
        <pt x="480" y="1237" on="0"/>
        <pt x="502" y="1237" on="1"/>
        <pt x="517" y="1237" on="0"/>
        <pt x="547" y="1228" on="0"/>
        <pt x="571" y="1212" on="0"/>
        <pt x="586" y="1191" on="0"/>
        <pt x="586" y="1178" on="1"/>
        <pt x="586" y="1164" on="0"/>
        <pt x="569" y="1146" on="0"/>
        <pt x="561" y="1137" on="1"/>
      </contour>
    </TTGlyph>
    <TTGlyph name="adieresis" xMin="37" yMin="-57" xMax="909" yMax="1139">
      <component glyphName="a" x="0" y="0" flags="0x204"/>
      <component glyphName="dieresis" x="18" y="0" flags="0x4"/>
    </TTGlyph>
</ttFont>
